<svg width="94" height="89" viewBox="0 0 94 89" fill="none" xmlns="http://www.w3.org/2000/svg">
<g clip-path="url(#clip0_23_2668)">
<mask id="path-1-outside-1_23_2668" maskUnits="userSpaceOnUse" x="3.95605" y="0.447021" width="81" height="84" fill="black">
<rect fill="white" x="3.95605" y="0.447021" width="81" height="84"/>
<path d="M66.1995 1.4962C54.7072 0.696169 45.1087 9.76495 45.1087 20.8344C45.1087 22.9684 45.5145 25.2355 46.19 27.3695L47.9474 30.8368C48.2178 31.2371 48.4881 31.6369 48.7584 32.0372L48.8939 32.1708C48.8939 32.3045 49.0294 32.3045 49.0294 32.4375L18.7459 32.4381L15.0955 20.5683L4.95605 20.5677V22.5681H13.6085L16.7181 32.4381L25.6413 61.5136H25.7768L28.6162 70.7159C26.453 71.7826 24.8304 73.9167 24.8304 76.584C24.8304 80.185 27.8046 83.1191 31.455 83.1191C35.1054 83.1191 38.0796 80.185 38.0796 76.584C38.0796 74.8503 37.4035 73.2496 36.1868 72.0493H57.1426C56.0613 73.2496 55.2498 74.8503 55.2498 76.584C55.2498 80.185 58.224 83.1191 61.8744 83.1191C65.5248 83.1191 68.499 80.185 68.499 76.584C68.499 72.9829 65.5248 70.0489 61.8744 70.0489H31.1845C30.9141 70.0489 30.6438 70.0489 30.238 70.1825L27.5342 61.5135H68.6345L69.8513 57.3791C71.7442 57.2454 73.2313 56.0451 73.7719 54.1783C73.9074 53.1116 74.0423 52.1779 74.1777 51.1107V50.9771H76.2055V48.9767H74.5829C75.7997 42.5747 78.0977 36.5729 81.343 31.3723C81.4784 31.1056 81.6133 30.8389 81.8836 30.5722C83.7764 27.3715 84.5874 23.6368 84.4526 19.9028C84.0475 10.0321 76.0706 2.1637 66.2022 1.49649L66.1995 1.4962ZM66.064 76.5843C66.064 78.985 64.0362 81.119 61.4672 81.119C59.0336 81.119 56.8704 79.1186 56.8704 76.5843C56.8704 74.1836 58.8982 72.0496 61.4672 72.0496C64.0362 72.1832 66.064 74.1836 66.064 76.5843ZM35.7805 76.5843C35.7805 78.985 33.7527 81.119 31.1837 81.119C28.7501 81.119 26.5869 79.1186 26.5869 76.5843C26.5869 74.1836 28.6147 72.0496 31.1837 72.0496C33.7527 72.1832 35.7805 74.1836 35.7805 76.5843ZM54.1675 46.0428H48.0835V34.5727H49.8409C51.7337 38.0407 53.2209 41.9085 54.1673 46.0428H54.1675ZM55.2494 50.9779C55.5198 52.1782 55.6552 53.3786 55.7901 54.5789V54.8456C56.0604 55.5126 56.6011 56.1796 57.1423 56.5793L56.7365 59.5133H48.2191V48.0432H54.7083C54.8437 48.3099 54.8437 48.7102 54.9786 48.9768H53.2212V50.9772L55.2494 50.9779ZM46.1912 48.0432V59.5133H37.6738L35.7809 48.0432H46.1912ZM35.5105 46.0428L33.7531 34.5727H46.1914V46.0428H35.5105ZM31.7247 34.4398L33.4821 45.9099H22.9369L19.4221 34.4398H31.7247ZM23.4781 48.0432H33.7531L35.5105 59.5133H26.9931L23.4781 48.0432ZM58.7644 59.5133L59.0347 57.3794H59.5754H67.8226L67.1465 59.3797H58.7645L58.7644 59.5133ZM71.8787 53.9119C71.6083 54.8455 70.7973 55.5126 69.8509 55.5126H59.7108C58.8998 55.5126 58.0882 54.9792 57.818 54.3122C57.6825 53.2455 57.5476 52.1782 57.4122 50.9779H72.284C72.1491 51.9109 72.0137 52.9783 71.8788 53.9119L71.8787 53.9119ZM62.5502 48.9769C63.0909 43.5085 62.956 38.7071 62.6857 35.3734C63.3618 35.507 64.0379 35.507 64.8489 35.507C65.6599 35.507 66.336 35.507 67.0121 35.3734C66.7418 38.7077 66.6063 43.5092 67.1476 48.9769H62.5502ZM80.2608 29.3724C79.9905 29.7727 79.855 30.0394 79.7202 30.306C76.4756 35.7744 74.042 42.3094 72.6898 48.9786H69.0394C68.4987 43.2435 68.769 38.3091 68.9039 34.9748C70.6613 34.5745 72.0135 33.9081 72.9601 33.1075C73.2304 32.8409 73.3659 32.7072 73.5007 32.4405C73.6362 32.3069 73.6362 32.1739 73.6362 32.1739C73.7717 31.7736 73.9066 31.5069 73.9066 31.1072V30.9735C73.9066 30.0399 73.5008 29.2399 72.9601 28.7064C71.7433 27.5061 69.5801 27.5061 68.3633 28.7064C67.8226 29.2398 67.4168 30.0404 67.4168 30.9735C67.4168 31.2402 67.2814 32.1739 67.1465 33.5078C66.4704 33.6415 65.6594 33.6415 64.8483 33.6415C64.0373 33.6415 63.2257 33.5078 62.5502 33.5078C62.4147 32.1739 62.2798 31.2407 62.2798 30.9735C62.2798 30.1735 61.874 29.3728 61.3334 28.7064C60.1166 27.5061 57.9534 27.5061 56.7366 28.7064C56.0604 29.3734 55.7901 30.1734 55.7901 30.9735V31.1072C55.7901 31.5075 55.9256 31.7742 56.0604 32.1739C56.0604 32.3075 56.1959 32.4405 56.1959 32.4405C56.3314 32.7072 56.4662 32.9739 56.7366 33.1075C57.5476 33.9076 59.0347 34.5746 60.7928 34.9748C61.0631 38.3091 61.1986 43.2435 60.6573 48.9786H57.1425C55.9257 42.5766 53.6277 36.5749 50.6528 31.1064L50.5174 30.9727C50.247 30.5724 50.1116 30.1727 49.8412 29.906L48.2186 26.7053C47.5425 24.838 47.2722 22.9706 47.2722 20.9702C47.2722 10.9672 55.9246 2.83175 66.2005 3.49896C74.989 4.03231 82.0186 11.1007 82.4251 20.0368C82.6954 23.3711 81.8844 26.5718 80.2618 29.3729L80.2608 29.3724ZM71.8788 31.2396C71.8788 31.3733 71.7433 31.3733 71.7433 31.5063C71.3375 32.0397 70.5266 32.44 69.1743 32.8403C69.3098 31.64 69.4446 30.973 69.4446 30.973V30.8394C69.4446 30.5727 69.5801 30.1724 69.8504 29.9057C70.3911 29.3724 71.2027 29.3724 71.6078 29.9057C71.8782 30.1724 72.0136 30.4391 72.0136 30.8394C71.8788 30.9724 71.8788 31.1061 71.8788 31.2397L71.8788 31.2396ZM57.818 31.5063L57.6825 31.3727C57.6825 31.239 57.547 31.106 57.547 30.9724C57.547 30.7057 57.6825 30.3054 57.9528 30.0387C58.4935 29.5054 59.3051 29.5054 59.7102 30.0387C59.9806 30.3054 60.116 30.5721 60.116 30.9724V31.106C60.116 31.106 60.2515 31.773 60.3864 32.9733C59.1702 32.4399 58.2238 31.906 57.818 31.5062L57.818 31.5063Z"/>
</mask>
<path d="M66.1995 1.4962C54.7072 0.696169 45.1087 9.76495 45.1087 20.8344C45.1087 22.9684 45.5145 25.2355 46.19 27.3695L47.9474 30.8368C48.2178 31.2371 48.4881 31.6369 48.7584 32.0372L48.8939 32.1708C48.8939 32.3045 49.0294 32.3045 49.0294 32.4375L18.7459 32.4381L15.0955 20.5683L4.95605 20.5677V22.5681H13.6085L16.7181 32.4381L25.6413 61.5136H25.7768L28.6162 70.7159C26.453 71.7826 24.8304 73.9167 24.8304 76.584C24.8304 80.185 27.8046 83.1191 31.455 83.1191C35.1054 83.1191 38.0796 80.185 38.0796 76.584C38.0796 74.8503 37.4035 73.2496 36.1868 72.0493H57.1426C56.0613 73.2496 55.2498 74.8503 55.2498 76.584C55.2498 80.185 58.224 83.1191 61.8744 83.1191C65.5248 83.1191 68.499 80.185 68.499 76.584C68.499 72.9829 65.5248 70.0489 61.8744 70.0489H31.1845C30.9141 70.0489 30.6438 70.0489 30.238 70.1825L27.5342 61.5135H68.6345L69.8513 57.3791C71.7442 57.2454 73.2313 56.0451 73.7719 54.1783C73.9074 53.1116 74.0423 52.1779 74.1777 51.1107V50.9771H76.2055V48.9767H74.5829C75.7997 42.5747 78.0977 36.5729 81.343 31.3723C81.4784 31.1056 81.6133 30.8389 81.8836 30.5722C83.7764 27.3715 84.5874 23.6368 84.4526 19.9028C84.0475 10.0321 76.0706 2.1637 66.2022 1.49649L66.1995 1.4962ZM66.064 76.5843C66.064 78.985 64.0362 81.119 61.4672 81.119C59.0336 81.119 56.8704 79.1186 56.8704 76.5843C56.8704 74.1836 58.8982 72.0496 61.4672 72.0496C64.0362 72.1832 66.064 74.1836 66.064 76.5843ZM35.7805 76.5843C35.7805 78.985 33.7527 81.119 31.1837 81.119C28.7501 81.119 26.5869 79.1186 26.5869 76.5843C26.5869 74.1836 28.6147 72.0496 31.1837 72.0496C33.7527 72.1832 35.7805 74.1836 35.7805 76.5843ZM54.1675 46.0428H48.0835V34.5727H49.8409C51.7337 38.0407 53.2209 41.9085 54.1673 46.0428H54.1675ZM55.2494 50.9779C55.5198 52.1782 55.6552 53.3786 55.7901 54.5789V54.8456C56.0604 55.5126 56.6011 56.1796 57.1423 56.5793L56.7365 59.5133H48.2191V48.0432H54.7083C54.8437 48.3099 54.8437 48.7102 54.9786 48.9768H53.2212V50.9772L55.2494 50.9779ZM46.1912 48.0432V59.5133H37.6738L35.7809 48.0432H46.1912ZM35.5105 46.0428L33.7531 34.5727H46.1914V46.0428H35.5105ZM31.7247 34.4398L33.4821 45.9099H22.9369L19.4221 34.4398H31.7247ZM23.4781 48.0432H33.7531L35.5105 59.5133H26.9931L23.4781 48.0432ZM58.7644 59.5133L59.0347 57.3794H59.5754H67.8226L67.1465 59.3797H58.7645L58.7644 59.5133ZM71.8787 53.9119C71.6083 54.8455 70.7973 55.5126 69.8509 55.5126H59.7108C58.8998 55.5126 58.0882 54.9792 57.818 54.3122C57.6825 53.2455 57.5476 52.1782 57.4122 50.9779H72.284C72.1491 51.9109 72.0137 52.9783 71.8788 53.9119L71.8787 53.9119ZM62.5502 48.9769C63.0909 43.5085 62.956 38.7071 62.6857 35.3734C63.3618 35.507 64.0379 35.507 64.8489 35.507C65.6599 35.507 66.336 35.507 67.0121 35.3734C66.7418 38.7077 66.6063 43.5092 67.1476 48.9769H62.5502ZM80.2608 29.3724C79.9905 29.7727 79.855 30.0394 79.7202 30.306C76.4756 35.7744 74.042 42.3094 72.6898 48.9786H69.0394C68.4987 43.2435 68.769 38.3091 68.9039 34.9748C70.6613 34.5745 72.0135 33.9081 72.9601 33.1075C73.2304 32.8409 73.3659 32.7072 73.5007 32.4405C73.6362 32.3069 73.6362 32.1739 73.6362 32.1739C73.7717 31.7736 73.9066 31.5069 73.9066 31.1072V30.9735C73.9066 30.0399 73.5008 29.2399 72.9601 28.7064C71.7433 27.5061 69.5801 27.5061 68.3633 28.7064C67.8226 29.2398 67.4168 30.0404 67.4168 30.9735C67.4168 31.2402 67.2814 32.1739 67.1465 33.5078C66.4704 33.6415 65.6594 33.6415 64.8483 33.6415C64.0373 33.6415 63.2257 33.5078 62.5502 33.5078C62.4147 32.1739 62.2798 31.2407 62.2798 30.9735C62.2798 30.1735 61.874 29.3728 61.3334 28.7064C60.1166 27.5061 57.9534 27.5061 56.7366 28.7064C56.0604 29.3734 55.7901 30.1734 55.7901 30.9735V31.1072C55.7901 31.5075 55.9256 31.7742 56.0604 32.1739C56.0604 32.3075 56.1959 32.4405 56.1959 32.4405C56.3314 32.7072 56.4662 32.9739 56.7366 33.1075C57.5476 33.9076 59.0347 34.5746 60.7928 34.9748C61.0631 38.3091 61.1986 43.2435 60.6573 48.9786H57.1425C55.9257 42.5766 53.6277 36.5749 50.6528 31.1064L50.5174 30.9727C50.247 30.5724 50.1116 30.1727 49.8412 29.906L48.2186 26.7053C47.5425 24.838 47.2722 22.9706 47.2722 20.9702C47.2722 10.9672 55.9246 2.83175 66.2005 3.49896C74.989 4.03231 82.0186 11.1007 82.4251 20.0368C82.6954 23.3711 81.8844 26.5718 80.2618 29.3729L80.2608 29.3724ZM71.8788 31.2396C71.8788 31.3733 71.7433 31.3733 71.7433 31.5063C71.3375 32.0397 70.5266 32.44 69.1743 32.8403C69.3098 31.64 69.4446 30.973 69.4446 30.973V30.8394C69.4446 30.5727 69.5801 30.1724 69.8504 29.9057C70.3911 29.3724 71.2027 29.3724 71.6078 29.9057C71.8782 30.1724 72.0136 30.4391 72.0136 30.8394C71.8788 30.9724 71.8788 31.1061 71.8788 31.2397L71.8788 31.2396ZM57.818 31.5063L57.6825 31.3727C57.6825 31.239 57.547 31.106 57.547 30.9724C57.547 30.7057 57.6825 30.3054 57.9528 30.0387C58.4935 29.5054 59.3051 29.5054 59.7102 30.0387C59.9806 30.3054 60.116 30.5721 60.116 30.9724V31.106C60.116 31.106 60.2515 31.773 60.3864 32.9733C59.1702 32.4399 58.2238 31.906 57.818 31.5062L57.818 31.5063Z" fill="white"/>
<path d="M66.1995 1.4962C54.7072 0.696169 45.1087 9.76495 45.1087 20.8344C45.1087 22.9684 45.5145 25.2355 46.19 27.3695L47.9474 30.8368C48.2178 31.2371 48.4881 31.6369 48.7584 32.0372L48.8939 32.1708C48.8939 32.3045 49.0294 32.3045 49.0294 32.4375L18.7459 32.4381L15.0955 20.5683L4.95605 20.5677V22.5681H13.6085L16.7181 32.4381L25.6413 61.5136H25.7768L28.6162 70.7159C26.453 71.7826 24.8304 73.9167 24.8304 76.584C24.8304 80.185 27.8046 83.1191 31.455 83.1191C35.1054 83.1191 38.0796 80.185 38.0796 76.584C38.0796 74.8503 37.4035 73.2496 36.1868 72.0493H57.1426C56.0613 73.2496 55.2498 74.8503 55.2498 76.584C55.2498 80.185 58.224 83.1191 61.8744 83.1191C65.5248 83.1191 68.499 80.185 68.499 76.584C68.499 72.9829 65.5248 70.0489 61.8744 70.0489H31.1845C30.9141 70.0489 30.6438 70.0489 30.238 70.1825L27.5342 61.5135H68.6345L69.8513 57.3791C71.7442 57.2454 73.2313 56.0451 73.7719 54.1783C73.9074 53.1116 74.0423 52.1779 74.1777 51.1107V50.9771H76.2055V48.9767H74.5829C75.7997 42.5747 78.0977 36.5729 81.343 31.3723C81.4784 31.1056 81.6133 30.8389 81.8836 30.5722C83.7764 27.3715 84.5874 23.6368 84.4526 19.9028C84.0475 10.0321 76.0706 2.1637 66.2022 1.49649L66.1995 1.4962ZM66.064 76.5843C66.064 78.985 64.0362 81.119 61.4672 81.119C59.0336 81.119 56.8704 79.1186 56.8704 76.5843C56.8704 74.1836 58.8982 72.0496 61.4672 72.0496C64.0362 72.1832 66.064 74.1836 66.064 76.5843ZM35.7805 76.5843C35.7805 78.985 33.7527 81.119 31.1837 81.119C28.7501 81.119 26.5869 79.1186 26.5869 76.5843C26.5869 74.1836 28.6147 72.0496 31.1837 72.0496C33.7527 72.1832 35.7805 74.1836 35.7805 76.5843ZM54.1675 46.0428H48.0835V34.5727H49.8409C51.7337 38.0407 53.2209 41.9085 54.1673 46.0428H54.1675ZM55.2494 50.9779C55.5198 52.1782 55.6552 53.3786 55.7901 54.5789V54.8456C56.0604 55.5126 56.6011 56.1796 57.1423 56.5793L56.7365 59.5133H48.2191V48.0432H54.7083C54.8437 48.3099 54.8437 48.7102 54.9786 48.9768H53.2212V50.9772L55.2494 50.9779ZM46.1912 48.0432V59.5133H37.6738L35.7809 48.0432H46.1912ZM35.5105 46.0428L33.7531 34.5727H46.1914V46.0428H35.5105ZM31.7247 34.4398L33.4821 45.9099H22.9369L19.4221 34.4398H31.7247ZM23.4781 48.0432H33.7531L35.5105 59.5133H26.9931L23.4781 48.0432ZM58.7644 59.5133L59.0347 57.3794H59.5754H67.8226L67.1465 59.3797H58.7645L58.7644 59.5133ZM71.8787 53.9119C71.6083 54.8455 70.7973 55.5126 69.8509 55.5126H59.7108C58.8998 55.5126 58.0882 54.9792 57.818 54.3122C57.6825 53.2455 57.5476 52.1782 57.4122 50.9779H72.284C72.1491 51.9109 72.0137 52.9783 71.8788 53.9119L71.8787 53.9119ZM62.5502 48.9769C63.0909 43.5085 62.956 38.7071 62.6857 35.3734C63.3618 35.507 64.0379 35.507 64.8489 35.507C65.6599 35.507 66.336 35.507 67.0121 35.3734C66.7418 38.7077 66.6063 43.5092 67.1476 48.9769H62.5502ZM80.2608 29.3724C79.9905 29.7727 79.855 30.0394 79.7202 30.306C76.4756 35.7744 74.042 42.3094 72.6898 48.9786H69.0394C68.4987 43.2435 68.769 38.3091 68.9039 34.9748C70.6613 34.5745 72.0135 33.9081 72.9601 33.1075C73.2304 32.8409 73.3659 32.7072 73.5007 32.4405C73.6362 32.3069 73.6362 32.1739 73.6362 32.1739C73.7717 31.7736 73.9066 31.5069 73.9066 31.1072V30.9735C73.9066 30.0399 73.5008 29.2399 72.9601 28.7064C71.7433 27.5061 69.5801 27.5061 68.3633 28.7064C67.8226 29.2398 67.4168 30.0404 67.4168 30.9735C67.4168 31.2402 67.2814 32.1739 67.1465 33.5078C66.4704 33.6415 65.6594 33.6415 64.8483 33.6415C64.0373 33.6415 63.2257 33.5078 62.5502 33.5078C62.4147 32.1739 62.2798 31.2407 62.2798 30.9735C62.2798 30.1735 61.874 29.3728 61.3334 28.7064C60.1166 27.5061 57.9534 27.5061 56.7366 28.7064C56.0604 29.3734 55.7901 30.1734 55.7901 30.9735V31.1072C55.7901 31.5075 55.9256 31.7742 56.0604 32.1739C56.0604 32.3075 56.1959 32.4405 56.1959 32.4405C56.3314 32.7072 56.4662 32.9739 56.7366 33.1075C57.5476 33.9076 59.0347 34.5746 60.7928 34.9748C61.0631 38.3091 61.1986 43.2435 60.6573 48.9786H57.1425C55.9257 42.5766 53.6277 36.5749 50.6528 31.1064L50.5174 30.9727C50.247 30.5724 50.1116 30.1727 49.8412 29.906L48.2186 26.7053C47.5425 24.838 47.2722 22.9706 47.2722 20.9702C47.2722 10.9672 55.9246 2.83175 66.2005 3.49896C74.989 4.03231 82.0186 11.1007 82.4251 20.0368C82.6954 23.3711 81.8844 26.5718 80.2618 29.3729L80.2608 29.3724ZM71.8788 31.2396C71.8788 31.3733 71.7433 31.3733 71.7433 31.5063C71.3375 32.0397 70.5266 32.44 69.1743 32.8403C69.3098 31.64 69.4446 30.973 69.4446 30.973V30.8394C69.4446 30.5727 69.5801 30.1724 69.8504 29.9057C70.3911 29.3724 71.2027 29.3724 71.6078 29.9057C71.8782 30.1724 72.0136 30.4391 72.0136 30.8394C71.8788 30.9724 71.8788 31.1061 71.8788 31.2397L71.8788 31.2396ZM57.818 31.5063L57.6825 31.3727C57.6825 31.239 57.547 31.106 57.547 30.9724C57.547 30.7057 57.6825 30.3054 57.9528 30.0387C58.4935 29.5054 59.3051 29.5054 59.7102 30.0387C59.9806 30.3054 60.116 30.5721 60.116 30.9724V31.106C60.116 31.106 60.2515 31.773 60.3864 32.9733C59.1702 32.4399 58.2238 31.906 57.818 31.5062L57.818 31.5063Z" stroke="white" stroke-width="0.93086" stroke-linejoin="round" mask="url(#path-1-outside-1_23_2668)"/>
<path d="M81.657 39.6247C81.7466 39.7151 81.8922 39.7168 81.9839 39.6285L83.4348 38.2304C83.4797 38.1872 83.5053 38.1278 83.5061 38.0656C83.5068 38.0033 83.4825 37.9433 83.4387 37.8991L80.9825 35.4187C80.893 35.3282 80.7473 35.3265 80.6557 35.4148L79.2047 36.8129C79.1599 36.8561 79.1342 36.9155 79.1335 36.9777C79.1328 37.04 79.157 37.1 79.2009 37.1442L81.657 39.6247Z" fill="white" stroke="white" stroke-width="0.46543" stroke-linejoin="round"/>
<path d="M88.8681 28.8564C88.9913 28.8905 89.119 28.8188 89.154 28.6958L89.702 26.7699C89.719 26.7103 89.7115 26.6463 89.6811 26.5923C89.6507 26.5382 89.6 26.4985 89.5403 26.4819L86.156 25.5452C86.0328 25.5111 85.9051 25.5829 85.8701 25.7058L85.3221 27.6318C85.3051 27.6914 85.3126 27.7554 85.343 27.8094C85.3734 27.8635 85.4241 27.9032 85.4838 27.9197L88.8681 28.8564Z" fill="white" stroke="white" stroke-width="0.46543" stroke-linejoin="round"/>
<path d="M89.3439 13.6942C89.3119 13.5703 89.1858 13.4955 89.0618 13.5268L85.656 14.3849C85.5959 14.4 85.5444 14.4385 85.5127 14.4918C85.4811 14.5451 85.4721 14.6088 85.4876 14.6688L85.989 16.607C86.0211 16.7308 86.1471 16.8056 86.2712 16.7743L89.6769 15.9163C89.737 15.9011 89.7886 15.8626 89.8202 15.8093C89.8518 15.756 89.8609 15.6923 89.8453 15.6323L89.3439 13.6942Z" fill="white" stroke="white" stroke-width="0.46543" stroke-linejoin="round"/>
<path d="M82.3591 2.62304C82.2696 2.53257 82.124 2.53083 82.0323 2.61913L79.5173 5.04152C79.4724 5.08471 79.4468 5.14408 79.446 5.20635C79.4453 5.26861 79.4695 5.32857 79.5133 5.37283L80.9299 6.80417C81.0195 6.89465 81.1651 6.89639 81.2568 6.80808L83.7718 4.3857C83.8166 4.3425 83.8423 4.28313 83.843 4.22087C83.8438 4.15861 83.8196 4.09864 83.7758 4.05438L82.3591 2.62304Z" fill="white" stroke="white" stroke-width="0.46543" stroke-linejoin="round"/>
<path d="M70.6835 -3.61026C70.5602 -3.64439 70.4325 -3.57266 70.3976 -3.44965L69.448 -0.11113C69.4311 -0.0514941 69.4386 0.012444 69.469 0.0665007C69.4993 0.120557 69.55 0.160263 69.6098 0.176809L71.5621 0.717418C71.6853 0.751548 71.813 0.67982 71.848 0.556806L72.7976 -2.78171C72.8145 -2.84135 72.807 -2.90529 72.7766 -2.95934C72.7463 -3.0134 72.6956 -3.05311 72.6358 -3.06965L70.6835 -3.61026Z" fill="white" stroke="white" stroke-width="0.46543" stroke-linejoin="round"/>
<path d="M59.7808 -3.53941C59.7487 -3.66327 59.6227 -3.73801 59.4986 -3.70674L57.5339 -3.21148C57.4738 -3.19633 57.4223 -3.15784 57.3907 -3.10453C57.359 -3.05122 57.35 -2.9875 57.3655 -2.9275L58.2354 0.432229C58.2674 0.556088 58.3935 0.630832 58.5175 0.599558L60.4822 0.104307C60.5423 0.0891576 60.5939 0.0506608 60.6255 -0.00264859C60.6571 -0.055958 60.6662 -0.119676 60.6506 -0.179676L59.7808 -3.53941Z" fill="white" stroke="white" stroke-width="0.46543" stroke-linejoin="round"/>
<path d="M48.047 2.15598C47.9574 2.06551 47.8118 2.0638 47.7201 2.15212L46.2692 3.5502C46.2244 3.5934 46.1987 3.65277 46.198 3.71503C46.1972 3.77729 46.2215 3.83725 46.2653 3.8815L48.7215 6.36256C48.811 6.45302 48.9567 6.45474 49.0483 6.36641L50.4993 4.96834C50.5441 4.92513 50.5698 4.86576 50.5705 4.8035C50.5712 4.74124 50.547 4.68128 50.5032 4.63703L48.047 2.15598Z" fill="white" stroke="white" stroke-width="0.46543" stroke-linejoin="round"/>
<path d="M40.7761 12.9815C40.6529 12.9474 40.5252 13.0191 40.4902 13.1421L39.9422 15.0681C39.9252 15.1277 39.9327 15.1916 39.9631 15.2457C39.9935 15.2998 40.0441 15.3395 40.1039 15.356L43.4881 16.2933C43.6114 16.3275 43.7391 16.2557 43.7741 16.1327L44.3221 14.2068C44.3391 14.1472 44.3315 14.0832 44.3012 14.0292C44.2708 13.9751 44.2201 13.9354 44.1604 13.9188L40.7761 12.9815Z" fill="white" stroke="white" stroke-width="0.46543" stroke-linejoin="round"/>
<path d="M43.5842 25.1669C43.5521 25.0431 43.4261 24.9683 43.302 24.9996L39.8963 25.8576C39.8362 25.8728 39.7846 25.9113 39.753 25.9646C39.7214 26.0179 39.7123 26.0816 39.7278 26.1416L40.2293 28.0797C40.2613 28.2036 40.3873 28.2784 40.5114 28.2471L43.9172 27.389C43.9773 27.3739 44.0288 27.3354 44.0605 27.2821C44.0921 27.2288 44.1011 27.1651 44.0856 27.1051L43.5842 25.1669Z" fill="white" stroke="white" stroke-width="0.46543" stroke-linejoin="round"/>
</g>
<defs>
<clipPath id="clip0_23_2668">
<rect width="93.086" height="88.8548" fill="white" transform="translate(0.777344 0.0817871)"/>
</clipPath>
</defs>
</svg>
