<svg width="66" height="66" viewBox="0 0 66 66" fill="none" xmlns="http://www.w3.org/2000/svg">
<path d="M64.8902 56.1923L53.946 56.192V7.29417C53.946 3.5359 50.9699 0.408978 47.2578 0.408978H5.95116C2.71823 0.408978 0.253735 3.13869 0.253735 6.77607V8.8497V9.57555C0.253735 9.71333 0.365426 9.82502 0.503204 9.82502H7.78209V58.7228C7.78209 62.4802 10.657 65.5002 14.2647 65.6079L14.2647 65.608H14.2722H57.9565H58.5507C62.1659 65.608 65.1397 62.4786 65.1397 58.7228V56.4418C65.1397 56.304 65.028 56.1923 64.8902 56.1923ZM6.0505 2.46296H42.7825C41.6039 3.71397 40.8672 5.37613 40.8672 7.29405V7.29772C40.8672 7.39974 40.8672 7.53922 40.8807 7.68075C40.8835 7.70978 40.8869 7.73981 40.8912 7.77044H2.23867V6.77549C2.23867 6.77266 2.23862 6.76984 2.23853 6.76703C2.24028 5.47466 2.64436 4.39933 3.31418 3.64987C3.98372 2.90072 4.93076 2.46296 6.0505 2.46296ZM14.4705 63.5525H14.4698C11.9436 63.5525 9.86552 61.3941 9.86552 58.7215V9.82367H41.8096C41.8253 9.82367 41.8409 9.8222 41.8563 9.81927L42.9458 9.61195C43.0194 9.59795 43.0828 9.55163 43.1185 9.48579C43.1542 9.41996 43.1585 9.34156 43.13 9.27226L42.8401 8.56479C42.7434 8.15757 42.6533 7.67179 42.6533 7.29369C42.6533 4.62103 44.7314 2.4626 47.2576 2.4626C49.7838 2.4626 51.8619 4.62103 51.8619 7.29369V58.8251C51.8619 60.7198 52.5818 62.4547 53.7492 63.6545L14.4705 63.5525ZM63.1546 58.7215C63.1546 61.3941 61.0765 63.5525 58.5503 63.5525C56.0241 63.5525 53.946 61.3941 53.946 58.7215V58.2451H63.1546V58.7215Z" fill="white" stroke="white" stroke-width="0.498938" stroke-linejoin="round"/>
<path d="M43.1983 33.3808H43.1974H37.4595L33.3428 29.0717V23.8221H41.4143C41.5521 23.8221 41.6638 23.7104 41.6638 23.5726V12.7896C41.6638 12.6518 41.5521 12.5401 41.4143 12.5401H23.287C23.1492 12.5401 23.0376 12.6518 23.0376 12.7896V17.206H12.8861C12.7483 17.206 12.6366 17.3177 12.6366 17.4555V48.8728C12.6366 49.0106 12.7483 49.1223 12.8861 49.1223H16.3015V52.6056C16.3015 52.7434 16.4132 52.8551 16.551 52.8551H28.0416C28.1793 52.8551 28.291 52.7434 28.291 52.6056V43.6884C28.291 43.5506 28.1793 43.4389 28.0416 43.4389H23.2392V35.5393H27.2413L32.2195 40.75C32.2666 40.7993 32.3317 40.8272 32.3999 40.8272C32.468 40.8272 32.5332 40.7993 32.5803 40.75L37.5584 35.5393H41.5606V43.4389H36.7582C36.6204 43.4389 36.5087 43.5506 36.5087 43.6884V52.6056C36.5087 52.7434 36.6204 52.8551 36.7582 52.8551H41.5606V56.8147H36.6611C36.1807 54.8423 34.546 53.2893 32.3995 53.2893C29.9689 53.2893 28.0886 55.3862 28.0886 57.79C28.0886 60.3058 30.0759 62.2907 32.3995 62.2907C34.4467 62.2907 36.1734 60.7411 36.6607 58.7653H43.2958C43.4336 58.7653 43.5453 58.6536 43.5453 58.5158V52.7516H48.3477C48.4854 52.7516 48.5971 52.6399 48.5971 52.5021V43.5849C48.5971 43.4471 48.4854 43.3354 48.3477 43.3354H43.5453L43.5462 33.6307C43.5462 33.4932 43.435 33.3817 43.2976 33.3812L43.1983 33.3808ZM21.7057 33.4835C21.6605 33.4206 21.5867 33.3797 21.5033 33.3796C21.3656 33.3795 21.2538 33.4911 21.2537 33.6288V33.6291L21.2536 33.7327C21.2536 33.7353 21.2536 33.7379 21.2537 33.7405V43.3334H16.4513C16.3135 43.3334 16.2018 43.4451 16.2018 43.5828V47.0661H14.6208V19.2588H23.0371V23.6753C23.0371 23.8131 23.1488 23.9248 23.2866 23.9248H31.3581V29.1743L27.2413 33.4835H21.7057ZM34.7253 57.7883V57.7884C34.7257 59.1127 33.638 60.2344 32.3995 60.2344C31.0683 60.2344 30.0737 59.1191 30.0737 57.7883C30.0737 56.3665 31.1553 55.3422 32.3995 55.3422C33.7308 55.3422 34.7253 56.4576 34.7253 57.7883ZM25.0218 14.5937H39.778V21.7675H25.0218V14.5937ZM26.3059 50.6955H18.2857V45.3881H26.3059V50.6955ZM32.3995 37.9339L29.0797 34.4589L32.3995 30.9839L35.7194 34.4589L32.3995 37.9339ZM46.5141 50.6953H38.494V45.3878H46.5141V50.6953Z" fill="white" stroke="white" stroke-width="0.498938" stroke-linejoin="round"/>
</svg>
