<svg width="89" height="95" viewBox="0 0 89 95" fill="none" xmlns="http://www.w3.org/2000/svg">
<path d="M18.3834 23.0322C24.0447 17.3062 31.4937 13.6002 39.4629 12.5406C40.189 14.5985 42.0541 16.2607 44.4517 16.2607C47.315 16.2607 49.775 13.9688 49.775 10.994C49.775 8.02362 47.4497 5.72725 44.4517 5.72725C41.7885 5.72725 39.6396 7.65632 39.2836 10.1395C30.6842 11.2126 22.6144 15.224 16.6158 21.285C16.5724 21.3289 16.5482 21.3882 16.5485 21.4499C16.5489 21.5117 16.5737 21.5708 16.6177 21.6142L18.0543 23.0341C18.1457 23.1244 18.293 23.1236 18.3834 23.0322ZM44.4525 8.12931C46.023 8.12931 47.3521 9.44728 47.3521 10.9941C47.3521 12.541 46.0231 13.8589 44.4525 13.8589C42.8819 13.8589 41.5529 12.541 41.5529 10.9941C41.5529 9.32476 42.8755 8.12931 44.4525 8.12931Z" fill="white" stroke="white" stroke-width="0.46543" stroke-linejoin="round"/>
<path d="M8.00886 48.2952C8.00886 43.6175 8.89109 38.9403 10.6544 34.6333C11.0415 34.7177 11.4839 34.7177 11.8046 34.7176L11.8228 34.7176C13.7258 34.7176 15.5022 33.7761 16.461 32.1506L16.4611 32.1506L16.4634 32.1463C17.1393 30.9436 17.4196 29.5868 17.0052 28.2218C16.597 26.8765 15.7792 25.8003 14.5612 24.9976C14.5532 24.9923 14.5449 24.9875 14.5363 24.9833C13.7276 24.5832 12.7788 24.3137 11.8228 24.3137C9.91992 24.3137 8.14368 25.2551 7.18483 26.8804C5.84541 29.1319 6.47537 31.8921 8.4088 33.5229C6.48265 38.153 5.45576 43.161 5.45576 48.2958H5.4556L5.45592 48.3044C5.58611 51.8046 6.11043 55.5676 7.16156 59.0748C7.19789 59.196 7.32443 59.266 7.44641 59.2323C7.44859 59.2317 7.45076 59.2311 7.45291 59.2304L9.27507 58.7157C9.33548 58.6987 9.38644 58.6579 9.41637 58.6027C9.44631 58.5476 9.45267 58.4826 9.43402 58.4227C8.39856 55.0943 8.00886 51.7621 8.00886 48.2952ZM14.7311 28.7411L14.7309 28.7411L14.7341 28.7508C14.9717 29.4557 14.8531 30.2866 14.4963 30.8765C13.6453 32.1957 11.8288 32.6654 10.51 31.8357C10.5033 31.8315 10.4963 31.8276 10.4892 31.8241C9.04663 31.1103 8.56981 29.33 9.40708 28.0282C9.40973 28.0241 9.41225 28.0199 9.41463 28.0156C9.89594 27.1851 10.863 26.5859 11.9525 26.5859C12.432 26.5859 12.9162 26.7038 13.4079 26.9453C14.0036 27.3015 14.4867 27.895 14.7311 28.7411Z" fill="white" stroke="white" stroke-width="0.46543" stroke-linejoin="round"/>
<path d="M15.5259 70.124C17.0453 68.4958 17.3924 66.0181 16.2026 63.9264L16.2026 63.9264L16.2007 63.9232C15.2476 62.3074 13.4771 61.2275 11.5625 61.2275C10.6012 61.2275 9.78223 61.5 8.97921 61.8971L8.97911 61.8969L8.97028 61.9017C7.75467 62.5697 6.78778 63.6486 6.50706 65.0174C6.09688 66.3808 6.37956 67.7311 7.04722 69.0517C7.04948 69.0562 7.0519 69.0606 7.05445 69.065C8.00754 70.6808 9.77808 71.7607 11.6927 71.7607C12.3218 71.7607 12.9487 71.646 13.5721 71.4192C18.6834 77.9708 25.7322 82.8534 33.8202 85.0468C33.9428 85.08 34.0694 85.0088 34.1047 84.8867L34.6266 83.0797C34.6439 83.0198 34.6365 82.9555 34.606 82.9012C34.5755 82.8468 34.5244 82.807 34.4643 82.7906C27.0104 80.7569 20.317 76.202 15.5259 70.124ZM13.1425 69.1319C11.835 69.8321 10.0152 69.2523 9.15468 67.9272C8.78652 67.1951 8.67723 66.4894 8.91176 65.7936C9.15461 65.0731 9.63856 64.4752 10.2381 64.1168C10.729 63.8754 11.2132 63.7575 11.6934 63.7575C12.7833 63.7575 13.7502 64.357 14.2319 65.1883C14.9494 66.4922 14.4735 68.2892 13.1425 69.1319Z" fill="white" stroke="white" stroke-width="0.46543" stroke-linejoin="round"/>
<path d="M70.5899 73.5571C70.4992 73.4674 70.3532 73.4674 70.2625 73.5571C64.6045 79.1523 57.2881 82.7305 49.4522 83.7906C48.8331 81.7199 46.8367 80.0723 44.4529 80.0723C41.5936 80.0723 39.1296 82.3603 39.1296 85.2096C39.1296 86.5631 39.6763 87.907 40.6237 88.978C40.6271 88.9819 40.6307 88.9857 40.6343 88.9893C41.5825 89.9269 42.9436 90.6056 44.3221 90.6056C46.9855 90.6056 49.1344 88.6764 49.4902 86.193C57.9575 85.1217 65.7681 81.2374 71.8941 75.1791C71.9383 75.1354 71.9632 75.0758 71.9632 75.0137C71.9632 74.9515 71.9384 74.892 71.8942 74.8482L70.5899 73.5571ZM44.4521 88.3324C44.4509 88.3324 44.4498 88.3324 44.4486 88.3324C43.6084 88.3314 42.888 87.9769 42.4062 87.505C41.9051 86.8823 41.5525 86.1629 41.5525 85.4675C41.5525 83.9207 42.8815 82.6027 44.4521 82.6027C46.0227 82.6027 47.3517 83.9207 47.3517 85.4675C47.3517 87.0144 46.0227 88.3324 44.4521 88.3324Z" fill="white" stroke="white" stroke-width="0.46543" stroke-linejoin="round"/>
<path d="M73.5142 26.4617C72.9181 27.0881 72.545 27.7364 72.2917 28.6099C71.8818 29.9621 72.0216 31.3136 72.6989 32.6534C72.7012 32.6579 72.7036 32.6623 72.7062 32.6666C73.6593 34.2825 75.4298 35.3624 77.3444 35.3624C78.3057 35.3624 79.1247 35.0898 79.9277 34.6928L79.9278 34.693L79.9366 34.6881C81.1522 34.0202 82.1191 32.9413 82.3998 31.5725C82.8064 30.2233 82.6657 28.8749 81.9899 27.5381C81.9876 27.5337 81.9852 27.5292 81.9826 27.5249C81.0295 25.9091 79.259 24.8291 77.3444 24.8291C76.7336 24.8291 76.1155 24.9374 75.5899 25.16C70.212 18.0967 62.5135 12.9596 53.9043 10.8965C53.7818 10.8671 53.6582 10.9406 53.6254 11.0622L53.1034 12.9981C53.087 13.0589 53.096 13.1238 53.1283 13.1779C53.1606 13.2321 53.2134 13.2708 53.2748 13.2852C61.3799 15.194 68.5901 19.8786 73.5142 26.4617ZM77.4747 27.2309C78.4279 27.2309 79.3959 27.824 79.8804 28.6583C80.2503 29.3919 80.3604 30.099 80.1255 30.7962C79.8821 31.5181 79.3968 32.1169 78.7956 32.475C77.4666 33.1886 75.6578 32.7038 74.9393 31.407C74.5685 30.6726 74.4579 29.9648 74.6931 29.2669C74.936 28.5464 75.4199 27.9485 76.0194 27.5902C76.5104 27.3488 76.9946 27.2309 77.4747 27.2309Z" fill="white" stroke="white" stroke-width="0.46543" stroke-linejoin="round"/>
<path d="M72.0501 64.5724C71.3742 65.7752 71.0939 67.1319 71.5083 68.4969C71.9119 69.827 72.7237 71.0441 73.9602 71.7263C74.7971 72.2749 75.7617 72.4051 76.6907 72.4051C78.6005 72.4051 80.2425 71.4579 81.1982 69.838L81.1982 69.838L81.2006 69.8338C81.871 68.6406 82.1523 67.2959 81.7522 65.942C81.7384 64.8759 81.093 63.9627 80.2353 63.2032C82.2912 58.4448 83.3188 53.4314 83.3188 48.1659C83.3188 44.9214 82.9251 41.543 82.0039 38.4196C81.9682 38.2989 81.8431 38.2284 81.7213 38.2604L79.7637 38.7766C79.704 38.7923 79.653 38.8311 79.6219 38.8845C79.5909 38.9378 79.5823 39.0013 79.598 39.061C80.3757 42.0097 80.765 45.0873 80.765 48.1654C80.765 52.9697 79.7565 57.651 77.8615 62.0862C77.4709 62.001 77.0105 62.0011 76.5863 62.0011H76.56C74.6502 62.0011 73.0081 62.9483 72.0525 64.5682L72.0525 64.5681L72.0501 64.5724ZM74.2807 65.7086L74.2818 65.7067C74.7625 64.8746 75.7306 64.274 76.8215 64.274C77.301 64.274 77.7852 64.3918 78.2768 64.6333C78.8725 64.9895 79.3557 65.583 79.6 66.4291C79.8409 67.265 79.7231 67.9681 79.2383 68.687C79.234 68.6934 79.2301 68.6999 79.2264 68.7067C78.5105 70.0019 76.5758 70.4881 75.2482 69.6525C73.9137 68.8127 73.4342 67.1432 74.2807 65.7086Z" fill="white" stroke="white" stroke-width="0.46543" stroke-linejoin="round"/>
<mask id="path-7-outside-1_23_2984" maskUnits="userSpaceOnUse" x="27.1377" y="29.0966" width="35" height="19" fill="black">
<rect fill="white" x="27.1377" y="29.0966" width="35" height="19"/>
<path d="M44.4531 30.2259C42.8866 30.2259 41.3207 30.6133 40.0153 31.3875C38.7098 30.6133 37.2741 30.0966 35.8386 30.0966C31.6618 30.0966 28.1377 33.4521 28.1377 37.7118C28.1377 41.971 31.5309 45.3271 35.8386 45.3271C36.7523 45.3271 37.5352 45.1978 38.3187 44.9397C39.8852 46.4888 42.1037 47.3923 44.4531 47.3923C46.8025 47.3923 49.021 46.4888 50.5875 44.9397C51.3704 45.1978 52.2841 45.3271 53.0676 45.3271C57.2444 45.3271 60.7685 41.9716 60.7685 37.7118C60.7685 33.4527 57.3753 30.0966 53.0676 30.0966C51.5011 30.0966 50.0656 30.6127 48.8909 31.3875C47.5854 30.6133 46.0196 30.2259 44.4531 30.2259V30.2259ZM30.0958 37.7119C30.0958 34.6144 32.7061 32.0331 35.8384 32.0331C36.7521 32.0331 37.6657 32.2912 38.4487 32.6786C36.8822 34.2276 35.8384 36.4215 35.8384 38.7448C35.8384 40.4225 36.3604 41.8423 37.1439 43.1333C36.7521 43.2626 36.3609 43.2626 35.8384 43.2626C32.5759 43.3913 30.0958 40.8094 30.0958 37.7119V37.7119ZM44.4531 45.4559C40.7982 45.4559 37.6659 42.4872 37.6659 38.7441C37.6659 35.1299 40.6679 32.0323 44.4531 32.0323C48.1079 32.0323 51.2403 35.001 51.2403 38.7441C51.2403 42.4876 48.1079 45.4559 44.4531 45.4559ZM53.0676 32.0329C56.1999 32.0329 58.8102 34.6142 58.8102 37.7117C58.8102 40.8093 56.1999 43.3906 53.0676 43.3906C52.6759 43.3906 52.2847 43.3906 51.7621 43.2612C52.5451 41.9703 53.0676 40.4218 53.0676 38.8728C53.0676 36.4202 52.0237 34.3556 50.4573 32.8065C51.3704 32.291 52.1539 32.0329 53.0676 32.0329V32.0329Z"/>
</mask>
<path d="M44.4531 30.2259C42.8866 30.2259 41.3207 30.6133 40.0153 31.3875C38.7098 30.6133 37.2741 30.0966 35.8386 30.0966C31.6618 30.0966 28.1377 33.4521 28.1377 37.7118C28.1377 41.971 31.5309 45.3271 35.8386 45.3271C36.7523 45.3271 37.5352 45.1978 38.3187 44.9397C39.8852 46.4888 42.1037 47.3923 44.4531 47.3923C46.8025 47.3923 49.021 46.4888 50.5875 44.9397C51.3704 45.1978 52.2841 45.3271 53.0676 45.3271C57.2444 45.3271 60.7685 41.9716 60.7685 37.7118C60.7685 33.4527 57.3753 30.0966 53.0676 30.0966C51.5011 30.0966 50.0656 30.6127 48.8909 31.3875C47.5854 30.6133 46.0196 30.2259 44.4531 30.2259V30.2259ZM30.0958 37.7119C30.0958 34.6144 32.7061 32.0331 35.8384 32.0331C36.7521 32.0331 37.6657 32.2912 38.4487 32.6786C36.8822 34.2276 35.8384 36.4215 35.8384 38.7448C35.8384 40.4225 36.3604 41.8423 37.1439 43.1333C36.7521 43.2626 36.3609 43.2626 35.8384 43.2626C32.5759 43.3913 30.0958 40.8094 30.0958 37.7119V37.7119ZM44.4531 45.4559C40.7982 45.4559 37.6659 42.4872 37.6659 38.7441C37.6659 35.1299 40.6679 32.0323 44.4531 32.0323C48.1079 32.0323 51.2403 35.001 51.2403 38.7441C51.2403 42.4876 48.1079 45.4559 44.4531 45.4559ZM53.0676 32.0329C56.1999 32.0329 58.8102 34.6142 58.8102 37.7117C58.8102 40.8093 56.1999 43.3906 53.0676 43.3906C52.6759 43.3906 52.2847 43.3906 51.7621 43.2612C52.5451 41.9703 53.0676 40.4218 53.0676 38.8728C53.0676 36.4202 52.0237 34.3556 50.4573 32.8065C51.3704 32.291 52.1539 32.0329 53.0676 32.0329V32.0329Z" fill="white"/>
<path d="M40.0153 31.3875L39.7779 31.7878C39.9243 31.8747 40.1063 31.8747 40.2527 31.7878L40.0153 31.3875ZM38.3187 44.9397L38.646 44.6088C38.5217 44.4859 38.3391 44.443 38.1731 44.4977L38.3187 44.9397ZM50.5875 44.9397L50.7332 44.4977C50.5672 44.443 50.3845 44.4859 50.2602 44.6088L50.5875 44.9397ZM48.8909 31.3875L48.6534 31.7878C48.8067 31.8787 48.9984 31.8742 49.1471 31.7761L48.8909 31.3875ZM44.4531 29.7605C44.196 29.7605 43.9877 29.9688 43.9877 30.2259C43.9877 30.4829 44.196 30.6913 44.4531 30.6913V29.7605ZM29.6304 37.7119C29.6304 37.9689 29.8387 38.1773 30.0958 38.1773C30.3528 38.1773 30.5612 37.9689 30.5612 37.7119H29.6304ZM38.4487 32.6786L38.7759 33.0095C38.8829 32.9038 38.9321 32.7528 38.9082 32.6043C38.8842 32.4559 38.7899 32.3281 38.6551 32.2614L38.4487 32.6786ZM37.1439 43.1333L37.2898 43.5752C37.4245 43.5308 37.5315 43.4273 37.5806 43.2943C37.6296 43.1612 37.6153 43.013 37.5418 42.8918L37.1439 43.1333ZM35.8384 43.2626V42.7972C35.8323 42.7972 35.8262 42.7973 35.82 42.7975L35.8384 43.2626ZM30.5612 37.7119C30.5612 37.4548 30.3528 37.2464 30.0958 37.2464C29.8387 37.2464 29.6304 37.4548 29.6304 37.7119H30.5612ZM53.0676 32.0329H52.6022C52.6022 32.29 52.8106 32.4984 53.0676 32.4984V32.0329ZM51.7621 43.2612L51.3642 43.0199C51.2874 43.1464 51.2754 43.302 51.3319 43.4388C51.3884 43.5757 51.5066 43.6775 51.6503 43.713L51.7621 43.2612ZM50.4573 32.8065L50.2285 32.4012C50.1014 32.473 50.0153 32.6002 49.996 32.7448C49.9767 32.8895 50.0263 33.0348 50.1301 33.1375L50.4573 32.8065ZM53.0676 32.0329H53.533C53.533 31.7758 53.3247 31.5674 53.0676 31.5674V32.0329ZM44.4531 29.7605C42.8131 29.7605 41.1633 30.1655 39.7779 30.9872L40.2527 31.7878C41.4782 31.0611 42.9601 30.6913 44.4531 30.6913V29.7605ZM40.2527 30.9872C38.9016 30.1859 37.3837 29.6311 35.8386 29.6311V30.562C37.1646 30.562 38.518 31.0407 39.7779 31.7878L40.2527 30.9872ZM35.8386 29.6311C31.4149 29.6311 27.6723 33.185 27.6723 37.7118H28.6031C28.6031 33.7191 31.9087 30.562 35.8386 30.562V29.6311ZM27.6723 37.7118C27.6723 42.2329 31.2788 45.7926 35.8386 45.7926V44.8617C31.7831 44.8617 28.6031 41.7091 28.6031 37.7118H27.6723ZM35.8386 45.7926C36.8004 45.7926 37.6326 45.6558 38.4643 45.3818L38.1731 44.4977C37.4377 44.7399 36.7041 44.8617 35.8386 44.8617V45.7926ZM37.9914 45.2707C39.6487 46.9096 41.9865 47.8578 44.4531 47.8578V46.9269C42.2209 46.9269 40.1216 46.068 38.646 44.6088L37.9914 45.2707ZM44.4531 47.8578C46.9197 47.8578 49.2574 46.9096 50.9147 45.2707L50.2602 44.6088C48.7846 46.068 46.6853 46.9269 44.4531 46.9269V47.8578ZM50.4418 45.3818C51.2764 45.6569 52.2398 45.7926 53.0676 45.7926V44.8617C52.3283 44.8617 51.4644 44.7387 50.7332 44.4977L50.4418 45.3818ZM53.0676 45.7926C57.4913 45.7926 61.2339 42.2387 61.2339 37.7118H60.303C60.303 41.7046 56.9974 44.8617 53.0676 44.8617V45.7926ZM61.2339 37.7118C61.2339 33.1908 57.6274 29.6311 53.0676 29.6311V30.562C57.1231 30.562 60.303 33.7146 60.303 37.7118H61.2339ZM53.0676 29.6311C51.3975 29.6311 49.8742 30.1814 48.6346 30.999L49.1471 31.7761C50.2569 31.044 51.6048 30.562 53.0676 30.562V29.6311ZM49.1283 30.9872C47.7428 30.1655 46.0931 29.7605 44.4531 29.7605V30.6913C45.946 30.6913 47.428 31.0611 48.6534 31.7878L49.1283 30.9872ZM30.5612 37.7119C30.5612 34.8763 32.9582 32.4985 35.8384 32.4985V31.5677C32.4539 31.5677 29.6304 34.3524 29.6304 37.7119H30.5612ZM35.8384 32.4985C36.6676 32.4985 37.5108 32.7338 38.2423 33.0957L38.6551 32.2614C37.8207 31.8485 36.8366 31.5677 35.8384 31.5677V32.4985ZM38.1214 32.3476C36.4768 33.9739 35.373 36.2834 35.373 38.7448H36.3038C36.3038 36.5596 37.2876 34.4813 38.7759 33.0095L38.1214 32.3476ZM35.373 38.7448C35.373 40.5272 35.9296 42.0297 36.746 43.3748L37.5418 42.8918C36.7911 41.655 36.3038 40.3179 36.3038 38.7448H35.373ZM36.998 42.6913C36.6901 42.7929 36.3773 42.7972 35.8384 42.7972V43.728C36.3446 43.728 36.8141 43.7323 37.2898 43.5752L36.998 42.6913ZM35.82 42.7975C32.8342 42.9154 30.5612 40.558 30.5612 37.7119H29.6304C29.6304 41.0608 32.3176 43.8673 35.8568 43.7277L35.82 42.7975ZM29.6304 37.7119V37.7119H30.5612V37.7119H29.6304ZM44.4531 44.9904C41.0445 44.9904 38.1313 42.2195 38.1313 38.7441H37.2005C37.2005 42.7549 40.552 45.9213 44.4531 45.9213V44.9904ZM38.1313 38.7441C38.1313 35.386 40.9259 32.4978 44.4531 32.4978V31.5669C40.41 31.5669 37.2005 34.8737 37.2005 38.7441H38.1313ZM44.4531 32.4978C47.8616 32.4978 50.7748 35.2687 50.7748 38.7441H51.7057C51.7057 34.7333 48.3542 31.5669 44.4531 31.5669V32.4978ZM50.7748 38.7441C50.7748 42.2199 47.8617 44.9904 44.4531 44.9904V45.9213C48.3542 45.9213 51.7057 42.7553 51.7057 38.7441H50.7748ZM53.0676 32.4984C55.9478 32.4984 58.3448 34.8762 58.3448 37.7117H59.2757C59.2757 34.3523 56.4521 31.5675 53.0676 31.5675V32.4984ZM58.3448 37.7117C58.3448 40.5473 55.9478 42.9251 53.0676 42.9251V43.856C56.4521 43.856 59.2757 41.0712 59.2757 37.7117H58.3448ZM53.0676 42.9251C52.68 42.9251 52.3376 42.9242 51.874 42.8094L51.6503 43.713C52.2318 43.8569 52.6717 43.856 53.0676 43.856V42.9251ZM52.1601 43.5026C52.978 42.1539 53.533 40.523 53.533 38.8728H52.6022C52.6022 40.3207 52.1121 41.7866 51.3642 43.0199L52.1601 43.5026ZM53.533 38.8728C53.533 36.2783 52.4261 34.099 50.7846 32.4756L50.1301 33.1375C51.6213 34.6122 52.6022 36.562 52.6022 38.8728H53.533ZM50.6862 33.2118C51.5523 32.7228 52.2568 32.4983 53.0676 32.4983V31.5674C52.0511 31.5674 51.1886 31.8591 50.2285 32.4012L50.6862 33.2118ZM52.6022 32.0329V32.0329H53.533V32.0329H52.6022Z" fill="white" mask="url(#path-7-outside-1_23_2984)"/>
<path d="M19.5234 62.0795H25.9187C25.8716 62.5268 25.844 62.9949 25.8168 63.4793C25.815 63.5125 25.8131 63.5457 25.8112 63.5791C25.7803 64.1308 25.7482 64.7056 25.6874 65.3084C25.6866 65.3162 25.6862 65.324 25.6862 65.3318V66.3641C25.6862 66.4926 25.7904 66.5968 25.9189 66.5968H63.2476C63.3761 66.5968 63.4803 66.4926 63.4803 66.3641V65.3318C63.4803 65.324 63.4799 65.3161 63.4791 65.3083C63.4177 64.7026 63.3854 64.1253 63.3543 63.5712L63.3492 63.4793C63.322 62.9949 63.2945 62.5269 63.2476 62.0795H69.643C69.7137 62.0795 69.7806 62.0474 69.8247 61.9922C69.8689 61.937 69.8856 61.8648 69.8701 61.7958L69.6135 60.6547C69.4826 57.8266 69.2225 55.249 68.8318 53.178V53.0705C68.8318 53.0607 68.8312 53.0509 68.8299 53.0412C68.6964 51.9869 68.3017 50.9415 67.7879 49.7938V49.7143C67.7879 49.6734 67.7771 49.6333 67.7567 49.5979C67.2138 48.6581 66.2699 47.725 65.3202 47.1884L65.3204 47.1881L65.3091 47.1825C65.2343 47.1454 65.1535 47.1002 65.0604 47.0479C64.9948 47.0112 64.9231 46.971 64.8431 46.9279C64.6605 46.8294 64.451 46.7252 64.2362 46.6543C64.2357 46.6541 64.2351 46.654 64.2346 46.6538L58.6247 44.719C58.5157 44.6814 58.3956 44.7292 58.3424 44.8315L56.2171 48.9114L50.9259 47.0428C50.8181 47.0048 50.6987 47.0506 50.644 47.151L45.2284 57.0968H43.6776L38.2619 47.151C38.2073 47.0506 38.0878 47.0048 37.9801 47.0428L32.6888 48.9114L30.5625 44.8314C30.5089 44.7286 30.3879 44.6809 30.2786 44.7195L24.7991 46.6546C24.7903 46.6575 24.7815 46.6604 24.7727 46.6633C24.413 46.7819 23.9932 46.9204 23.6949 47.1986C22.6136 47.7438 21.811 48.678 21.2796 49.5979L21.2792 49.5977L21.2735 49.6091L21.1476 49.8574C20.4728 50.9293 20.2071 52.1262 20.0755 53.1701C20.0743 53.1797 20.0737 53.1895 20.0737 53.1992V53.3139C19.8128 55.3806 19.5521 57.9598 19.2917 60.7932C19.291 60.8003 19.2907 60.8074 19.2907 60.8145V61.8468C19.2907 61.9754 19.3949 62.0795 19.5234 62.0795ZM22.3674 53.4579V53.2195C22.4941 52.482 22.7448 51.7358 23.2519 50.7316C23.6196 50.1285 24.1102 49.6397 24.8612 49.1429C24.9912 49.0785 25.1173 49.0161 25.2435 48.9537C25.3675 48.8924 25.4915 48.8311 25.6195 48.7677L29.3328 47.4214L30.5678 49.7532C29.4461 50.4055 28.4466 51.2995 27.8053 52.4411L27.8044 52.4427C27.0127 53.8782 26.47 55.3383 26.47 56.8143C26.47 56.8552 26.4579 56.9469 26.4304 57.1104C26.4186 57.1799 26.4049 57.2584 26.3895 57.3463L26.384 57.3776C26.3664 57.478 26.3469 57.5896 26.3264 57.7114C26.2517 58.1541 26.1633 58.7324 26.0981 59.4209L21.7354 59.4204C21.8713 57.1407 22.1179 55.202 22.365 53.4911C22.3666 53.4801 22.3674 53.469 22.3674 53.4579ZM28.1239 64.0667C28.2537 61.8725 28.4407 60.2184 28.5971 59.1044C28.6782 58.5268 28.7511 58.0943 28.8036 57.807C28.8298 57.6634 28.8509 57.556 28.8654 57.485C28.8726 57.4494 28.8782 57.423 28.8819 57.4056L28.8861 57.3863L28.8871 57.3818L28.8873 57.3808L28.8873 57.3807L28.8873 57.3806L28.8873 57.3806C28.8911 57.3639 28.893 57.3468 28.893 57.3296V57.0716C28.893 56.0957 29.2644 54.9761 29.9041 53.8353C30.5331 52.8431 31.5348 51.981 32.6484 51.6138L32.6484 51.6139L32.6557 51.6112L37.0343 50.003L42.1593 59.5059C42.1999 59.5812 42.2785 59.6282 42.3641 59.6282H46.4101C46.4957 59.6282 46.5743 59.5812 46.6149 59.5059L51.7423 49.9985L56.124 51.4845L56.1258 51.485C56.4949 51.6069 56.7417 51.7275 56.9963 51.8536C57.7456 52.3485 58.3498 52.8299 58.8374 53.6505V53.7167C58.8374 53.7532 58.8459 53.7891 58.8624 53.8217C59.3798 54.8451 59.7545 55.7151 59.8813 56.573V56.8142C59.8813 56.8239 59.8819 56.8337 59.8831 56.8433C60.1358 58.8428 60.3887 61.329 60.6418 64.0674L28.1239 64.0667ZM67.178 59.6783H62.8182C62.6908 58.552 62.5639 57.5456 62.4367 56.5407V56.4261C62.4367 56.4174 62.4362 56.4087 62.4352 56.4C62.3032 55.2274 61.9125 53.9234 61.1312 52.7413V52.6825C61.1312 52.6385 61.1187 52.5954 61.0952 52.5581C60.46 51.5536 59.5843 50.6666 58.4687 50.0106L59.7029 47.6803L63.2852 49.024C63.4112 49.0864 63.5411 49.1506 63.6709 49.2148C63.7985 49.2779 63.926 49.341 64.0496 49.4022C64.6454 49.7573 65.1322 50.2286 65.6248 50.8295V50.876C65.6248 50.9169 65.6356 50.9571 65.656 50.9924C66.1603 51.8655 66.4115 52.6082 66.5385 53.3483V53.5867C66.5385 53.5978 66.5393 53.609 66.5409 53.62C66.7926 55.3629 67.0438 57.3431 67.178 59.6783Z" fill="white" stroke="white" stroke-width="0.46543" stroke-linejoin="round"/>
</svg>
