<svg width="144" height="77" viewBox="0 0 144 77" fill="none" xmlns="http://www.w3.org/2000/svg">
<g clip-path="url(#clip0_58_3567)">
<path d="M129.009 37.7509C129.436 37.9123 129.833 38.142 130.185 38.4309V38.3809C130.33 38.2141 130.458 38.0332 130.566 37.8409C130.707 37.5966 130.821 37.3386 130.908 37.0709C130.936 36.9822 130.96 36.892 130.978 36.8009V36.6409C130.978 36.5409 130.978 36.4709 130.978 36.4009C131.024 36.0256 131.024 35.6462 130.978 35.2709C130.932 34.837 130.844 34.4084 130.717 33.9909C130.693 33.9247 130.663 33.8611 130.627 33.8009C130.513 33.6075 130.33 33.4645 130.114 33.4009C129.951 33.3507 129.776 33.3507 129.612 33.4009C129.499 33.4298 129.393 33.4821 129.301 33.5545C129.209 33.6268 129.134 33.7176 129.079 33.8209C129.023 33.924 128.988 34.0372 128.976 34.1539C128.964 34.2706 128.975 34.3885 129.009 34.5009C129.009 34.5809 129.009 34.6609 129.079 34.7309L129.14 34.9909V35.1809V35.3509C129.196 35.6819 129.196 36.0199 129.14 36.3509C129.122 36.4703 129.091 36.5875 129.049 36.7009C129.049 36.8009 128.959 36.9009 128.909 37.0009C128.841 37.1162 128.76 37.2236 128.668 37.3209C128.594 37.4108 128.51 37.4914 128.416 37.5609L128.356 37.6109L128.587 37.7009L129.009 37.7509Z" fill="white"/>
<path d="M126.8 36.5999C127.016 36.5999 127.228 36.536 127.408 36.4162C127.588 36.2965 127.728 36.1262 127.811 35.927C127.894 35.7279 127.916 35.5087 127.874 35.2973C127.831 35.0858 127.727 34.8916 127.574 34.7392C127.421 34.5867 127.226 34.4829 127.013 34.4409C126.801 34.3988 126.581 34.4204 126.38 34.5029C126.18 34.5854 126.009 34.7251 125.889 34.9044C125.769 35.0836 125.704 35.2943 125.704 35.5099C125.704 35.799 125.82 36.0763 126.025 36.2807C126.231 36.4851 126.509 36.5999 126.8 36.5999Z" fill="white"/>
<path d="M129.14 41.1311C129.211 41.2476 129.268 41.3717 129.311 41.5011C129.343 41.613 129.37 41.7265 129.391 41.8411C129.387 41.8676 129.387 41.8946 129.391 41.9211L129.562 41.7711L129.793 41.5811C130.147 41.2922 130.548 41.0656 130.978 40.9111V40.8411C130.907 40.6364 130.816 40.4389 130.707 40.2511C130.566 40.0038 130.394 39.7753 130.195 39.5711L129.994 39.3711L129.873 39.2611L129.693 39.1111C129.381 38.8828 129.044 38.6915 128.688 38.5411C128.287 38.3623 127.87 38.2216 127.442 38.1211H127.251C127.022 38.128 126.802 38.2127 126.628 38.3611C126.504 38.4805 126.416 38.6333 126.377 38.8011C126.348 38.9138 126.342 39.0311 126.359 39.1462C126.376 39.2613 126.417 39.3718 126.478 39.4711C126.604 39.6691 126.802 39.812 127.03 39.8711L127.271 39.9311L127.532 40.0111L127.713 40.0711L127.874 40.1311C128.171 40.253 128.449 40.4181 128.698 40.6211L128.959 40.8811C129.027 40.9584 129.088 41.0421 129.14 41.1311V41.1311Z" fill="white"/>
<path d="M127.301 41.4304C127.139 41.3299 126.95 41.2779 126.759 41.2804C126.591 41.2809 126.426 41.3196 126.276 41.3937C126.126 41.4677 125.995 41.575 125.893 41.7073C125.791 41.8396 125.721 41.9934 125.688 42.1569C125.656 42.3204 125.661 42.4892 125.704 42.6504C125.78 42.9293 125.964 43.1667 126.216 43.3104C126.379 43.4108 126.567 43.4629 126.759 43.4604C126.951 43.4602 127.14 43.4092 127.306 43.3125C127.472 43.2159 127.609 43.0771 127.703 42.9104C127.775 42.7871 127.822 42.6508 127.84 42.5095C127.859 42.3682 127.849 42.2247 127.812 42.0871C127.775 41.9495 127.71 41.8206 127.623 41.7079C127.535 41.5952 127.426 41.5009 127.301 41.4304Z" fill="white"/>
<path d="M130.024 44.6104C130.141 44.6102 130.257 44.5862 130.364 44.5397C130.471 44.4933 130.567 44.4255 130.647 44.3404L130.818 44.1604L131.019 43.9804L131.159 43.8504L131.29 43.7504C131.546 43.5531 131.831 43.3947 132.134 43.2804C132.252 43.2422 132.373 43.2121 132.496 43.1904C132.735 43.1455 132.98 43.1455 133.219 43.1904L133.55 43.2904H133.631C133.631 43.2104 133.631 43.1304 133.631 43.0604L133.581 42.7704C133.505 42.3235 133.505 41.8673 133.581 41.4204H133.51C133.292 41.3806 133.07 41.3605 132.847 41.3604C132.566 41.3585 132.286 41.3921 132.013 41.4604L131.732 41.5304L131.581 41.5804L131.36 41.6704C131.003 41.8098 130.665 41.9946 130.356 42.2204C129.994 42.4781 129.657 42.7694 129.351 43.0904C129.304 43.1418 129.263 43.1989 129.23 43.2604C129.122 43.4553 129.089 43.6833 129.14 43.9004C129.174 44.07 129.262 44.2242 129.391 44.3404C129.552 44.4963 129.769 44.5825 129.994 44.5804L130.024 44.6104Z" fill="white"/>
<path d="M132.707 44.7502C132.517 44.7502 132.33 44.7984 132.164 44.8902C131.971 45.0162 131.823 45.1996 131.741 45.4143C131.659 45.6291 131.647 45.8641 131.707 46.0859C131.767 46.3077 131.896 46.5049 132.076 46.6493C132.255 46.7937 132.476 46.8781 132.707 46.8902C132.897 46.8957 133.085 46.8472 133.249 46.7502C133.374 46.6797 133.483 46.5854 133.57 46.4727C133.658 46.3599 133.722 46.2311 133.76 46.0935C133.797 45.9559 133.807 45.8124 133.788 45.6711C133.769 45.5298 133.723 45.3935 133.651 45.2702C133.554 45.1084 133.415 44.975 133.249 44.8837C133.083 44.7924 132.896 44.7463 132.707 44.7502Z" fill="white"/>
<path d="M136.484 40.2103C136.057 40.0488 135.66 39.8191 135.308 39.5303L135.258 39.5803C135.12 39.7521 134.992 39.9324 134.876 40.1203C134.74 40.3649 134.628 40.6229 134.545 40.8903C134.517 40.979 134.493 41.0691 134.475 41.1603V41.3203C134.475 41.4203 134.475 41.4903 134.475 41.5603C134.429 41.9356 134.429 42.315 134.475 42.6903C134.521 43.1242 134.608 43.5527 134.736 43.9703C134.76 44.0364 134.79 44.1 134.826 44.1603C134.88 44.2581 134.953 44.344 135.041 44.4128C135.129 44.4816 135.23 44.5318 135.339 44.5603C135.501 44.6151 135.678 44.6151 135.841 44.5603C136.068 44.4911 136.259 44.3369 136.373 44.1303C136.481 43.9238 136.506 43.6844 136.444 43.4603C136.444 43.3703 136.444 43.2903 136.373 43.2203L136.313 42.9603V42.7703V42.6003C136.263 42.2688 136.263 41.9318 136.313 41.6003C136.339 41.4816 136.373 41.3647 136.414 41.2503C136.452 41.1466 136.499 41.0462 136.554 40.9503C136.619 40.8327 136.7 40.725 136.795 40.6303C136.872 40.5428 136.956 40.4625 137.047 40.3903L137.107 40.3403L136.876 40.2603L136.484 40.2103Z" fill="white"/>
<path d="M138.694 41.3506C138.478 41.3506 138.266 41.4145 138.086 41.5343C137.906 41.6541 137.765 41.8243 137.683 42.0235C137.6 42.2226 137.578 42.4418 137.62 42.6532C137.663 42.8647 137.767 43.0589 137.92 43.2113C138.073 43.3638 138.268 43.4676 138.481 43.5096C138.693 43.5517 138.913 43.5301 139.113 43.4476C139.314 43.3651 139.485 43.2254 139.605 43.0462C139.725 42.8669 139.789 42.6562 139.789 42.4406C139.789 42.1515 139.674 41.8743 139.469 41.6698C139.263 41.4654 138.985 41.3506 138.694 41.3506Z" fill="white"/>
<path d="M138.273 39.8503C138.495 39.8389 138.707 39.7545 138.876 39.6103C139.001 39.4909 139.088 39.338 139.127 39.1703C139.181 38.9435 139.143 38.7046 139.021 38.5058C138.898 38.3071 138.702 38.1648 138.474 38.1103L138.233 38.0403L137.972 37.9603L137.791 37.9003L137.63 37.8403C137.332 37.7207 137.054 37.5554 136.806 37.3503C136.714 37.2687 136.627 37.1819 136.545 37.0903C136.476 37.0066 136.415 36.9162 136.364 36.8203C136.293 36.7039 136.236 36.5798 136.193 36.4503C136.161 36.3418 136.134 36.2316 136.113 36.1203C136.113 36.1203 136.113 36.0603 136.113 36.0303L135.922 36.1903L135.701 36.3703C135.352 36.6605 134.954 36.8873 134.526 37.0403V37.1103C134.599 37.3173 134.69 37.518 134.797 37.7103C134.94 37.9505 135.109 38.175 135.299 38.3803L135.5 38.5803L135.631 38.6903C135.688 38.7437 135.748 38.7938 135.812 38.8403C136.123 39.0686 136.46 39.2599 136.816 39.4103C137.214 39.5876 137.628 39.7282 138.052 39.8303H138.253L138.273 39.8503Z" fill="white"/>
<path d="M138.182 36.5203C138.435 36.6573 138.732 36.6922 139.01 36.6178C139.289 36.5433 139.528 36.3653 139.679 36.1203C139.75 35.997 139.797 35.8608 139.816 35.7195C139.834 35.5782 139.825 35.4346 139.787 35.297C139.75 35.1595 139.686 35.0306 139.598 34.9179C139.51 34.8052 139.401 34.7108 139.277 34.6403C139.114 34.5399 138.926 34.4878 138.734 34.4903C138.542 34.4905 138.353 34.5415 138.187 34.6382C138.021 34.7348 137.884 34.8736 137.79 35.0403C137.714 35.1612 137.664 35.297 137.645 35.4384C137.626 35.5798 137.638 35.7237 137.679 35.8603C137.711 35.9997 137.772 36.1307 137.859 36.2445C137.945 36.3583 138.055 36.4524 138.182 36.5203V36.5203Z" fill="white"/>
<path d="M131.953 35.1405C132.028 35.5874 132.028 36.0436 131.953 36.4905H132.024C132.518 36.5905 133.027 36.5905 133.521 36.4905L133.792 36.4105L133.953 36.3605L134.174 36.2805C134.529 36.1336 134.867 35.9456 135.178 35.7205C135.542 35.4656 135.879 35.1741 136.183 34.8505C136.237 34.8023 136.281 34.7447 136.314 34.6805C136.423 34.486 136.456 34.2576 136.404 34.0405C136.37 33.8709 136.282 33.7167 136.153 33.6005C136.072 33.5222 135.976 33.4606 135.871 33.4194C135.765 33.3782 135.653 33.3582 135.54 33.3605C135.419 33.3605 135.3 33.3853 135.189 33.4335C135.078 33.4817 134.979 33.5522 134.897 33.6405L134.726 33.8105L134.525 33.9905L134.375 34.1205L134.244 34.2205C133.991 34.4177 133.71 34.5761 133.41 34.6905L133.048 34.7805C132.809 34.8255 132.564 34.8255 132.325 34.7805C132.208 34.7578 132.094 34.7243 131.983 34.6805H131.913C131.913 34.7705 131.913 34.8505 131.913 34.9305L131.953 35.1405Z" fill="white"/>
<path d="M133.329 33.0602C133.469 32.9983 133.595 32.9078 133.698 32.7945C133.801 32.6812 133.879 32.5477 133.926 32.4025C133.974 32.2574 133.991 32.1039 133.975 31.952C133.959 31.8 133.911 31.6531 133.835 31.5207C133.759 31.3883 133.655 31.2733 133.531 31.1832C133.407 31.0932 133.266 31.0301 133.116 30.998C132.966 30.9659 132.811 30.9655 132.66 30.9969C132.51 31.0283 132.368 31.0908 132.244 31.1802C132.118 31.2481 132.008 31.3422 131.921 31.456C131.834 31.5699 131.773 31.7009 131.742 31.8402C131.7 31.9768 131.689 32.1207 131.708 32.2621C131.727 32.4036 131.776 32.5393 131.852 32.6602C132.001 32.9018 132.236 33.0778 132.511 33.1522C132.785 33.2266 133.078 33.1937 133.329 33.0602V33.0602Z" fill="white"/>
<path d="M1.24523 25.63C1.18978 25.5163 1.16625 25.3899 1.17714 25.264C1.18803 25.1382 1.23293 25.0176 1.30709 24.9151C1.38124 24.8126 1.48189 24.7319 1.59835 24.6817C1.71481 24.6315 1.84274 24.6137 1.96859 24.63H4.65107C4.81442 24.6434 4.97043 24.7034 5.10048 24.8026C5.23053 24.9019 5.32912 25.0364 5.38448 25.19L10.3074 43.75H10.4681L17.0588 24.75C17.1053 24.6122 17.1925 24.4917 17.3091 24.4043C17.4256 24.3168 17.566 24.2665 17.7118 24.26H18.4452C18.5903 24.2566 18.733 24.2968 18.8549 24.3753C18.9767 24.4537 19.072 24.5669 19.1284 24.7L25.7994 43.7H25.9702L30.7726 25.22C30.8239 25.0658 30.92 24.9303 31.0488 24.8306C31.1776 24.7309 31.3332 24.6715 31.4959 24.66H34.2086C34.3344 24.6437 34.4623 24.6615 34.5788 24.7117C34.6953 24.7619 34.7959 24.8426 34.8701 24.9451C34.9442 25.0476 34.9891 25.1682 35 25.294C35.0109 25.4199 34.9874 25.5463 34.9319 25.66L27.3265 52.68C27.2816 52.8378 27.1873 52.9773 27.0571 53.078C26.927 53.1788 26.768 53.2355 26.6032 53.24H25.9602C25.8148 53.2389 25.6726 53.197 25.55 53.1192C25.4274 53.0414 25.3293 52.9307 25.267 52.8L18.1539 32.75H17.9429L10.9102 52.75C10.8496 52.8799 10.7533 52.9902 10.6324 53.0681C10.5115 53.1459 10.371 53.1882 10.227 53.19H9.61416C9.44937 53.1855 9.29032 53.1288 9.1602 53.028C9.03008 52.9273 8.93569 52.7878 8.89079 52.63L1.24523 25.63Z" fill="white"/>
<path d="M40.0355 25.4304C40.0342 25.3281 40.0536 25.2265 40.0926 25.1318C40.1316 25.0371 40.1894 24.9512 40.2626 24.8793C40.3358 24.8074 40.4228 24.7509 40.5185 24.7133C40.6141 24.6757 40.7164 24.6577 40.8192 24.6604H49.8612C54.754 24.6604 58.2704 27.8804 58.2704 32.1104C58.2704 35.2104 55.9697 37.4204 54.0608 38.5104C56.2108 39.3904 59.0841 41.3704 59.0841 45.0704C59.0841 49.5804 55.3568 52.8404 50.2631 52.8404H40.8192C40.7181 52.8404 40.618 52.8204 40.5247 52.7816C40.4314 52.7428 40.3467 52.6859 40.2757 52.6143C40.2047 52.5427 40.1486 52.4577 40.1109 52.3643C40.0731 52.271 40.0543 52.1711 40.0556 52.0704L40.0355 25.4304ZM50.2631 49.1404C50.8427 49.1486 51.4181 49.0404 51.9547 48.8222C52.4913 48.604 52.9782 48.2803 53.3862 47.8704C53.7942 47.4606 54.1149 46.973 54.3292 46.4369C54.5436 45.9008 54.647 45.3272 54.6334 44.7504C54.6334 42.2904 52.2825 40.5204 49.6101 40.5204H44.1145V49.1404H50.2631ZM49.6201 36.9004C50.1868 36.9219 50.7517 36.8238 51.2776 36.6124C51.8035 36.4011 52.2785 36.0814 52.6713 35.6743C53.0642 35.2672 53.366 34.7819 53.557 34.2504C53.748 33.7189 53.8238 33.1532 53.7795 32.5904C53.818 32.0364 53.7369 31.4806 53.5417 30.9604C53.3464 30.4402 53.0415 29.9676 52.6475 29.5744C52.2534 29.1813 51.7794 28.8767 51.2572 28.6811C50.735 28.4855 50.1768 28.4034 49.6201 28.4404H44.1547V36.9004H49.6201Z" fill="white"/>
<path d="M65.1025 25.4302C65.1025 25.2259 65.184 25.0301 65.3291 24.8857C65.4742 24.7413 65.6709 24.6602 65.8761 24.6602H82.0112C82.2163 24.6602 82.4131 24.7413 82.5582 24.8857C82.7033 25.0301 82.7848 25.2259 82.7848 25.4302V27.6802C82.7821 27.8826 82.6994 28.0759 82.5547 28.2182C82.4099 28.3604 82.2146 28.4402 82.0112 28.4402H69.2719V36.6602H80.0721C80.2723 36.6676 80.4622 36.75 80.6038 36.891C80.7454 37.0319 80.8282 37.221 80.8357 37.4202V39.6802C80.8357 39.8817 80.7552 40.075 80.612 40.2176C80.4689 40.3601 80.2746 40.4402 80.0721 40.4402H69.2719V49.1002H82.0112C82.2146 49.1001 82.4099 49.1799 82.5547 49.3221C82.6994 49.4644 82.7821 49.6577 82.7848 49.8602V52.0702C82.7848 52.2744 82.7033 52.4702 82.5582 52.6146C82.4131 52.759 82.2163 52.8402 82.0112 52.8402H65.8761C65.6709 52.8402 65.4742 52.759 65.3291 52.6146C65.184 52.4702 65.1025 52.2744 65.1025 52.0702V25.4302Z" fill="white"/>
<path d="M88.8423 24.9798C88.8527 24.7836 88.9391 24.5989 89.0833 24.4646C89.2275 24.3304 89.4184 24.257 89.6159 24.2598H90.6206L108.172 44.4698V25.4698C108.171 25.3692 108.19 25.2693 108.227 25.1759C108.265 25.0826 108.321 24.9976 108.392 24.926C108.463 24.8543 108.548 24.7975 108.641 24.7586C108.735 24.7198 108.835 24.6998 108.936 24.6998H111.528C111.73 24.7074 111.921 24.7913 112.063 24.9343C112.205 25.0774 112.286 25.2689 112.291 25.4698V52.5198C112.284 52.7153 112.199 52.8999 112.057 53.0344C111.914 53.1689 111.724 53.2426 111.528 53.2398H110.473L92.9715 32.4698V52.0698C92.9728 52.1705 92.9541 52.2704 92.9163 52.3638C92.8785 52.4571 92.8225 52.5421 92.7515 52.6137C92.6804 52.6854 92.5958 52.7422 92.5025 52.7811C92.4092 52.8199 92.3091 52.8399 92.208 52.8398H89.6159C89.4131 52.8324 89.2207 52.7489 89.0772 52.6061C88.9337 52.4633 88.8498 52.2717 88.8423 52.0698V24.9798Z" fill="white"/>
<path d="M132.647 24.2604C136.271 24.2055 139.777 25.5453 142.432 28.0004C142.515 28.0699 142.581 28.1564 142.627 28.254C142.672 28.3516 142.696 28.4578 142.696 28.5654C142.696 28.673 142.672 28.7793 142.627 28.8768C142.581 28.9744 142.515 29.0609 142.432 29.1304L140.654 30.9404C140.373 31.3004 140.011 31.3004 139.649 30.9404C137.698 29.2434 135.207 28.2872 132.617 28.2404C131.262 28.2716 129.926 28.5682 128.686 29.1133C127.446 29.6584 126.326 30.4413 125.391 31.4173C124.455 32.3933 123.721 33.5433 123.232 34.8016C122.743 36.0598 122.508 37.4016 122.54 38.7504C122.519 40.1016 122.765 41.4437 123.266 42.6998C123.767 43.9558 124.512 45.1012 125.459 46.0701C126.405 47.0391 127.534 47.8126 128.782 48.3463C130.029 48.88 131.37 49.1635 132.727 49.1804C135.291 49.1395 137.757 48.1973 139.69 46.5204C139.826 46.3931 140.005 46.3223 140.192 46.3223C140.379 46.3223 140.558 46.3931 140.694 46.5204L142.553 48.3304C142.626 48.4012 142.684 48.486 142.724 48.5796C142.764 48.6732 142.784 48.7738 142.784 48.8754C142.784 48.977 142.764 49.0776 142.724 49.1712C142.684 49.2649 142.626 49.3496 142.553 49.4204C139.922 51.959 136.391 53.3607 132.727 53.3204C128.864 53.3204 125.158 51.7927 122.426 49.0735C119.694 46.3542 118.16 42.666 118.16 38.8204C118.16 34.9748 119.694 31.2866 122.426 28.5674C125.158 25.8481 128.864 24.3204 132.727 24.3204L132.647 24.2604Z" fill="white"/>
<g style="mix-blend-mode:luminosity" opacity="0.3">
<path d="M129.009 37.7509C129.436 37.9123 129.833 38.142 130.185 38.4309V38.3809C130.33 38.2141 130.458 38.0332 130.566 37.8409C130.707 37.5966 130.821 37.3386 130.908 37.0709C130.936 36.9822 130.96 36.892 130.978 36.8009V36.6409C130.978 36.5409 130.978 36.4709 130.978 36.4009C131.024 36.0256 131.024 35.6462 130.978 35.2709C130.932 34.837 130.844 34.4084 130.717 33.9909C130.693 33.9247 130.663 33.8611 130.627 33.8009C130.513 33.6075 130.33 33.4645 130.114 33.4009C129.951 33.3507 129.776 33.3507 129.612 33.4009C129.499 33.4298 129.393 33.4821 129.301 33.5545C129.209 33.6268 129.134 33.7176 129.079 33.8209C129.023 33.924 128.988 34.0372 128.976 34.1539C128.964 34.2706 128.975 34.3885 129.009 34.5009C129.009 34.5809 129.009 34.6609 129.079 34.7309L129.14 34.9909V35.1809V35.3509C129.196 35.6819 129.196 36.0199 129.14 36.3509C129.122 36.4703 129.091 36.5875 129.049 36.7009C129.049 36.8009 128.959 36.9009 128.909 37.0009C128.841 37.1162 128.76 37.2236 128.668 37.3209C128.594 37.4108 128.51 37.4914 128.416 37.5609L128.356 37.6109L128.587 37.7009L129.009 37.7509Z" fill="#F79421"/>
</g>
<g style="mix-blend-mode:luminosity" opacity="0.3">
<path d="M126.8 36.5999C127.016 36.5999 127.228 36.536 127.408 36.4162C127.588 36.2965 127.728 36.1262 127.811 35.927C127.894 35.7279 127.916 35.5087 127.874 35.2973C127.831 35.0858 127.727 34.8916 127.574 34.7392C127.421 34.5867 127.226 34.4829 127.013 34.4409C126.801 34.3988 126.581 34.4204 126.38 34.5029C126.18 34.5854 126.009 34.7251 125.889 34.9044C125.769 35.0836 125.704 35.2943 125.704 35.5099C125.704 35.799 125.82 36.0763 126.025 36.2807C126.231 36.4851 126.509 36.5999 126.8 36.5999Z" fill="#F79421"/>
</g>
<g style="mix-blend-mode:luminosity" opacity="0.3">
<path d="M129.14 41.1311C129.211 41.2476 129.268 41.3717 129.311 41.5011C129.343 41.613 129.37 41.7265 129.391 41.8411C129.387 41.8676 129.387 41.8946 129.391 41.9211L129.562 41.7711L129.793 41.5811C130.147 41.2922 130.548 41.0656 130.978 40.9111V40.8411C130.907 40.6364 130.816 40.4389 130.707 40.2511C130.566 40.0038 130.394 39.7753 130.195 39.5711L129.994 39.3711L129.873 39.2611L129.693 39.1111C129.381 38.8828 129.044 38.6915 128.688 38.5411C128.287 38.3623 127.87 38.2216 127.442 38.1211H127.251C127.022 38.128 126.802 38.2127 126.628 38.3611C126.504 38.4805 126.416 38.6333 126.377 38.8011C126.348 38.9138 126.342 39.0311 126.359 39.1462C126.376 39.2613 126.417 39.3718 126.478 39.4711C126.604 39.6691 126.802 39.812 127.03 39.8711L127.271 39.9311L127.532 40.0111L127.713 40.0711L127.874 40.1311C128.171 40.253 128.449 40.4181 128.698 40.6211L128.959 40.8811C129.027 40.9584 129.088 41.0421 129.14 41.1311V41.1311Z" fill="#DA205E"/>
</g>
<g style="mix-blend-mode:luminosity" opacity="0.3">
<path d="M127.301 41.4304C127.139 41.3299 126.95 41.2779 126.759 41.2804C126.591 41.2809 126.426 41.3196 126.276 41.3937C126.126 41.4677 125.995 41.575 125.893 41.7073C125.791 41.8396 125.721 41.9934 125.688 42.1569C125.656 42.3204 125.661 42.4892 125.704 42.6504C125.78 42.9293 125.964 43.1667 126.216 43.3104C126.379 43.4108 126.567 43.4629 126.759 43.4604C126.951 43.4602 127.14 43.4092 127.306 43.3125C127.472 43.2159 127.609 43.0771 127.703 42.9104C127.775 42.7871 127.822 42.6508 127.84 42.5095C127.859 42.3682 127.849 42.2247 127.812 42.0871C127.775 41.9495 127.71 41.8206 127.623 41.7079C127.535 41.5952 127.426 41.5009 127.301 41.4304Z" fill="#DA205E"/>
</g>
<g style="mix-blend-mode:luminosity" opacity="0.3">
<path d="M130.024 44.6104C130.141 44.6102 130.256 44.5862 130.364 44.5397C130.471 44.4933 130.567 44.4255 130.647 44.3404L130.818 44.1604L131.019 43.9804L131.159 43.8504L131.29 43.7504C131.546 43.5531 131.831 43.3947 132.134 43.2804C132.252 43.2422 132.373 43.2121 132.496 43.1904C132.735 43.1455 132.98 43.1455 133.219 43.1904L133.55 43.2904H133.631C133.631 43.2104 133.631 43.1304 133.631 43.0604L133.581 42.7704C133.505 42.3235 133.505 41.8673 133.581 41.4204H133.51C133.291 41.3806 133.07 41.3605 132.847 41.3604C132.566 41.3585 132.286 41.3921 132.013 41.4604L131.732 41.5304L131.581 41.5804L131.36 41.6704C131.003 41.8098 130.665 41.9946 130.356 42.2204C129.994 42.4781 129.657 42.7694 129.351 43.0904C129.304 43.1418 129.263 43.1989 129.23 43.2604C129.122 43.4553 129.089 43.6833 129.14 43.9004C129.174 44.07 129.262 44.2242 129.391 44.3404C129.552 44.4963 129.769 44.5825 129.994 44.5804L130.024 44.6104Z" fill="#652F8F"/>
</g>
<g style="mix-blend-mode:luminosity" opacity="0.3">
<path d="M132.707 44.7502C132.517 44.7502 132.33 44.7984 132.164 44.8902C131.971 45.0162 131.823 45.1996 131.741 45.4143C131.659 45.6291 131.647 45.8641 131.707 46.0859C131.767 46.3077 131.896 46.5049 132.076 46.6493C132.255 46.7937 132.476 46.8781 132.707 46.8902C132.897 46.8957 133.085 46.8472 133.249 46.7502C133.374 46.6797 133.483 46.5854 133.57 46.4727C133.658 46.3599 133.722 46.2311 133.76 46.0935C133.797 45.9559 133.807 45.8124 133.788 45.6711C133.769 45.5298 133.723 45.3935 133.651 45.2702C133.554 45.1084 133.415 44.975 133.249 44.8837C133.083 44.7924 132.896 44.7463 132.707 44.7502Z" fill="#652F8F"/>
</g>
<g style="mix-blend-mode:luminosity" opacity="0.3">
<path d="M136.484 40.2103C136.057 40.0488 135.66 39.8191 135.308 39.5303L135.258 39.5803C135.12 39.7521 134.992 39.9324 134.876 40.1203C134.74 40.3649 134.628 40.6229 134.545 40.8903C134.517 40.979 134.493 41.0691 134.475 41.1603V41.3203C134.475 41.4203 134.475 41.4903 134.475 41.5603C134.429 41.9356 134.429 42.315 134.475 42.6903C134.521 43.1242 134.608 43.5527 134.736 43.9703C134.76 44.0364 134.79 44.1 134.826 44.1603C134.88 44.2581 134.953 44.344 135.041 44.4128C135.129 44.4816 135.23 44.5318 135.339 44.5603C135.501 44.6151 135.678 44.6151 135.841 44.5603C136.068 44.4911 136.259 44.3369 136.373 44.1303C136.481 43.9238 136.506 43.6844 136.444 43.4603C136.444 43.3703 136.444 43.2903 136.373 43.2203L136.313 42.9603V42.7703V42.6003C136.263 42.2688 136.263 41.9318 136.313 41.6003C136.339 41.4816 136.373 41.3647 136.414 41.2503C136.452 41.1466 136.499 41.0462 136.554 40.9503C136.619 40.8327 136.7 40.725 136.795 40.6303C136.872 40.5428 136.956 40.4625 137.047 40.3903L137.107 40.3403L136.876 40.2603L136.484 40.2103Z" fill="#E90C8B"/>
</g>
<g style="mix-blend-mode:luminosity" opacity="0.3">
<path d="M138.694 41.3506C138.478 41.3506 138.266 41.4145 138.086 41.5343C137.906 41.6541 137.765 41.8243 137.683 42.0235C137.6 42.2226 137.578 42.4418 137.62 42.6532C137.663 42.8647 137.767 43.0589 137.92 43.2113C138.073 43.3638 138.268 43.4676 138.481 43.5096C138.693 43.5517 138.913 43.5301 139.113 43.4476C139.314 43.3651 139.485 43.2254 139.605 43.0462C139.725 42.8669 139.789 42.6562 139.789 42.4406C139.789 42.1515 139.674 41.8743 139.469 41.6698C139.263 41.4654 138.985 41.3506 138.694 41.3506Z" fill="#E90C8B"/>
</g>
<g style="mix-blend-mode:luminosity" opacity="0.3">
<path d="M138.273 39.8503C138.495 39.8389 138.707 39.7545 138.876 39.6103C139.001 39.4909 139.088 39.338 139.127 39.1703C139.181 38.9435 139.143 38.7046 139.021 38.5058C138.898 38.3071 138.702 38.1648 138.474 38.1103L138.233 38.0403L137.972 37.9603L137.791 37.9003L137.63 37.8403C137.332 37.7207 137.054 37.5554 136.806 37.3503C136.714 37.2687 136.627 37.1819 136.545 37.0903C136.476 37.0066 136.415 36.9162 136.364 36.8203C136.293 36.7039 136.236 36.5798 136.193 36.4503C136.161 36.3418 136.134 36.2316 136.113 36.1203C136.113 36.1203 136.113 36.0603 136.113 36.0303L135.922 36.1903L135.701 36.3703C135.352 36.6605 134.954 36.8873 134.526 37.0403V37.1103C134.599 37.3173 134.69 37.518 134.797 37.7103C134.94 37.9505 135.109 38.175 135.299 38.3803L135.5 38.5803L135.631 38.6903C135.688 38.7437 135.748 38.7938 135.812 38.8403C136.123 39.0686 136.46 39.2599 136.816 39.4103C137.214 39.5876 137.628 39.7282 138.052 39.8303H138.253L138.273 39.8503Z" fill="#1B75BC"/>
</g>
<g style="mix-blend-mode:luminosity" opacity="0.3">
<path d="M138.183 36.5203C138.436 36.6573 138.733 36.6922 139.011 36.6178C139.29 36.5433 139.529 36.3653 139.68 36.1203C139.751 35.997 139.798 35.8608 139.817 35.7195C139.835 35.5782 139.826 35.4346 139.788 35.297C139.751 35.1595 139.687 35.0306 139.599 34.9179C139.511 34.8052 139.402 34.7108 139.278 34.6403C139.115 34.5399 138.927 34.4878 138.735 34.4903C138.543 34.4905 138.354 34.5415 138.188 34.6382C138.022 34.7348 137.885 34.8736 137.791 35.0403C137.715 35.1612 137.665 35.297 137.646 35.4384C137.627 35.5798 137.639 35.7237 137.68 35.8603C137.712 35.9997 137.773 36.1307 137.86 36.2445C137.946 36.3583 138.056 36.4524 138.183 36.5203V36.5203Z" fill="#1B75BC"/>
</g>
<g style="mix-blend-mode:luminosity" opacity="0.3">
<path d="M131.953 35.1405C132.028 35.5874 132.028 36.0436 131.953 36.4905H132.024C132.518 36.5905 133.027 36.5905 133.521 36.4905L133.792 36.4105L133.953 36.3605L134.174 36.2805C134.529 36.1336 134.867 35.9456 135.178 35.7205C135.542 35.4656 135.879 35.1741 136.183 34.8505C136.237 34.8023 136.281 34.7447 136.314 34.6805C136.423 34.486 136.456 34.2576 136.404 34.0405C136.37 33.8709 136.282 33.7167 136.153 33.6005C136.072 33.5222 135.976 33.4606 135.871 33.4194C135.765 33.3782 135.653 33.3582 135.54 33.3605C135.419 33.3605 135.3 33.3853 135.189 33.4335C135.078 33.4817 134.979 33.5522 134.897 33.6405L134.726 33.8105L134.525 33.9905L134.375 34.1205L134.244 34.2205C133.991 34.4177 133.71 34.5761 133.41 34.6905L133.048 34.7805C132.809 34.8255 132.564 34.8255 132.325 34.7805C132.208 34.7578 132.094 34.7243 131.983 34.6805H131.913C131.913 34.7705 131.913 34.8505 131.913 34.9305L131.953 35.1405Z" fill="#D7DF28"/>
</g>
<g style="mix-blend-mode:luminosity" opacity="0.3">
<path d="M133.329 33.0602C133.469 32.9983 133.595 32.9078 133.698 32.7945C133.801 32.6812 133.879 32.5477 133.926 32.4025C133.974 32.2574 133.991 32.1039 133.975 31.952C133.959 31.8 133.911 31.6531 133.835 31.5207C133.759 31.3883 133.655 31.2733 133.531 31.1832C133.407 31.0932 133.266 31.0301 133.116 30.998C132.966 30.9659 132.811 30.9655 132.66 30.9969C132.51 31.0283 132.368 31.0908 132.244 31.1802C132.118 31.2481 132.008 31.3422 131.921 31.456C131.834 31.5699 131.773 31.7009 131.742 31.8402C131.7 31.9768 131.689 32.1207 131.708 32.2621C131.727 32.4036 131.776 32.5393 131.852 32.6602C132.001 32.9018 132.236 33.0778 132.511 33.1522C132.785 33.2266 133.078 33.1937 133.329 33.0602V33.0602Z" fill="#D7DF28"/>
</g>
</g>
<path d="M36.7352 19.225C35.6552 19.225 34.7402 18.985 33.9902 18.505C33.2552 18.01 32.7002 17.35 32.3252 16.525C31.9652 15.685 31.7852 14.7475 31.7852 13.7125C31.7852 12.6775 31.9652 11.7475 32.3252 10.9225C32.7002 10.0825 33.2552 9.4225 33.9902 8.9425C34.7402 8.4475 35.6552 8.2 36.7352 8.2C38.3852 8.2 39.4727 8.4625 39.9977 8.9875C40.2527 9.2425 40.4102 9.5575 40.4702 9.9325C40.5302 10.2925 40.5602 10.9525 40.5602 11.9125H40.1102C40.0502 10.9825 39.7577 10.285 39.2327 9.82C38.7077 9.34 38.0252 9.1 37.1852 9.1C36.1052 9.1 35.2877 9.5275 34.7327 10.3825C34.1927 11.2375 33.9227 12.3475 33.9227 13.7125C33.9227 15.0775 34.1927 16.1875 34.7327 17.0425C35.2877 17.8975 36.1052 18.325 37.1852 18.325C37.9502 18.325 38.5802 18.1825 39.0752 17.8975C39.5702 17.5975 40.0277 17.14 40.4477 16.525L40.8977 16.8625C40.4027 17.7025 39.8177 18.31 39.1427 18.685C38.4677 19.045 37.6652 19.225 36.7352 19.225ZM47.3867 19.225C46.3667 19.225 45.5042 18.985 44.7992 18.505C44.0942 18.01 43.5617 17.35 43.2017 16.525C42.8417 15.685 42.6617 14.7475 42.6617 13.7125C42.6617 12.6925 42.8417 11.7625 43.2017 10.9225C43.5617 10.0825 44.0792 9.4225 44.7542 8.9425C45.4442 8.4475 46.2467 8.2 47.1617 8.2C48.6767 8.2 49.8017 8.6275 50.5367 9.4825C51.2867 10.3225 51.6617 11.545 51.6617 13.15L51.6167 14.05H44.7992C44.7992 15.31 45.0692 16.3375 45.6092 17.1325C46.1492 17.9275 46.8917 18.325 47.8367 18.325C48.5417 18.325 49.1342 18.175 49.6142 17.875C50.1092 17.575 50.5667 17.125 50.9867 16.525L51.4367 16.8625C50.9417 17.6875 50.3642 18.2875 49.7042 18.6625C49.0442 19.0375 48.2717 19.225 47.3867 19.225ZM49.5242 13.15C49.5242 11.83 49.3292 10.825 48.9392 10.135C48.5492 9.445 47.9567 9.1 47.1617 9.1C46.7117 9.1 46.3067 9.28 45.9467 9.64C45.5867 9.985 45.3017 10.465 45.0917 11.08C44.8967 11.695 44.7992 12.385 44.7992 13.15H49.5242ZM54.4355 11.125C54.4355 10.36 54.3305 9.7975 54.1205 9.4375C53.9105 9.0625 53.4905 8.875 52.8605 8.875H52.6355V8.425H54.4355C55.0055 8.425 55.433 8.5075 55.718 8.6725C56.018 8.8225 56.228 9.0775 56.348 9.4375H56.4605C56.7305 9.0925 57.0905 8.8 57.5405 8.56C58.0055 8.32 58.5455 8.2 59.1605 8.2C59.7605 8.2 60.2105 8.3125 60.5105 8.5375C60.7655 8.7325 61.028 9.07 61.298 9.55L60.398 10.225C60.233 10 59.993 9.835 59.678 9.73C59.363 9.61 59.003 9.55 58.598 9.55C58.148 9.55 57.7355 9.655 57.3605 9.865C56.9855 10.06 56.6855 10.33 56.4605 10.675V19H54.4355V11.125ZM66.3259 19.225C65.4859 19.225 64.8259 18.985 64.3459 18.505C63.8659 18.025 63.6259 17.29 63.6259 16.3V9.325H62.0509V8.425H63.6259V6.4L64.7509 5.05H65.6509V8.425H68.3509V9.325H65.6509V16.3C65.6509 17.65 66.1759 18.325 67.2259 18.325C67.5859 18.325 67.8859 18.2875 68.1259 18.2125C68.3809 18.1375 68.6434 18.025 68.9134 17.875L69.1384 18.325C68.7934 18.58 68.4109 18.7975 67.9909 18.9775C67.5709 19.1425 67.0159 19.225 66.3259 19.225ZM71.9934 7.075C71.6484 7.075 71.3484 6.9325 71.0934 6.6475C70.8534 6.3625 70.7334 6.025 70.7334 5.635C70.7334 5.32 70.8234 5.0725 71.0034 4.8925C71.1984 4.7125 71.4534 4.6225 71.7684 4.6225C72.1134 4.6225 72.4059 4.765 72.6459 5.05C72.9009 5.335 73.0284 5.6725 73.0284 6.0625C73.0284 6.3775 72.9309 6.625 72.7359 6.805C72.5559 6.985 72.3084 7.075 71.9934 7.075ZM71.1384 11.125C71.1384 10.36 71.0334 9.7975 70.8234 9.4375C70.6134 9.0625 70.1934 8.875 69.5634 8.875H69.1134V8.425H71.1384C71.6934 8.425 72.1059 8.5 72.3759 8.65C72.6609 8.785 72.8634 9.04 72.9834 9.415C73.1034 9.79 73.1634 10.36 73.1634 11.125V19H71.1384V11.125ZM75.1905 9.325V8.425H76.7655V7.75C76.7655 5.2 78.078 3.925 80.703 3.925C81.648 3.925 82.2855 4.0375 82.6155 4.2625C82.8705 4.4575 83.133 4.795 83.403 5.275L82.728 5.8375C82.278 5.1625 81.5655 4.825 80.5905 4.825C79.3905 4.825 78.7905 5.8 78.7905 7.75V8.425H81.9405V9.325H78.7905V19H76.7655V9.325H75.1905ZM85.3967 7.075C85.0517 7.075 84.7517 6.9325 84.4967 6.6475C84.2567 6.3625 84.1367 6.025 84.1367 5.635C84.1367 5.32 84.2267 5.0725 84.4067 4.8925C84.6017 4.7125 84.8567 4.6225 85.1717 4.6225C85.5167 4.6225 85.8092 4.765 86.0492 5.05C86.3042 5.335 86.4317 5.6725 86.4317 6.0625C86.4317 6.3775 86.3342 6.625 86.1392 6.805C85.9592 6.985 85.7117 7.075 85.3967 7.075ZM84.5417 11.125C84.5417 10.36 84.4367 9.7975 84.2267 9.4375C84.0167 9.0625 83.5967 8.875 82.9667 8.875H82.5167V8.425H84.5417C85.0967 8.425 85.5092 8.5 85.7792 8.65C86.0642 8.785 86.2667 9.04 86.3867 9.415C86.5067 9.79 86.5667 10.36 86.5667 11.125V19H84.5417V11.125ZM93.8588 19.225C92.8388 19.225 91.9763 18.985 91.2713 18.505C90.5663 18.01 90.0338 17.35 89.6738 16.525C89.3138 15.685 89.1338 14.7475 89.1338 13.7125C89.1338 12.6925 89.3138 11.7625 89.6738 10.9225C90.0338 10.0825 90.5513 9.4225 91.2263 8.9425C91.9163 8.4475 92.7188 8.2 93.6338 8.2C95.1488 8.2 96.2738 8.6275 97.0088 9.4825C97.7588 10.3225 98.1338 11.545 98.1338 13.15L98.0888 14.05H91.2713C91.2713 15.31 91.5413 16.3375 92.0813 17.1325C92.6213 17.9275 93.3638 18.325 94.3088 18.325C95.0138 18.325 95.6063 18.175 96.0863 17.875C96.5813 17.575 97.0388 17.125 97.4588 16.525L97.9088 16.8625C97.4138 17.6875 96.8363 18.2875 96.1763 18.6625C95.5163 19.0375 94.7438 19.225 93.8588 19.225ZM95.9963 13.15C95.9963 11.83 95.8013 10.825 95.4113 10.135C95.0213 9.445 94.4288 9.1 93.6338 9.1C93.1838 9.1 92.7788 9.28 92.4188 9.64C92.0588 9.985 91.7738 10.465 91.5638 11.08C91.3688 11.695 91.2713 12.385 91.2713 13.15H95.9963ZM104.215 19.225C102.91 19.225 101.905 18.7075 101.2 17.6725C100.51 16.6375 100.165 15.3175 100.165 13.7125C100.165 12.1075 100.525 10.7875 101.245 9.7525C101.98 8.7175 103.045 8.2 104.44 8.2C105.01 8.2 105.513 8.26 105.948 8.38C106.383 8.5 106.818 8.665 107.253 8.875V6.85C107.253 6.085 107.148 5.5225 106.938 5.1625C106.728 4.7875 106.308 4.6 105.678 4.6H105.228V4.15H107.253C107.808 4.15 108.22 4.225 108.49 4.375C108.775 4.51 108.978 4.765 109.098 5.14C109.218 5.515 109.278 6.085 109.278 6.85V19H108.153L107.365 17.9875H107.253C106.923 18.3625 106.533 18.6625 106.083 18.8875C105.648 19.1125 105.025 19.225 104.215 19.225ZM104.89 18.325C105.505 18.325 105.97 18.2125 106.285 17.9875C106.6 17.7625 106.923 17.425 107.253 16.975V9.775C106.803 9.565 106.413 9.4 106.083 9.28C105.753 9.16 105.43 9.1 105.115 9.1C104.155 9.1 103.443 9.52 102.978 10.36C102.528 11.2 102.303 12.3175 102.303 13.7125C102.303 15.0925 102.52 16.21 102.955 17.065C103.39 17.905 104.035 18.325 104.89 18.325Z" fill="white"/>
<path d="M2.35657 62.7447C2.23367 62.3882 2.10154 62.1455 1.9602 62.0165C1.825 61.8813 1.61914 61.8014 1.3426 61.7768V61.5924C1.37333 61.5924 1.41942 61.5894 1.48087 61.5832C1.53618 61.5771 1.59456 61.574 1.65601 61.574C1.994 61.574 2.29819 61.6508 2.56858 61.8044C2.84512 61.9581 3.06635 62.2715 3.23227 62.7447L4.46747 66.3028L5.45379 63.3807L5.23256 62.7447C5.10966 62.3882 4.97753 62.1455 4.83619 62.0165C4.70099 61.8813 4.49513 61.8014 4.21859 61.7768V61.5924C4.24932 61.5924 4.29233 61.5894 4.34764 61.5832C4.40909 61.5771 4.47055 61.574 4.532 61.574C4.86999 61.574 5.17418 61.6508 5.44457 61.8044C5.72111 61.9581 5.94234 62.2715 6.10826 62.7447L7.34346 66.3028L8.91973 61.6662H9.3161L7.2052 67.8422H7.02084L5.65659 63.9614L4.32921 67.8422H4.14485L2.35657 62.7447ZM12.7328 67.9344C12.1613 67.9344 11.6574 67.793 11.221 67.5103C10.7909 67.2277 10.459 66.8405 10.2255 66.3489C9.99198 65.8573 9.87522 65.3103 9.87522 64.7081C9.87522 64.1058 9.99198 63.5589 10.2255 63.0673C10.459 62.5757 10.7909 62.1885 11.221 61.9058C11.6574 61.6232 12.1613 61.4818 12.7328 61.4818C13.3043 61.4818 13.8051 61.6232 14.2353 61.9058C14.6716 62.1885 15.0065 62.5757 15.2401 63.0673C15.4736 63.5589 15.5903 64.1058 15.5903 64.7081C15.5903 65.3103 15.4736 65.8573 15.2401 66.3489C15.0065 66.8405 14.6716 67.2277 14.2353 67.5103C13.8051 67.793 13.3043 67.9344 12.7328 67.9344ZM12.7328 67.5656C13.1322 67.5656 13.4764 67.4489 13.7652 67.2154C14.0602 66.9818 14.2845 66.6531 14.4381 66.229C14.5917 65.7989 14.6685 65.2919 14.6685 64.7081C14.6685 64.1243 14.5917 63.6204 14.4381 63.1963C14.2845 62.7662 14.0602 62.4343 13.7652 62.2008C13.4764 61.9673 13.1322 61.8505 12.7328 61.8505C12.3333 61.8505 11.9861 61.9673 11.6912 62.2008C11.4023 62.4343 11.1811 62.7662 11.0275 63.1963C10.8738 63.6204 10.797 64.1243 10.797 64.7081C10.797 65.2919 10.8738 65.7989 11.0275 66.229C11.1811 66.6531 11.4023 66.9818 11.6912 67.2154C11.9861 67.4489 12.3333 67.5656 12.7328 67.5656ZM23.7658 68.1648C23.3234 68.1648 22.9792 68.0972 22.7334 67.962C22.4876 67.8268 22.3125 67.6179 22.208 67.3352C22.1097 67.0464 22.0605 66.6623 22.0605 66.183V62.6341L19.756 67.75H19.5717L17.175 62.5419V67.75H16.8063V61.6662H17.682L19.8943 66.4595L22.0605 61.6662H22.8901V66.183C22.8901 66.7545 22.9608 67.1969 23.1021 67.5103C23.2496 67.8237 23.4709 67.9804 23.7658 67.9804V68.1648ZM24.8223 62.7723C24.8223 62.4589 24.7793 62.2285 24.6932 62.081C24.6072 61.9273 24.4351 61.8505 24.177 61.8505H23.9927V61.6662H27.9195C28.4419 61.6662 28.703 61.912 28.703 62.4036V63.095H28.5187C28.5187 62.3882 28.1346 62.0349 27.3664 62.0349H25.6519V64.4315H28.1407V64.8003H25.6519V67.3813H27.265C27.6891 67.3813 28.0209 67.3045 28.2606 67.1508C28.5002 66.9972 28.6907 66.736 28.8321 66.3673L29.0164 66.4134L28.6938 67.2891C28.5832 67.5964 28.3528 67.75 28.0025 67.75H24.8223V62.7723ZM30.665 67.75H30.2963V62.7723C30.2963 62.4774 30.2318 62.25 30.1027 62.0902C29.9798 61.9304 29.7678 61.8505 29.4667 61.8505H29.3745V61.6662H29.9737C30.2564 61.6662 30.496 61.7123 30.6927 61.8044C30.8893 61.8966 31.0645 62.0349 31.2181 62.2192L34.4444 66.229V61.6662H34.8131V67.8422H34.6287L30.665 62.9106V67.75ZM36.1641 63.6941C36.41 63.5282 36.5943 63.3469 36.7172 63.1503C36.8401 62.9475 36.9016 62.7139 36.9016 62.4497L36.625 62.5419C36.4837 62.5419 36.3639 62.4927 36.2655 62.3944C36.1672 62.2961 36.1181 62.1762 36.1181 62.0349C36.1181 61.8751 36.1703 61.743 36.2748 61.6385C36.3792 61.5341 36.5114 61.4818 36.6711 61.4818C36.8555 61.4818 36.9999 61.5402 37.1044 61.657C37.215 61.7676 37.2703 61.9243 37.2703 62.1271C37.2703 62.8829 36.9323 63.4514 36.2563 63.8324L36.1641 63.6941ZM47.6351 67.9067C47.2971 67.9067 46.9652 67.8606 46.6395 67.7684C46.3138 67.6763 46.0465 67.5441 45.8376 67.3721C45.6348 67.2 45.5334 67.0033 45.5334 66.7821V65.7958H45.6993C45.8038 66.4103 46.0066 66.8559 46.3077 67.1324C46.6088 67.4028 47.0236 67.538 47.5521 67.538C47.8839 67.538 48.1666 67.455 48.4001 67.2891C48.6398 67.1232 48.7596 66.8927 48.7596 66.5978C48.7596 66.3397 48.6798 66.1154 48.52 65.9249C48.3602 65.7343 48.1021 65.5346 47.7457 65.3257L46.6119 64.6528C46.2186 64.4193 45.939 64.1827 45.773 63.943C45.6133 63.7033 45.5334 63.4114 45.5334 63.0673C45.5334 62.5941 45.6962 62.2162 46.0219 61.9335C46.3538 61.6447 46.787 61.5003 47.3216 61.5003C47.6351 61.5003 47.9454 61.5463 48.2527 61.6385C48.5599 61.7246 48.8119 61.8536 49.0085 62.0257C49.2113 62.1916 49.3127 62.3852 49.3127 62.6064V63.5927H49.1468C49.0423 62.9782 48.8426 62.5388 48.5476 62.2746C48.2588 62.0042 47.8501 61.869 47.3216 61.869C47.039 61.869 46.7901 61.955 46.575 62.1271C46.3599 62.2991 46.2524 62.5234 46.2524 62.8C46.2524 63.0519 46.3292 63.2609 46.4828 63.4268C46.6426 63.5927 46.9068 63.7863 47.2756 64.0075L48.4094 64.6804C48.8272 64.9324 49.1222 65.1659 49.2943 65.381C49.4663 65.5961 49.5524 65.8695 49.5524 66.2014C49.5524 66.7176 49.3803 67.1324 49.0362 67.4458C48.692 67.7531 48.225 67.9067 47.6351 67.9067ZM53.2322 62.7723C53.2322 62.4589 53.1892 62.2285 53.1032 62.081C53.0171 61.9273 52.8451 61.8505 52.5869 61.8505H52.4026V61.6662H54.7992C55.4691 61.6662 56.0498 61.7768 56.5414 61.998C57.0392 62.2192 57.2881 62.6463 57.2881 63.2793C57.2881 63.5681 57.1898 63.8293 56.9931 64.0628C56.7965 64.2964 56.4953 64.4807 56.0898 64.6159C56.6551 64.7081 57.0484 64.8771 57.2697 65.1229C57.497 65.3626 57.6107 65.6852 57.6107 66.0908C57.6107 66.7114 57.3649 67.1447 56.8733 67.3905C56.3878 67.6302 55.7886 67.75 55.0758 67.75H53.2322V62.7723ZM54.9375 64.4776C55.1895 64.4776 55.4261 64.4315 55.6473 64.3394C55.8747 64.241 56.059 64.0997 56.2004 63.9153C56.3417 63.7248 56.4124 63.4975 56.4124 63.2332C56.4124 62.9567 56.3294 62.7262 56.1635 62.5419C55.9976 62.3514 55.7856 62.2131 55.5275 62.1271C55.2755 62.0349 55.0174 61.9888 54.7532 61.9888C54.5381 61.9888 54.3076 62.0195 54.0618 62.081V64.4776H54.9375ZM54.9375 67.4274C55.4967 67.4274 55.9269 67.3168 56.228 67.0955C56.5353 66.8743 56.6889 66.5547 56.6889 66.1369C56.6889 65.719 56.5384 65.3994 56.2372 65.1782C55.9423 64.957 55.509 64.8464 54.9375 64.8464H54.0618V67.2983C54.3568 67.3844 54.6487 67.4274 54.9375 67.4274ZM61.1984 67.8422C60.6085 67.8422 60.1414 67.7439 59.7973 67.5472C59.4532 67.3444 59.2074 67.0464 59.0599 66.6531C58.9185 66.2598 58.8479 65.7497 58.8479 65.1229V62.7723C58.8479 62.4589 58.8048 62.2285 58.7188 62.081C58.6328 61.9273 58.4607 61.8505 58.2026 61.8505H58.0182V61.6662H58.8479C59.0752 61.6662 59.2442 61.6969 59.3548 61.7584C59.4716 61.8137 59.5546 61.9181 59.6037 62.0718C59.6529 62.2254 59.6775 62.4589 59.6775 62.7723V65.3994C59.6775 66.0816 59.8034 66.5978 60.0554 66.948C60.3074 67.2983 60.7252 67.4735 61.309 67.4735C61.7761 67.4735 62.1448 67.3905 62.4152 67.2246C62.6917 67.0587 62.8884 66.8067 63.0051 66.4687C63.1219 66.1307 63.1803 65.6821 63.1803 65.1229V61.6662H63.549V65.1229C63.549 65.762 63.4814 66.2782 63.3462 66.6715C63.211 67.0587 62.9713 67.3506 62.6272 67.5472C62.2892 67.7439 61.813 67.8422 61.1984 67.8422ZM66.8631 67.9067C66.5251 67.9067 66.1932 67.8606 65.8675 67.7684C65.5418 67.6763 65.2745 67.5441 65.0656 67.3721C64.8628 67.2 64.7614 67.0033 64.7614 66.7821V65.7958H64.9273C65.0318 66.4103 65.2346 66.8559 65.5357 67.1324C65.8368 67.4028 66.2516 67.538 66.7801 67.538C67.1119 67.538 67.3946 67.455 67.6281 67.2891C67.8678 67.1232 67.9876 66.8927 67.9876 66.5978C67.9876 66.3397 67.9077 66.1154 67.748 65.9249C67.5882 65.7343 67.3301 65.5346 66.9737 65.3257L65.8399 64.6528C65.4466 64.4193 65.167 64.1827 65.001 63.943C64.8413 63.7033 64.7614 63.4114 64.7614 63.0673C64.7614 62.5941 64.9242 62.2162 65.2499 61.9335C65.5818 61.6447 66.015 61.5003 66.5496 61.5003C66.8631 61.5003 67.1734 61.5463 67.4807 61.6385C67.7879 61.7246 68.0399 61.8536 68.2365 62.0257C68.4393 62.1916 68.5407 62.3852 68.5407 62.6064V63.5927H68.3748C68.2703 62.9782 68.0706 62.5388 67.7756 62.2746C67.4868 62.0042 67.0781 61.869 66.5496 61.869C66.267 61.869 66.0181 61.955 65.803 62.1271C65.5879 62.2991 65.4804 62.5234 65.4804 62.8C65.4804 63.0519 65.5572 63.2609 65.7108 63.4268C65.8706 63.5927 66.1348 63.7863 66.5036 64.0075L67.6374 64.6804C68.0552 64.9324 68.3502 65.1659 68.5223 65.381C68.6943 65.5961 68.7804 65.8695 68.7804 66.2014C68.7804 66.7176 68.6083 67.1324 68.2642 67.4458C67.92 67.7531 67.453 67.9067 66.8631 67.9067ZM70.8286 67.75C70.6013 67.75 70.4292 67.7223 70.3124 67.667C70.2018 67.6056 70.1219 67.498 70.0728 67.3444C70.0236 67.1908 69.999 66.9573 69.999 66.6438V61.6662H70.8286V66.6438C70.8286 66.9573 70.8716 67.1908 70.9577 67.3444C71.0437 67.4919 71.2158 67.5656 71.4739 67.5656H71.6582V67.75H70.8286ZM73.1899 67.75H72.8211V62.7723C72.8211 62.4774 72.7566 62.25 72.6276 62.0902C72.5047 61.9304 72.2926 61.8505 71.9915 61.8505H71.8993V61.6662H72.4985C72.7812 61.6662 73.0209 61.7123 73.2175 61.8044C73.4142 61.8966 73.5893 62.0349 73.7429 62.2192L76.9692 66.229V61.6662H77.3379V67.8422H77.1536L73.1899 62.9106V67.75ZM79.0946 62.7723C79.0946 62.4589 79.0516 62.2285 78.9655 62.081C78.8795 61.9273 78.7074 61.8505 78.4493 61.8505H78.265V61.6662H82.1918C82.7142 61.6662 82.9753 61.912 82.9753 62.4036V63.095H82.791C82.791 62.3882 82.4069 62.0349 81.6387 62.0349H79.9242V64.4315H82.413V64.8003H79.9242V67.3813H81.5373C81.9614 67.3813 82.2932 67.3045 82.5329 67.1508C82.7725 66.9972 82.963 66.736 83.1044 66.3673L83.2887 66.4134L82.9661 67.2891C82.8555 67.5964 82.625 67.75 82.2748 67.75H79.0946V62.7723ZM86.1541 67.9067C85.8161 67.9067 85.4842 67.8606 85.1585 67.7684C84.8328 67.6763 84.5655 67.5441 84.3566 67.3721C84.1538 67.2 84.0524 67.0033 84.0524 66.7821V65.7958H84.2183C84.3228 66.4103 84.5256 66.8559 84.8267 67.1324C85.1278 67.4028 85.5426 67.538 86.0711 67.538C86.4029 67.538 86.6856 67.455 86.9192 67.2891C87.1588 67.1232 87.2786 66.8927 87.2786 66.5978C87.2786 66.3397 87.1988 66.1154 87.039 65.9249C86.8792 65.7343 86.6211 65.5346 86.2647 65.3257L85.1309 64.6528C84.7376 64.4193 84.458 64.1827 84.292 63.943C84.1323 63.7033 84.0524 63.4114 84.0524 63.0673C84.0524 62.5941 84.2152 62.2162 84.5409 61.9335C84.8728 61.6447 85.306 61.5003 85.8407 61.5003C86.1541 61.5003 86.4644 61.5463 86.7717 61.6385C87.0789 61.7246 87.3309 61.8536 87.5275 62.0257C87.7303 62.1916 87.8317 62.3852 87.8317 62.6064V63.5927H87.6658C87.5613 62.9782 87.3616 62.5388 87.0666 62.2746C86.7778 62.0042 86.3691 61.869 85.8407 61.869C85.558 61.869 85.3091 61.955 85.094 62.1271C84.8789 62.2991 84.7714 62.5234 84.7714 62.8C84.7714 63.0519 84.8482 63.2609 85.0018 63.4268C85.1616 63.5927 85.4258 63.7863 85.7946 64.0075L86.9284 64.6804C87.3462 64.9324 87.6412 65.1659 87.8133 65.381C87.9854 65.5961 88.0714 65.8695 88.0714 66.2014C88.0714 66.7176 87.8993 67.1324 87.5552 67.4458C87.2111 67.7531 86.744 67.9067 86.1541 67.9067ZM91.0691 67.9067C90.7311 67.9067 90.3993 67.8606 90.0736 67.7684C89.7479 67.6763 89.4805 67.5441 89.2716 67.3721C89.0688 67.2 88.9674 67.0033 88.9674 66.7821V65.7958H89.1333C89.2378 66.4103 89.4406 66.8559 89.7417 67.1324C90.0428 67.4028 90.4576 67.538 90.9861 67.538C91.318 67.538 91.6007 67.455 91.8342 67.2891C92.0738 67.1232 92.1937 66.8927 92.1937 66.5978C92.1937 66.3397 92.1138 66.1154 91.954 65.9249C91.7942 65.7343 91.5361 65.5346 91.1797 65.3257L90.0459 64.6528C89.6526 64.4193 89.373 64.1827 89.2071 63.943C89.0473 63.7033 88.9674 63.4114 88.9674 63.0673C88.9674 62.5941 89.1303 62.2162 89.456 61.9335C89.7878 61.6447 90.221 61.5003 90.7557 61.5003C91.0691 61.5003 91.3794 61.5463 91.6867 61.6385C91.994 61.7246 92.2459 61.8536 92.4426 62.0257C92.6454 62.1916 92.7467 62.3852 92.7467 62.6064V63.5927H92.5808C92.4764 62.9782 92.2766 62.5388 91.9817 62.2746C91.6928 62.0042 91.2842 61.869 90.7557 61.869C90.473 61.869 90.2241 61.955 90.009 62.1271C89.7939 62.2991 89.6864 62.5234 89.6864 62.8C89.6864 63.0519 89.7632 63.2609 89.9168 63.4268C90.0766 63.5927 90.3409 63.7863 90.7096 64.0075L91.8434 64.6804C92.2613 64.9324 92.5562 65.1659 92.7283 65.381C92.9004 65.5961 92.9864 65.8695 92.9864 66.2014C92.9864 66.7176 92.8143 67.1324 92.4702 67.4458C92.1261 67.7531 91.659 67.9067 91.0691 67.9067ZM2.61467 71.7723C2.61467 71.4589 2.57166 71.2285 2.48562 71.081C2.39959 70.9273 2.22752 70.8505 1.96942 70.8505H1.78506V70.6662H5.71189C6.23424 70.6662 6.49542 70.912 6.49542 71.4036V72.095H6.31106C6.31106 71.3882 5.92698 71.0349 5.15882 71.0349H3.44429V73.4315H5.93312V73.8003H3.44429V76.3813H5.05742C5.48145 76.3813 5.81329 76.3045 6.05296 76.1508C6.29262 75.9972 6.48313 75.736 6.62447 75.3673L6.80883 75.4134L6.4862 76.2891C6.37558 76.5964 6.14514 76.75 5.79485 76.75H2.61467V71.7723ZM8.45739 76.75H8.08868V71.7723C8.08868 71.4774 8.02415 71.25 7.8951 71.0902C7.77219 70.9304 7.56018 70.8505 7.25906 70.8505H7.16688V70.6662H7.76605C8.04873 70.6662 8.2884 70.7123 8.48505 70.8044C8.68169 70.8966 8.85683 71.0349 9.01047 71.2192L12.2367 75.229V70.6662H12.6055V76.8422H12.4211L8.45739 71.9106V76.75ZM14.9152 71.0349C14.147 71.0349 13.763 71.3882 13.763 72.095H13.5786V71.4036C13.5786 70.912 13.8398 70.6662 14.3621 70.6662H18.6484V71.0349H16.5744V76.75H15.7448V71.0349H14.9152ZM19.7362 71.7723C19.7362 71.4589 19.6932 71.2285 19.6072 71.081C19.5211 70.9273 19.3491 70.8505 19.091 70.8505H18.9066V70.6662H22.8335C23.3558 70.6662 23.617 70.912 23.617 71.4036V72.095H23.4326C23.4326 71.3882 23.0485 71.0349 22.2804 71.0349H20.5658V73.4315H23.0547V73.8003H20.5658V76.3813H22.179C22.603 76.3813 22.9349 76.3045 23.1745 76.1508C23.4142 75.9972 23.6047 75.736 23.746 75.3673L23.9304 75.4134L23.6078 76.2891C23.4971 76.5964 23.2667 76.75 22.9164 76.75H19.7362V71.7723ZM29.2292 76.8422C28.9035 76.8422 28.6178 76.7469 28.372 76.5564C28.1323 76.3598 27.865 76.0095 27.57 75.5056L26.6482 73.9385H26.003V76.75H25.1734V71.7723C25.1734 71.4589 25.1303 71.2285 25.0443 71.081C24.9583 70.9273 24.7862 70.8505 24.5281 70.8505H24.3438V70.6662H26.7404C27.3242 70.6662 27.8527 70.7829 28.3259 71.0165C28.8052 71.2438 29.0449 71.6801 29.0449 72.3254C29.0449 73.1427 28.5533 73.6651 27.57 73.8924L28.5379 75.5056C28.7653 75.8866 28.9681 76.1539 29.1463 76.3075C29.3306 76.455 29.5427 76.5411 29.7823 76.5656V76.75C29.727 76.7746 29.6471 76.7961 29.5427 76.8145C29.4443 76.833 29.3399 76.8422 29.2292 76.8422ZM26.6943 73.6159C26.8848 73.6159 27.0907 73.5698 27.3119 73.4776C27.5393 73.3855 27.7298 73.241 27.8834 73.0444C28.0432 72.8477 28.1231 72.6081 28.1231 72.3254C28.1231 72.0243 28.0432 71.7754 27.8834 71.5787C27.7298 71.376 27.5393 71.2285 27.3119 71.1363C27.0907 71.038 26.8848 70.9888 26.6943 70.9888C26.4792 70.9888 26.2488 71.0195 26.003 71.081V73.5237C26.2488 73.5852 26.4792 73.6159 26.6943 73.6159ZM30.6555 71.7723C30.6555 71.4589 30.6125 71.2285 30.5265 71.081C30.4404 70.9273 30.2684 70.8505 30.0103 70.8505H29.8259V70.6662H32.2226C32.8125 70.6662 33.3441 70.7922 33.8173 71.0441C34.2904 71.2961 34.527 71.7846 34.527 72.5098C34.527 72.9891 34.4041 73.3578 34.1583 73.6159C33.9125 73.874 33.636 74.0461 33.3287 74.1321C33.0276 74.2181 32.751 74.2612 32.4991 74.2612H31.4851V76.75H30.6555V71.7723ZM32.1765 73.9385C32.3731 73.9385 32.582 73.8894 32.8033 73.791C33.0245 73.6866 33.2119 73.5237 33.3656 73.3025C33.5254 73.0813 33.6052 72.8017 33.6052 72.4637C33.6052 72.1257 33.5254 71.8461 33.3656 71.6248C33.2119 71.4036 33.0245 71.2438 32.8033 71.1455C32.582 71.041 32.3731 70.9888 32.1765 70.9888C31.9614 70.9888 31.7309 71.0195 31.4851 71.081V73.8464C31.7309 73.9078 31.9614 73.9385 32.1765 73.9385ZM39.7974 76.8422C39.4717 76.8422 39.186 76.7469 38.9402 76.5564C38.7005 76.3598 38.4332 76.0095 38.1382 75.5056L37.2164 73.9385H36.5712V76.75H35.7416V71.7723C35.7416 71.4589 35.6985 71.2285 35.6125 71.081C35.5265 70.9273 35.3544 70.8505 35.0963 70.8505H34.912V70.6662H37.3086C37.8924 70.6662 38.4209 70.7829 38.8941 71.0165C39.3734 71.2438 39.6131 71.6801 39.6131 72.3254C39.6131 73.1427 39.1215 73.6651 38.1382 73.8924L39.1061 75.5056C39.3335 75.8866 39.5363 76.1539 39.7145 76.3075C39.8988 76.455 40.1109 76.5411 40.3505 76.5656V76.75C40.2952 76.7746 40.2153 76.7961 40.1109 76.8145C40.0125 76.833 39.9081 76.8422 39.7974 76.8422ZM37.2625 73.6159C37.453 73.6159 37.6589 73.5698 37.8801 73.4776C38.1075 73.3855 38.298 73.241 38.4516 73.0444C38.6114 72.8477 38.6913 72.6081 38.6913 72.3254C38.6913 72.0243 38.6114 71.7754 38.4516 71.5787C38.298 71.376 38.1075 71.2285 37.8801 71.1363C37.6589 71.038 37.453 70.9888 37.2625 70.9888C37.0474 70.9888 36.817 71.0195 36.5712 71.081V73.5237C36.817 73.5852 37.0474 73.6159 37.2625 73.6159ZM41.8966 76.75C41.6692 76.75 41.4972 76.7223 41.3804 76.667C41.2698 76.6056 41.1899 76.498 41.1407 76.3444C41.0916 76.1908 41.067 75.9573 41.067 75.6438V70.6662H41.8966V75.6438C41.8966 75.9573 41.9396 76.1908 42.0257 76.3444C42.1117 76.4919 42.2838 76.5656 42.5419 76.5656H42.7262V76.75H41.8966ZM45.4746 76.9067C45.1366 76.9067 44.8048 76.8606 44.4791 76.7684C44.1534 76.6763 43.8861 76.5441 43.6771 76.3721C43.4743 76.2 43.3729 76.0033 43.3729 75.7821V74.7958H43.5388C43.6433 75.4103 43.8461 75.8559 44.1472 76.1324C44.4483 76.4028 44.8632 76.538 45.3916 76.538C45.7235 76.538 46.0062 76.455 46.2397 76.2891C46.4794 76.1232 46.5992 75.8927 46.5992 75.5978C46.5992 75.3397 46.5193 75.1154 46.3595 74.9249C46.1997 74.7343 45.9416 74.5346 45.5852 74.3257L44.4514 73.6528C44.0581 73.4193 43.7785 73.1827 43.6126 72.943C43.4528 72.7033 43.3729 72.4114 43.3729 72.0673C43.3729 71.5941 43.5358 71.2162 43.8615 70.9335C44.1933 70.6447 44.6266 70.5003 45.1612 70.5003C45.4746 70.5003 45.7849 70.5463 46.0922 70.6385C46.3995 70.7246 46.6514 70.8536 46.8481 71.0257C47.0509 71.1916 47.1523 71.3852 47.1523 71.6064V72.5927H46.9863C46.8819 71.9782 46.6822 71.5388 46.3872 71.2746C46.0984 71.0042 45.6897 70.869 45.1612 70.869C44.8785 70.869 44.6296 70.955 44.4145 71.1271C44.1995 71.2991 44.0919 71.5234 44.0919 71.8C44.0919 72.0519 44.1687 72.2609 44.3224 72.4268C44.4821 72.5927 44.7464 72.7863 45.1151 73.0075L46.2489 73.6804C46.6668 73.9324 46.9618 74.1659 47.1338 74.381C47.3059 74.5961 47.3919 74.8695 47.3919 75.2014C47.3919 75.7176 47.2199 76.1324 46.8757 76.4458C46.5316 76.7531 46.0646 76.9067 45.4746 76.9067ZM48.7673 71.7723C48.7673 71.4589 48.7243 71.2285 48.6382 71.081C48.5522 70.9273 48.3801 70.8505 48.122 70.8505H47.9377V70.6662H51.8645C52.3868 70.6662 52.648 70.912 52.648 71.4036V72.095H52.4637C52.4637 71.3882 52.0796 71.0349 51.3114 71.0349H49.5969V73.4315H52.0857V73.8003H49.5969V76.3813H51.21C51.634 76.3813 51.9659 76.3045 52.2056 76.1508C52.4452 75.9972 52.6357 75.736 52.7771 75.3673L52.9614 75.4134L52.6388 76.2891C52.5282 76.5964 52.2977 76.75 51.9475 76.75H48.7673V71.7723Z" fill="white"/>
<defs>
<clipPath id="clip0_58_3567">
<rect width="142.664" height="30" fill="white" transform="translate(0.632263 23.75)"/>
</clipPath>
</defs>
</svg>
