<svg width="161" height="48" viewBox="0 0 161 48" fill="none" xmlns="http://www.w3.org/2000/svg">
<path d="M97.5428 0.712272H94.0666L84.5176 22.688H89.4387C89.4387 22.688 92.1401 16.2356 92.2867 15.9004H99.3437C99.4903 16.2356 102.234 22.688 102.234 22.688H107.218L97.7732 0.733222H97.5428V0.712272ZM95.8047 6.38951C96.2026 7.49981 97.6475 11.4383 97.8779 12.0667C97.2287 12.0667 94.276 12.0877 93.6059 12.0877C93.8363 11.4383 95.365 7.49981 95.8047 6.38951ZM83.4286 0.712272V22.667H79.2195V6.15906C78.34 8.56822 73.1885 22.667 73.1885 22.667H70.1102C70.1102 22.667 64.9587 8.56822 64.0792 6.15906V22.667H59.8492V0.712272H66.1524C66.1524 0.712272 71.1363 13.8055 71.6389 15.1463C72.1415 13.8265 77.1882 0.712272 77.1882 0.712272H83.1145H83.4286V0.712272ZM34.7619 11.6478C34.7619 18.0582 39.9343 23.2955 46.2794 23.2955C52.6245 23.2955 57.8179 18.0792 57.8179 11.6478C57.8179 5.2373 52.6455 0 46.2794 0C39.9343 0.0209492 34.7619 5.2373 34.7619 11.6478ZM39.0548 11.6478C39.0548 7.62551 42.3007 4.33649 46.2794 4.33649C50.2582 4.33649 53.525 7.62551 53.525 11.6478C53.525 15.67 50.2792 18.959 46.2794 18.959C42.3007 18.959 39.0548 15.691 39.0548 11.6478ZM18.6584 7.03893C18.6584 2.36726 22.7628 0.272343 26.8253 0.272343C28.6053 0.272343 31.1601 0.670377 33.1495 2.55581L33.3798 2.7653L30.1549 6.15906L29.9455 5.86578C29.2545 4.88116 27.9352 4.31554 26.4484 4.31554C24.8988 4.31554 23.2444 4.96496 23.2444 6.7666C23.2444 8.29589 24.6894 8.84057 27.0347 9.59474C29.8618 10.4956 33.3798 11.6478 33.3798 16.1937C33.3798 20.5093 30.1968 23.3165 25.2757 23.3165C23.1397 23.3165 20.1242 22.7927 18.0511 20.3207L17.8626 20.1112L21.1922 16.8851L21.4016 17.1783C22.2602 18.4981 23.747 19.2733 25.3804 19.2733C27.0557 19.2733 28.8147 18.3515 28.8147 16.6546C28.8147 14.8111 27.0766 14.2455 24.8778 13.5332C22.0927 12.6533 18.6584 11.5221 18.6584 7.03893ZM18.6584 7.03893C18.6584 2.36726 22.7628 0.272343 26.8253 0.272343C28.6053 0.272343 31.1601 0.670377 33.1495 2.55581L33.3798 2.7653L30.1549 6.15906L29.9455 5.86578C29.2545 4.88116 27.9352 4.31554 26.4484 4.31554C24.8988 4.31554 23.2444 4.96496 23.2444 6.7666C23.2444 8.29589 24.6894 8.84057 27.0347 9.59474C29.8618 10.4956 33.3798 11.6478 33.3798 16.1937C33.3798 20.5093 30.1968 23.3165 25.2757 23.3165C23.1397 23.3165 20.1242 22.7927 18.0511 20.3207L17.8626 20.1112L21.1922 16.8851L21.4016 17.1783C22.2602 18.4981 23.747 19.2733 25.3804 19.2733C27.0557 19.2733 28.8147 18.3515 28.8147 16.6546C28.8147 14.8111 27.0766 14.2455 24.8778 13.5332C22.0927 12.6533 18.6584 11.5221 18.6584 7.03893ZM16.0617 0.712272V4.75547H4.39759V9.40619H15.245V13.4494H4.39759V18.6448H16.6062V22.688H0V0.712272H15.7685H16.0617ZM16.0617 0.712272V4.75547H4.39759V9.40619H15.245V13.4494H4.39759V18.6448H16.6062V22.688H0V0.712272H15.7685H16.0617ZM108.956 0.712272H108.662V22.667H113.06V15.67C113.521 15.67 115.447 15.6491 115.699 15.6491C115.866 15.9214 120.306 22.688 120.306 22.688H125.646C125.646 22.688 120.599 15.67 120.18 15.0625C123.237 13.9731 124.64 10.7888 124.64 8.17019C124.64 3.70801 120.368 0.733222 116.39 0.733222H108.956V0.712272ZM116.034 4.58787C117.541 4.58787 120.054 5.04876 120.054 8.14924C120.054 10.6631 118.672 11.8363 115.72 11.8363H113.06V4.60882H116.034V4.58787Z" fill="white"/>
<path d="M5.57327 43.6468C4.56377 43.6468 3.7085 43.4225 3.00746 42.9738C2.32044 42.5112 1.80167 41.8942 1.45115 41.1231C1.11465 40.3379 0.946404 39.4616 0.946404 38.4942C0.946404 37.5268 1.11465 36.6575 1.45115 35.8863C1.80167 35.1012 2.32044 34.4842 3.00746 34.0356C3.7085 33.5729 4.56377 33.3415 5.57327 33.3415C7.11556 33.3415 8.13206 33.5869 8.62279 34.0776C8.86115 34.316 9.00836 34.6104 9.06445 34.9609C9.12053 35.2974 9.14857 35.9144 9.14857 36.8117H8.72795C8.67187 35.9424 8.39846 35.2904 7.90773 34.8558C7.417 34.4071 6.77906 34.1828 5.99389 34.1828C4.98439 34.1828 4.22026 34.5824 3.70149 35.3816C3.19674 36.1808 2.94437 37.2183 2.94437 38.4942C2.94437 39.7701 3.19674 40.8076 3.70149 41.6068C4.22026 42.406 4.98439 42.8056 5.99389 42.8056C6.70895 42.8056 7.29783 42.6724 7.76051 42.406C8.2232 42.1256 8.65083 41.6979 9.04342 41.1231L9.46404 41.4386C9.00135 42.2237 8.45454 42.7916 7.82361 43.1421C7.19267 43.4786 6.44256 43.6468 5.57327 43.6468ZM15.7397 43.6468C14.7863 43.6468 13.9591 43.4225 13.258 42.9738C12.557 42.5112 12.0242 41.8872 11.6597 41.1021C11.2951 40.3169 11.1129 39.4476 11.1129 38.4942C11.1129 37.5408 11.2951 36.6715 11.6597 35.8863C12.0242 35.1012 12.557 34.4842 13.258 34.0356C13.9591 33.5729 14.7863 33.3415 15.7397 33.3415C16.6931 33.3415 17.5204 33.5729 18.2214 34.0356C18.9224 34.4842 19.4552 35.1012 19.8198 35.8863C20.1843 36.6715 20.3666 37.5408 20.3666 38.4942C20.3666 39.4476 20.1843 40.3169 19.8198 41.1021C19.4552 41.8872 18.9224 42.5112 18.2214 42.9738C17.5204 43.4225 16.6931 43.6468 15.7397 43.6468ZM15.7397 42.8056C16.2585 42.8056 16.7142 42.6163 17.1067 42.2377C17.5133 41.8592 17.8218 41.3404 18.0321 40.6814C18.2565 40.0225 18.3686 39.2934 18.3686 38.4942C18.3686 37.695 18.2565 36.9659 18.0321 36.3069C17.8218 35.648 17.5133 35.1292 17.1067 34.7506C16.7142 34.3721 16.2585 34.1828 15.7397 34.1828C15.2209 34.1828 14.7583 34.3721 14.3517 34.7506C13.9591 35.1292 13.6506 35.648 13.4263 36.3069C13.216 36.9659 13.1108 37.695 13.1108 38.4942C13.1108 39.2934 13.216 40.0225 13.4263 40.6814C13.6506 41.3404 13.9591 41.8592 14.3517 42.2377C14.7583 42.6163 15.2209 42.8056 15.7397 42.8056ZM23.0012 36.0756C23.0012 35.3605 22.9031 34.8348 22.7068 34.4983C22.5105 34.1477 22.1179 33.9725 21.529 33.9725H21.3187V33.5519H23.0012C23.534 33.5519 23.9336 33.629 24.2 33.7832C24.4804 33.9234 24.6767 34.1618 24.7889 34.4983H24.894C25.1464 34.1758 25.4829 33.9024 25.9035 33.678C26.3382 33.4537 26.8429 33.3415 27.4178 33.3415C27.9786 33.3415 28.3992 33.4467 28.6797 33.657C28.918 33.8393 29.1634 34.1548 29.4157 34.6034L28.5745 35.2344C28.4203 35.024 28.1959 34.8698 27.9015 34.7717C27.6071 34.6595 27.2706 34.6034 26.892 34.6034C26.4714 34.6034 26.0858 34.7016 25.7353 34.8979C25.3848 35.0801 25.1044 35.3325 24.894 35.655V43.4365H23.0012V36.0756ZM31.5075 36.0756C31.5075 35.3605 31.4094 34.8348 31.2131 34.4983C31.0168 34.1477 30.6242 33.9725 30.0353 33.9725H29.6147V33.5519H31.5075C32.0403 33.5519 32.4399 33.629 32.7063 33.7832C32.9867 33.9234 33.183 34.1618 33.2952 34.4983H33.4003C33.6527 34.1758 34.0102 33.9024 34.4729 33.678C34.9356 33.4537 35.5245 33.3415 36.2396 33.3415C37.4453 33.3415 38.3777 33.8323 39.0367 34.8137C39.6957 35.7812 40.0252 37.008 40.0252 38.4942C40.0252 39.9944 39.6817 41.2282 38.9946 42.1957C38.3216 43.1631 37.3332 43.6468 36.0292 43.6468C35.4964 43.6468 35.0268 43.5908 34.6201 43.4786C34.2135 43.3664 33.8069 43.2122 33.4003 43.0159V47.4325H31.5075V36.0756ZM35.3983 42.8056C36.2956 42.8056 36.9546 42.413 37.3752 41.6278C37.8099 40.8427 38.0272 39.7981 38.0272 38.4942C38.0272 37.2043 37.8239 36.1667 37.4173 35.3816C37.0107 34.5824 36.4078 34.1828 35.6086 34.1828C34.6692 34.1828 33.9331 34.6034 33.4003 35.4447V42.1747C33.821 42.3709 34.1855 42.5252 34.494 42.6373C34.8024 42.7495 35.1039 42.8056 35.3983 42.8056ZM46.5677 43.6468C45.6143 43.6468 44.787 43.4225 44.086 42.9738C43.385 42.5112 42.8522 41.8872 42.4876 41.1021C42.1231 40.3169 41.9408 39.4476 41.9408 38.4942C41.9408 37.5408 42.1231 36.6715 42.4876 35.8863C42.8522 35.1012 43.385 34.4842 44.086 34.0356C44.787 33.5729 45.6143 33.3415 46.5677 33.3415C47.5211 33.3415 48.3483 33.5729 49.0494 34.0356C49.7504 34.4842 50.2832 35.1012 50.6477 35.8863C51.0123 36.6715 51.1945 37.5408 51.1945 38.4942C51.1945 39.4476 51.0123 40.3169 50.6477 41.1021C50.2832 41.8872 49.7504 42.5112 49.0494 42.9738C48.3483 43.4225 47.5211 43.6468 46.5677 43.6468ZM46.5677 42.8056C47.0864 42.8056 47.5421 42.6163 47.9347 42.2377C48.3413 41.8592 48.6498 41.3404 48.8601 40.6814C49.0844 40.0225 49.1966 39.2934 49.1966 38.4942C49.1966 37.695 49.0844 36.9659 48.8601 36.3069C48.6498 35.648 48.3413 35.1292 47.9347 34.7506C47.5421 34.3721 47.0864 34.1828 46.5677 34.1828C46.0489 34.1828 45.5862 34.3721 45.1796 34.7506C44.787 35.1292 44.4786 35.648 44.2542 36.3069C44.0439 36.9659 43.9388 37.695 43.9388 38.4942C43.9388 39.2934 44.0439 40.0225 44.2542 40.6814C44.4786 41.3404 44.787 41.8592 45.1796 42.2377C45.5862 42.6163 46.0489 42.8056 46.5677 42.8056ZM53.8292 36.0756C53.8292 35.3605 53.731 34.8348 53.5348 34.4983C53.3385 34.1477 52.9459 33.9725 52.357 33.9725H52.1467V33.5519H53.8292C54.362 33.5519 54.7616 33.629 55.028 33.7832C55.3084 33.9234 55.5047 34.1618 55.6168 34.4983H55.722C55.9744 34.1758 56.3109 33.9024 56.7315 33.678C57.1661 33.4537 57.6709 33.3415 58.2457 33.3415C58.8066 33.3415 59.2272 33.4467 59.5076 33.657C59.746 33.8393 59.9913 34.1548 60.2437 34.6034L59.4025 35.2344C59.2482 35.024 59.0239 34.8698 58.7295 34.7717C58.435 34.6595 58.0985 34.6034 57.72 34.6034C57.2993 34.6034 56.9138 34.7016 56.5633 34.8979C56.2127 35.0801 55.9323 35.3325 55.722 35.655V43.4365H53.8292V36.0756ZM64.3755 43.6468C63.9269 43.6468 63.4712 43.5557 63.0085 43.3734C62.5458 43.1771 62.1462 42.8617 61.8097 42.427C61.4872 41.9924 61.326 41.4175 61.326 40.7025C61.326 39.6369 61.8167 38.8798 62.7982 38.4311C63.7937 37.9824 65.0906 37.7581 66.6889 37.7581H67.3199C67.3199 36.3841 67.1306 35.4447 66.752 34.9399C66.3735 34.4352 65.8267 34.1828 65.1116 34.1828C64.4807 34.1828 63.9759 34.316 63.5974 34.5824C63.2188 34.8488 62.9524 35.3115 62.7982 35.9704H61.8518C61.8518 35.4937 61.8798 35.1222 61.9359 34.8558C61.992 34.5754 62.1392 34.316 62.3776 34.0776C62.6299 33.8253 63.0435 33.643 63.6184 33.5308C64.2073 33.4046 64.8452 33.3415 65.5322 33.3415C66.6679 33.3415 67.5652 33.65 68.2242 34.2669C68.8832 34.8698 69.2127 36.0335 69.2127 37.7581V43.4365H68.1611L67.425 42.4901H67.3199C67.0675 42.8126 66.696 43.086 66.2052 43.3103C65.7145 43.5347 65.1046 43.6468 64.3755 43.6468ZM65.3219 42.7004C65.7846 42.7004 66.1702 42.5883 66.4786 42.3639C66.7871 42.1396 67.0675 41.8311 67.3199 41.4386V38.5993H66.6889C65.6514 38.5993 64.8312 38.7956 64.2283 39.1882C63.6254 39.5668 63.324 40.0715 63.324 40.7025C63.324 41.3474 63.5132 41.8452 63.8918 42.1957C64.2844 42.5322 64.7611 42.7004 65.3219 42.7004ZM75.0687 43.6468C74.2836 43.6468 73.6667 43.4225 73.218 42.9738C72.7693 42.5252 72.545 41.8382 72.545 40.9128V34.3931H71.0728V33.5519H72.545V31.6591L73.5965 30.3972H74.4378V33.5519H76.9615V34.3931H74.4378V40.9128C74.4378 42.1747 74.9285 42.8056 75.91 42.8056C76.2465 42.8056 76.5269 42.7705 76.7512 42.7004C76.9896 42.6303 77.2349 42.5252 77.4873 42.385L77.6976 42.8056C77.3752 43.0439 77.0176 43.2472 76.625 43.4155C76.2325 43.5697 75.7137 43.6468 75.0687 43.6468ZM83.1004 43.6468C82.1469 43.6468 81.3407 43.4225 80.6818 42.9738C80.0228 42.5112 79.525 41.8942 79.1885 41.1231C78.852 40.3379 78.6838 39.4616 78.6838 38.4942C78.6838 37.5408 78.852 36.6715 79.1885 35.8863C79.525 35.1012 80.0088 34.4842 80.6397 34.0356C81.2847 33.5729 82.0348 33.3415 82.89 33.3415C84.3061 33.3415 85.3577 33.7411 86.0447 34.5403C86.7458 35.3255 87.0963 36.4682 87.0963 37.9684L87.0542 38.8097H80.6818C80.6818 39.9874 80.9341 40.9478 81.4389 41.6909C81.9436 42.434 82.6377 42.8056 83.521 42.8056C84.18 42.8056 84.7338 42.6654 85.1824 42.385C85.6451 42.1045 86.0728 41.6839 86.4653 41.1231L86.886 41.4386C86.4233 42.2097 85.8835 42.7705 85.2666 43.1211C84.6497 43.4716 83.9276 43.6468 83.1004 43.6468ZM85.0983 37.9684C85.0983 36.7346 84.916 35.7952 84.5515 35.1502C84.187 34.5053 83.6331 34.1828 82.89 34.1828C82.4694 34.1828 82.0909 34.351 81.7544 34.6875C81.4179 35.01 81.1515 35.4587 80.9552 36.0335C80.7729 36.6084 80.6818 37.2534 80.6818 37.9684H85.0983Z" fill="white"/>
<path d="M148.417 9.06174C147.996 9.06174 147.659 8.93555 147.407 8.68318C147.169 8.41678 147.049 8.05224 147.049 7.58956C147.049 5.865 147.821 4.56807 149.363 3.69878L149.573 4.01425C149.012 4.39281 148.592 4.81344 148.311 5.27612C148.031 5.72479 147.891 6.25057 147.891 6.85346L148.522 6.64315C148.844 6.64315 149.118 6.75532 149.342 6.97965C149.566 7.20398 149.678 7.47739 149.678 7.79987C149.678 8.16441 149.559 8.46586 149.321 8.70421C149.083 8.94256 148.781 9.06174 148.417 9.06174ZM130.056 37.9484C130.799 37.2334 131.367 36.6936 131.76 36.329C133.148 34.9971 134.164 33.9806 134.809 33.2795C135.454 32.5785 135.959 31.8564 136.324 31.1133C136.702 30.3702 136.891 29.564 136.891 28.6947C136.891 27.6852 136.625 26.9071 136.092 26.3602C135.573 25.8134 134.929 25.54 134.157 25.54C133.302 25.54 132.559 25.8485 131.928 26.4654C131.311 27.0823 130.898 27.9656 130.687 29.1153H130.267C130.267 28.4143 130.295 27.8605 130.351 27.4539C130.407 27.0332 130.547 26.6757 130.771 26.3813C131.164 25.9046 131.725 25.505 132.454 25.1825C133.197 24.86 133.975 24.6988 134.788 24.6988C135.896 24.6988 136.87 24.9932 137.712 25.5821C138.567 26.1569 138.995 27.1945 138.995 28.6947C138.995 29.578 138.784 30.4052 138.364 31.1764C137.957 31.9475 137.424 32.6696 136.765 33.3426C136.12 34.0016 135.202 34.8569 134.01 35.9084C132.776 37.0161 131.949 37.7662 131.528 38.1588H136.26C137.116 38.1588 137.768 37.9765 138.216 37.6119C138.665 37.2474 138.889 36.6936 138.889 35.9505H139.31V37.3175C139.31 38.4392 138.714 39 137.522 39H130.056V37.9484ZM146.487 39.4206C143.122 39.4206 141.44 36.967 141.44 32.0597C141.44 27.1524 143.122 24.6988 146.487 24.6988C149.852 24.6988 151.535 27.1524 151.535 32.0597C151.535 36.967 149.852 39.4206 146.487 39.4206ZM146.487 38.5794C147.245 38.5794 147.833 38.348 148.254 37.8853C148.689 37.4227 148.99 36.7216 149.158 35.7822C149.341 34.8288 149.432 33.588 149.432 32.0597C149.432 30.5314 149.341 29.2976 149.158 28.3582C148.99 27.4048 148.689 26.6967 148.254 26.2341C147.833 25.7714 147.245 25.54 146.487 25.54C145.73 25.54 145.134 25.7714 144.7 26.2341C144.279 26.6967 143.978 27.4048 143.795 28.3582C143.627 29.2976 143.543 30.5314 143.543 32.0597C143.543 33.588 143.627 34.8288 143.795 35.7822C143.978 36.7216 144.279 37.4227 144.7 37.8853C145.134 38.348 145.73 38.5794 146.487 38.5794Z" fill="white"/>
</svg>
