<svg width="161" height="82" viewBox="0 0 161 82" fill="none" xmlns="http://www.w3.org/2000/svg">
<path d="M10.3626 10.2843C12.3488 9.89568 14.2702 9.59344 16.1268 9.37755C17.9834 9.11849 20.0991 8.98896 22.4739 8.98896C25.9713 8.98896 28.8426 9.52868 31.0878 10.6081C33.3762 11.6444 35.0817 13.0261 36.2043 14.7532C37.327 16.4371 37.8883 18.2505 37.8883 20.1935C37.8883 23.1296 37.0679 25.5259 35.4272 27.3826C33.7864 29.196 31.3685 30.5777 28.1733 31.5276C30.5913 32.4343 32.5774 33.7297 34.1318 35.4136C35.6862 37.0975 36.4634 39.278 36.4634 41.955C36.4634 45.0638 35.5351 47.6544 33.6785 49.7269C31.8218 51.7995 29.3607 53.3538 26.2951 54.3901C23.2727 55.3832 19.9912 55.8797 16.4506 55.8797C13.385 55.8797 10.708 55.6423 8.41962 55.1673C6.13121 54.7355 4.2314 54.2822 2.72018 53.8072L10.3626 10.2843ZM22.2148 13.8464C20.8763 13.8464 19.6889 13.8896 18.6527 13.976C17.6164 14.0623 16.6665 14.1918 15.803 14.3646L13.1476 29.3256H19.4946C23.6829 29.3256 26.7916 28.5052 28.821 26.8644C30.8503 25.1805 31.865 23.2375 31.865 21.0355C31.865 19.0061 31.0446 17.3006 29.4039 15.9189C27.8063 14.5373 25.41 13.8464 22.2148 13.8464ZM12.3056 34.1183L9.58541 49.8565C11.8738 50.461 14.3133 50.7632 16.904 50.7632C21.1354 50.7632 24.3953 49.9644 26.6837 48.3668C29.0153 46.7261 30.1811 44.6536 30.1811 42.1493C30.1811 40.6812 29.7709 39.3427 28.9505 38.1338C28.1302 36.9248 26.8132 35.9533 24.9998 35.2193C23.2295 34.4853 20.8763 34.1183 17.9403 34.1183H12.3056ZM50.6594 9.76615H77.5374L76.6306 15.077H55.8407L53.4443 28.8722H71.255L70.3483 34.0535H52.5376L49.7526 49.7917H70.4778L69.5711 55.1025H42.6931L50.6594 9.76615ZM100.076 43.6389C100.076 42.4299 99.8165 41.3289 99.2983 40.3358C98.8234 39.3427 97.9382 38.3281 96.6429 37.2918C95.3476 36.2124 93.491 35.0034 91.073 33.6649C87.7052 31.7651 85.3088 29.8869 83.884 28.0302C82.5023 26.1736 81.8114 23.7988 81.8114 20.906C81.8114 18.488 82.4375 16.3939 83.6897 14.6236C84.985 12.8533 86.7769 11.4717 89.0653 10.4786C91.3537 9.4855 93.9875 8.98896 96.9667 8.98896C99.6869 8.98896 102.148 9.33438 104.35 10.0252C106.552 10.6729 108.603 11.558 110.503 12.6806L107.329 17.7324C105.775 16.7393 104.134 15.9189 102.407 15.2713C100.723 14.6236 98.737 14.2998 96.4486 14.2998C93.9011 14.2998 91.8502 14.8611 90.2958 15.9837C88.7414 17.0631 87.9642 18.488 87.9642 20.2583C87.9642 21.8559 88.504 23.2807 89.5834 24.5329C90.706 25.7418 92.7569 27.1451 95.7362 28.7427C98.5859 30.2539 100.766 31.7435 102.278 33.2115C103.832 34.6364 104.89 36.1476 105.451 37.7452C106.056 39.3427 106.358 41.113 106.358 43.056C106.358 45.6898 105.667 47.9782 104.285 49.9212C102.947 51.821 101.069 53.2891 98.6507 54.3253C96.2327 55.3616 93.4262 55.8797 90.2311 55.8797C87.1223 55.8797 84.3157 55.4695 81.8114 54.6492C79.3071 53.7856 77.1051 52.5982 75.2053 51.087L79.2208 46.1C80.6888 47.4385 82.3943 48.518 84.3373 49.3383C86.3235 50.1155 88.504 50.5041 90.8787 50.5041C93.6853 50.5041 95.9089 49.8996 97.5496 48.6907C99.2336 47.4385 100.076 45.7546 100.076 43.6389ZM115.947 9.76615H149.95L148.978 15.2065H135.053L128.059 55.1025H121.906L128.901 15.2065H114.976L115.947 9.76615Z" fill="white"/>
<path d="M20.844 6.17471L20.3606 7.42645H18.4267L21.532 0.109375H23.273L26.3666 7.425H24.4328L23.9391 6.17326L20.844 6.17471ZM22.3923 2.21887L21.4458 4.63512H23.3373L22.3923 2.21887Z" fill="#D13338"/>
<path d="M28.487 7.42633H26.6714V0.157227H28.487V7.42633Z" fill="#D13338"/>
<path d="M35.7654 7.42633H34.3691L30.8636 3.43703V7.42633H29.051V0.157204H30.4357L33.9601 4.25263V0.154297H35.7654V7.42633Z" fill="#D13338"/>
<path d="M13.9629 5.31976V7.42635H12.1474V0.157227H15.3389C17.1544 0.157227 18.3682 1.14147 18.3682 2.71305C18.3781 3.18297 18.2516 3.64577 18.0039 4.04596C17.7563 4.44616 17.3979 4.76677 16.9718 4.96939L18.8516 7.42926H16.6709L15.092 5.31976H13.9629ZM15.3067 3.69438C16.0049 3.69438 16.5526 3.30912 16.5526 2.71014C16.5526 2.11117 16.0049 1.74771 15.3067 1.74771H13.9629V3.69438H15.3067Z" fill="#D13338"/>
<path d="M9.8272 4.66536C9.57451 5.42425 8.96544 5.88657 8.09345 5.88657C6.90013 5.88657 6.07342 4.99828 6.07342 3.79016C6.07342 2.58203 6.90013 1.69375 8.09345 1.69375C8.96982 1.69375 9.57305 2.15606 9.8272 2.9135H11.726C11.3959 1.16892 10.001 0.00585938 8.10513 0.00585938C5.90253 0.00585938 4.23743 1.60506 4.23743 3.7858C4.23743 5.96653 5.90253 7.56574 8.10513 7.56574C10.0039 7.56574 11.3959 6.40268 11.726 4.65809L9.8272 4.66536Z" fill="#D13338"/>
<path d="M40.8245 0.00436142C39.1112 0.00436142 37.9339 0.920268 37.9339 2.36973C37.9339 3.52115 38.6087 4.19136 40.043 4.50103L41.2422 4.76126C41.863 4.87902 42.0134 5.13489 42.0134 5.37913C42.0134 5.77457 41.6599 6.01882 40.991 6.01882C40.1336 6.01882 39.5771 5.63501 39.4602 5.00114H37.6403C37.8112 6.79079 39.2894 7.55841 40.9267 7.55841C42.7466 7.55841 43.9458 6.65268 43.9458 5.20322C43.9458 3.95584 43.0782 3.42375 41.7549 3.13589L40.7324 2.90182C40.1876 2.78407 39.8984 2.61106 39.8984 2.21853C39.8984 1.7504 40.3147 1.49162 40.9369 1.49162C41.6745 1.49162 42.0178 1.86525 42.1142 2.40753H43.9341C43.7515 0.457953 41.9959 0 40.8186 0" fill="#D13338"/>
<path d="M36.6911 1.5624C36.5397 1.5098 36.4085 1.41151 36.3158 1.28122C36.2231 1.15093 36.1736 0.995123 36.174 0.835485C36.1883 0.608334 36.2894 0.395233 36.4565 0.239885C36.6236 0.0845363 36.8441 -0.001287 37.0727 1.45911e-05C37.3014 0.00131619 37.5209 0.0896441 37.6862 0.246885C37.8515 0.404126 37.9501 0.618363 37.9618 0.845662C37.9618 1.05211 37.9516 1.1815 37.6697 1.66563L37.0738 2.65424H36.1799L36.6911 1.5624Z" fill="#D13338"/>
<path d="M54.5026 4.8676H55.2957C54.9422 6.46681 53.613 7.5659 51.8238 7.5659C51.3246 7.5702 50.8295 7.47525 50.3676 7.28663C49.9057 7.09801 49.4863 6.81951 49.134 6.46745C48.7816 6.1154 48.5035 5.69688 48.3157 5.23642C48.128 4.77596 48.0345 4.28284 48.0408 3.78596C48.0343 3.28902 48.1277 2.7958 48.3153 2.33526C48.503 1.87471 48.7812 1.45611 49.1335 1.10402C49.4859 0.751923 49.9054 0.47343 50.3674 0.284879C50.8293 0.0963279 51.3245 0.00151778 51.8238 0.00601198C53.613 0.00601198 54.9422 1.10365 55.2957 2.70431H54.5026C54.1914 1.50927 53.1953 0.730017 51.8238 0.730017C50.1309 0.730017 48.812 2.03846 48.812 3.78305C48.812 5.52764 50.1265 6.83608 51.8238 6.83608C53.1953 6.8419 54.1914 6.06991 54.5026 4.8676Z" fill="white"/>
<path d="M63.0552 7.41721H62.2942V4.17953H57.886V7.42157H57.1251V0.164062H57.886V3.48024H62.2898V0.164062H63.0552V7.41721Z" fill="white"/>
<path d="M66.0033 7.41717H65.2455V0.164062H66.0047L66.0033 7.41717Z" fill="white"/>
<path d="M74.373 4.8676H75.1662C74.8112 6.46681 73.4835 7.5659 71.6943 7.5659C71.195 7.5702 70.7 7.47525 70.2381 7.28663C69.7762 7.09801 69.3568 6.81951 69.0045 6.46745C68.6521 6.1154 68.3739 5.69688 68.1862 5.23642C67.9985 4.77596 67.905 4.28284 67.9113 3.78596C67.9048 3.28902 67.9982 2.7958 68.1858 2.33526C68.3735 1.87471 68.6516 1.45611 69.004 1.10402C69.3564 0.751923 69.7759 0.47343 70.2379 0.284879C70.6998 0.0963279 71.195 0.00151778 71.6943 0.00601198C73.4835 0.00601198 74.8112 1.10365 75.1662 2.70431H74.373C74.0619 1.50927 73.0658 0.730017 71.6943 0.730017C70.0014 0.730017 68.6825 2.03846 68.6825 3.78305C68.6825 5.52764 69.997 6.83608 71.6943 6.83608C73.0658 6.8419 74.0619 6.06991 74.373 4.8676Z" fill="white"/>
<path d="M77.5565 5.30533L76.6144 7.41772H75.7993L79.1106 0.109375H79.8292L83.1389 7.41772H82.3254L81.3818 5.30533H77.5565ZM79.464 1.01801L77.8676 4.61621H81.0707L79.464 1.01801Z" fill="white"/>
<path d="M90.9616 3.79045V7.425H90.3408L90.2766 5.87814C89.7624 6.89581 88.8159 7.57329 87.4473 7.57329C86.953 7.57832 86.4626 7.48532 86.0048 7.29969C85.547 7.11407 85.1308 6.83956 84.7807 6.49216C84.4306 6.14476 84.1535 5.73145 83.9656 5.27632C83.7777 4.8212 83.6827 4.33338 83.6863 3.84134C83.6788 3.33966 83.7723 2.84157 83.9611 2.37638C84.15 1.91119 84.4304 1.48829 84.7859 1.13256C85.1414 0.776841 85.5647 0.495477 86.0311 0.305029C86.4974 0.114581 86.9973 0.0188959 87.5014 0.0236031C89.0978 0.0236031 90.5541 0.961317 90.9514 2.56052H90.1363C89.7726 1.36693 88.648 0.747606 87.5072 0.747606C85.7925 0.747606 84.4531 2.05604 84.4531 3.84134C84.4466 4.23491 84.5196 4.62577 84.6676 4.99077C84.8157 5.35576 85.0359 5.68745 85.3151 5.96619C85.5943 6.24494 85.9269 6.46505 86.2932 6.6135C86.6594 6.76194 87.0519 6.8357 87.4473 6.83039C89.0014 6.83039 89.9757 5.74293 90.1685 4.31383H87.3831V3.62036H90.9733L90.9528 3.79045H90.9616Z" fill="white"/>
<path d="M100.323 3.78971C100.323 4.53731 100.1 5.26812 99.6826 5.88973C99.2653 6.51133 98.6722 6.99582 97.9783 7.28191C97.2844 7.568 96.5208 7.64286 95.7841 7.49701C95.0475 7.35116 94.3708 6.99116 93.8397 6.46252C93.3086 5.93389 92.9469 5.26037 92.8004 4.52714C92.6539 3.79391 92.7291 3.03389 93.0165 2.3432C93.3039 1.6525 93.7907 1.06216 94.4152 0.646816C95.0397 0.231473 95.7739 0.00978363 96.525 0.00978363C97.0242 0.00824786 97.5187 0.10497 97.9801 0.294386C98.4416 0.483801 98.8608 0.76217 99.2138 1.11347C99.5667 1.46478 99.8464 1.88209 100.037 2.34138C100.227 2.80068 100.324 3.29289 100.323 3.78971V3.78971ZM99.5514 3.78971C99.5603 3.38846 99.4885 2.9895 99.3404 2.61623C99.1922 2.24295 98.9707 1.90289 98.6887 1.616C98.4067 1.32911 98.07 1.10116 97.6983 0.945542C97.3267 0.78992 96.9275 0.709757 96.5243 0.709757C96.1211 0.709757 95.7219 0.78992 95.3502 0.945542C94.9786 1.10116 94.6419 1.32911 94.3599 1.616C94.0779 1.90289 93.8563 2.24295 93.7082 2.61623C93.5601 2.9895 93.4883 3.38846 93.4972 3.78971C93.4883 4.19096 93.5601 4.58992 93.7082 4.9632C93.8563 5.33647 94.0779 5.67653 94.3599 5.96342C94.6419 6.25032 94.9786 6.47826 95.3502 6.63388C95.7219 6.7895 96.1211 6.86967 96.5243 6.86967C96.9275 6.86967 97.3267 6.7895 97.6983 6.63388C98.07 6.47826 98.4067 6.25032 98.6887 5.96342C98.9707 5.67653 99.1922 5.33647 99.3404 4.9632C99.4885 4.58992 99.5603 4.19096 99.5514 3.78971V3.78971Z" fill="white"/>
<path d="M111.56 5.44434C111.56 6.6263 110.509 7.41717 108.891 7.41717H105.742V0.164062H108.828C110.274 0.164062 111.184 0.879342 111.184 1.98715C111.197 2.36962 111.078 2.74488 110.845 3.04988C110.613 3.35488 110.283 3.57101 109.909 3.66196C111.013 3.85386 111.56 4.52698 111.56 5.44434ZM106.503 3.40899H108.627C109.805 3.40899 110.46 2.90742 110.46 2.07584C110.46 1.3184 109.805 0.838635 108.755 0.838635H106.506L106.503 3.40899ZM108.871 6.75278C110.082 6.75278 110.809 6.17125 110.809 5.36729C110.809 4.56332 110.092 4.08792 108.891 4.08792H106.503V6.74406L108.871 6.75278Z" fill="white"/>
<path d="M119.25 4.33361C119.25 6.24247 118.005 7.57562 116.142 7.57562C114.278 7.57562 113.045 6.24247 113.045 4.33361V0.164062H113.806V4.33361C113.806 5.78743 114.738 6.87343 116.143 6.87343C117.548 6.87343 118.487 5.7787 118.487 4.33361V0.164062H119.25V4.33361Z" fill="white"/>
<path d="M126.459 2.12648H125.715C125.543 1.24111 124.9 0.672663 123.679 0.672663C122.575 0.672663 121.846 1.20476 121.846 2.04798C121.846 2.70946 122.372 3.11508 123.336 3.28518L124.44 3.49889C125.735 3.74458 126.464 4.35228 126.464 5.38885C126.464 6.71183 125.383 7.58557 123.753 7.58557C122.001 7.58557 120.894 6.67984 120.721 5.11408H121.471C121.653 6.2437 122.446 6.90518 123.786 6.90518C124.954 6.90518 125.693 6.33965 125.693 5.47608C125.693 4.86838 125.265 4.40898 124.322 4.23888L123.058 3.99319C121.713 3.74313 121.041 3.06419 121.041 2.08287C121.041 0.835491 122.081 0.00390625 123.623 0.00390625C125.097 0.00390625 126.277 0.697378 126.459 2.12648Z" fill="white"/>
<path d="M128.995 7.41717H128.236V0.164062H128.995V7.41717Z" fill="white"/>
<path d="M137.474 7.41717H136.817L132.06 1.5292V7.41717H131.299V0.164062H131.931L136.709 6.11455V0.164062H137.47L137.474 7.41717Z" fill="white"/>
<path d="M140.297 3.45987H144.167V4.16352H140.297V6.7237H144.594V7.41717H139.536V0.164062H144.594V0.857535H140.297V3.45987Z" fill="white"/>
<path d="M151.798 2.12672H151.048C150.876 1.24134 150.233 0.672896 149.012 0.672896C147.908 0.672896 147.179 1.20499 147.179 2.04821C147.179 2.7097 147.705 3.11532 148.669 3.28541L149.773 3.49912C151.069 3.74482 151.798 4.35252 151.798 5.38909C151.798 6.71207 150.715 7.58582 149.087 7.58582C147.334 7.58582 146.226 6.68008 146.055 5.11432H146.804C146.986 6.24394 147.78 6.90543 149.119 6.90543C150.287 6.90543 151.027 6.33989 151.027 5.47632C151.027 4.86862 150.599 4.40922 149.655 4.23912L148.392 3.99342C147.052 3.74918 146.376 3.07606 146.376 2.09473C146.376 0.847355 147.416 0.0157689 148.958 0.0157689C150.436 0.0041383 151.617 0.697611 151.798 2.12672Z" fill="white"/>
<path d="M158.58 2.12699H157.829C157.658 1.24161 157.014 0.673167 155.793 0.673167C154.688 0.673167 153.961 1.20527 153.961 2.04849C153.961 2.70998 154.485 3.11559 155.449 3.28569L156.554 3.4994C157.849 3.74365 158.58 4.34553 158.58 5.3792C158.58 6.70218 157.497 7.57593 155.869 7.57593C154.116 7.57593 153.007 6.6702 152.835 5.10443H153.586C153.767 6.23405 154.56 6.89554 155.899 6.89554C157.068 6.89554 157.807 6.33 157.807 5.46643C157.807 4.85873 157.379 4.39932 156.435 4.22922L155.172 3.98353C153.833 3.73928 153.156 3.06616 153.156 2.08483C153.156 0.837449 154.196 0.00586166 155.74 0.00586166C157.211 0.00440783 158.39 0.697882 158.58 2.12699Z" fill="white"/>
<rect x="120.355" y="25.4463" width="26.2911" height="9.59521" fill="#D13338"/>
<path d="M122.754 33.7889C123.112 33.4448 123.385 33.185 123.574 33.0096C124.242 32.3686 124.731 31.8794 125.041 31.5421C125.352 31.2047 125.595 30.8572 125.77 30.4996C125.952 30.142 126.043 29.754 126.043 29.3357C126.043 28.8499 125.915 28.4754 125.659 28.2123C125.409 27.9492 125.099 27.8176 124.728 27.8176C124.316 27.8176 123.959 27.966 123.655 28.2629C123.358 28.5598 123.159 28.9849 123.058 29.5381H122.855C122.855 29.2008 122.869 28.9342 122.896 28.7386C122.923 28.5362 122.99 28.3641 123.098 28.2224C123.287 27.993 123.557 27.8007 123.908 27.6455C124.266 27.4903 124.64 27.4127 125.031 27.4127C125.564 27.4127 126.033 27.5544 126.438 27.8378C126.85 28.1145 127.056 28.6138 127.056 29.3357C127.056 29.7608 126.954 30.1589 126.752 30.53C126.556 30.9011 126.3 31.2485 125.983 31.5724C125.672 31.8895 125.23 32.3011 124.657 32.8072C124.063 33.3402 123.665 33.7012 123.463 33.8901H125.74C126.151 33.8901 126.465 33.8024 126.681 33.6269C126.897 33.4515 127.005 33.185 127.005 32.8274H127.207V33.4853C127.207 34.025 126.921 34.2949 126.347 34.2949H122.754V33.7889ZM130.661 34.4973C129.042 34.4973 128.232 33.3166 128.232 30.955C128.232 28.5935 129.042 27.4127 130.661 27.4127C132.281 27.4127 133.09 28.5935 133.09 30.955C133.09 33.3166 132.281 34.4973 130.661 34.4973ZM130.661 34.0925C131.026 34.0925 131.309 33.9812 131.511 33.7585C131.721 33.5359 131.866 33.1985 131.947 32.7464C132.034 32.2876 132.078 31.6905 132.078 30.955C132.078 30.2196 132.034 29.6258 131.947 29.1738C131.866 28.715 131.721 28.3742 131.511 28.1516C131.309 27.9289 131.026 27.8176 130.661 27.8176C130.297 27.8176 130.01 27.9289 129.801 28.1516C129.599 28.3742 129.454 28.715 129.366 29.1738C129.285 29.6258 129.244 30.2196 129.244 30.955C129.244 31.6905 129.285 32.2876 129.366 32.7464C129.454 33.1985 129.599 33.5359 129.801 33.7585C130.01 33.9812 130.297 34.0925 130.661 34.0925ZM134.031 33.7889C134.389 33.4448 134.662 33.185 134.851 33.0096C135.519 32.3686 136.008 31.8794 136.319 31.5421C136.629 31.2047 136.872 30.8572 137.047 30.4996C137.23 30.142 137.321 29.754 137.321 29.3357C137.321 28.8499 137.192 28.4754 136.936 28.2123C136.686 27.9492 136.376 27.8176 136.005 27.8176C135.593 27.8176 135.236 27.966 134.932 28.2629C134.635 28.5598 134.436 28.9849 134.335 29.5381H134.133C134.133 29.2008 134.146 28.9342 134.173 28.7386C134.2 28.5362 134.268 28.3641 134.375 28.2224C134.564 27.993 134.834 27.8007 135.185 27.6455C135.543 27.4903 135.917 27.4127 136.309 27.4127C136.842 27.4127 137.311 27.5544 137.715 27.8378C138.127 28.1145 138.333 28.6138 138.333 29.3357C138.333 29.7608 138.232 30.1589 138.029 30.53C137.833 30.9011 137.577 31.2485 137.26 31.5724C136.95 31.8895 136.508 32.3011 135.934 32.8072C135.34 33.3402 134.942 33.7012 134.74 33.8901H137.017C137.429 33.8901 137.742 33.8024 137.958 33.6269C138.174 33.4515 138.282 33.185 138.282 32.8274H138.485V33.4853C138.485 34.025 138.198 34.2949 137.624 34.2949H134.031V33.7889ZM140.289 28.6272L139.307 29.2649L139.125 29.0321L140.694 27.6152H141.2V34.2949H140.289V28.6272Z" fill="white"/>
<path d="M4.54404 62.3814C4.54404 61.8136 4.46611 61.3962 4.31026 61.129C4.15441 60.8507 3.84271 60.7115 3.37516 60.7115H3.04119V60.3776H7.38275C8.45144 60.3776 9.41437 60.6058 10.2715 61.0622C11.1287 61.5186 11.5573 62.4036 11.5573 63.7172C11.5573 64.5855 11.3347 65.2535 10.8894 65.721C10.4441 66.1886 9.94315 66.5003 9.38654 66.6561C8.84106 66.812 8.34011 66.8899 7.88369 66.8899H6.04688V71.3984H4.54404V62.3814ZM7.29925 66.3055C7.65548 66.3055 8.03398 66.2164 8.43474 66.0383C8.8355 65.849 9.17503 65.554 9.45333 65.1533C9.74277 64.7525 9.88749 64.246 9.88749 63.6337C9.88749 63.0215 9.74277 62.5149 9.45333 62.1142C9.17503 61.7134 8.8355 61.424 8.43474 61.2459C8.03398 61.0566 7.65548 60.962 7.29925 60.962C6.90963 60.962 6.49217 61.0177 6.04688 61.129V66.1385C6.49217 66.2498 6.90963 66.3055 7.29925 66.3055ZM14.2584 62.3814C14.2584 61.8136 14.1805 61.3962 14.0246 61.129C13.8688 60.8507 13.5571 60.7115 13.0895 60.7115H12.7555V60.3776H14.2584C14.6703 60.3776 14.9764 60.4332 15.1768 60.5445C15.3883 60.6447 15.5386 60.834 15.6277 61.1123C15.7167 61.3906 15.7612 61.8136 15.7612 62.3814V70.7305H21.6891V71.3984H14.2584V62.3814ZM32.6869 71.4819C32.1526 71.4819 31.6238 71.3372 31.1006 71.0478C30.5774 70.7472 30.1599 70.1683 29.8482 69.3112L29.4307 68.2258H24.7552L23.4194 71.3984H22.6679L27.3435 60.3776H27.8444L31.518 69.3112C31.7963 69.9568 32.0579 70.4021 32.3029 70.647C32.5478 70.8808 32.8984 71.0199 33.3548 71.0645V71.3984C33.1545 71.4541 32.9318 71.4819 32.6869 71.4819ZM29.0968 67.5578L27.093 62.7153L25.0057 67.5578H29.0968ZM39.0839 71.7324C38.0486 71.7324 37.1358 71.4819 36.3454 70.981C35.5662 70.48 34.965 69.801 34.542 68.9438C34.119 68.0755 33.9075 67.1125 33.9075 66.055C33.9075 64.964 34.1357 63.9566 34.5921 63.0326C35.0596 62.1086 35.6886 61.3795 36.479 60.8451C37.2805 60.3108 38.1488 60.0436 39.0839 60.0436C39.9745 60.0436 40.7538 60.1716 41.4217 60.4277C42.1007 60.6726 42.6017 60.9898 42.9245 61.3795C43.1138 61.6132 43.2307 61.9249 43.2752 62.3146C43.3197 62.6931 43.342 63.2163 43.342 63.8842H43.008C42.7965 62.8044 42.4069 62.0084 41.8391 61.4964C41.2714 60.9731 40.52 60.7115 39.5849 60.7115C38.3826 60.7115 37.4141 61.1346 36.6794 61.9806C35.9446 62.8266 35.5773 64.1848 35.5773 66.055C35.5773 66.9344 35.7164 67.7526 35.9947 68.5096C36.2842 69.2666 36.7295 69.8845 37.3306 70.3631C37.9317 70.8307 38.6832 71.0645 39.5849 71.0645C40.3975 71.0645 41.1044 70.8697 41.7056 70.48C42.3178 70.0904 42.8633 69.506 43.342 68.7267L43.676 68.9772C43.1639 69.9791 42.5293 70.6915 41.7723 71.1146C41.0265 71.5265 40.1303 71.7324 39.0839 71.7324ZM46.5487 62.3814C46.5487 61.8136 46.4708 61.3962 46.3149 61.129C46.1591 60.8507 45.8474 60.7115 45.3798 60.7115H45.0459V60.3776H52.1593C53.1056 60.3776 53.5787 60.8229 53.5787 61.7134V62.9658H53.2447C53.2447 61.6856 52.549 61.0455 51.1574 61.0455H48.0516V65.3871H52.5601V66.055H48.0516V70.7305H50.9738C51.7419 70.7305 52.343 70.5914 52.7772 70.313C53.2113 70.0347 53.5564 69.5616 53.8125 68.8937L54.1464 68.9772L53.562 70.5635C53.3616 71.1201 52.9442 71.3984 52.3096 71.3984H46.5487V62.3814ZM59.8379 71.6823C59.2257 71.6823 58.6245 71.5988 58.0345 71.4318C57.4445 71.2649 56.9603 71.0255 56.5818 70.7138C56.2144 70.4021 56.0307 70.0459 56.0307 69.6451V67.8584H56.3313C56.5205 68.9716 56.8879 69.7787 57.4334 70.2797C57.9789 70.7695 58.7303 71.0144 59.6877 71.0144C60.2888 71.0144 60.8009 70.8641 61.2239 70.5635C61.6581 70.263 61.8751 69.8455 61.8751 69.3112C61.8751 68.8436 61.7304 68.4373 61.441 68.0922C61.1515 67.7471 60.684 67.3853 60.0383 67.0068L57.9844 65.7878C57.272 65.3648 56.7655 64.9362 56.4649 64.502C56.1754 64.0679 56.0307 63.5391 56.0307 62.9157C56.0307 62.0585 56.3257 61.3739 56.9157 60.8618C57.5169 60.3386 58.3017 60.077 59.2702 60.077C59.8379 60.077 60.4001 60.1605 60.9567 60.3275C61.5133 60.4833 61.9698 60.7171 62.326 61.0288C62.6933 61.3294 62.877 61.68 62.877 62.0808V63.8675H62.5765C62.3872 62.7543 62.0254 61.9583 61.4911 61.4797C60.9679 60.9898 60.2276 60.7449 59.2702 60.7449C58.7581 60.7449 58.3073 60.9008 57.9176 61.2125C57.528 61.5242 57.3332 61.9305 57.3332 62.4315C57.3332 62.8879 57.4723 63.2664 57.7507 63.5669C58.0401 63.8675 58.5188 64.2182 59.1867 64.6189L61.2406 65.8379C61.9976 66.2943 62.5319 66.7174 62.8436 67.107C63.1553 67.4966 63.3112 67.992 63.3112 68.5931C63.3112 69.5282 62.9995 70.2797 62.3761 70.8474C61.7527 71.404 60.9066 71.6823 59.8379 71.6823ZM71.981 61.0455C70.5895 61.0455 69.8937 61.6856 69.8937 62.9658H69.5597V61.7134C69.5597 60.8229 70.0329 60.3776 70.9791 60.3776H78.7438V61.0455H74.9867V71.3984H73.4838V61.0455H71.981ZM84.705 71.7324C83.6697 71.7324 82.7568 71.4764 81.9664 70.9643C81.1872 70.4522 80.586 69.7509 80.163 68.8603C79.74 67.9697 79.5285 66.979 79.5285 65.888C79.5285 64.797 79.74 63.8063 80.163 62.9157C80.586 62.0251 81.1872 61.3238 81.9664 60.8117C82.7568 60.2996 83.6697 60.0436 84.705 60.0436C85.7402 60.0436 86.6475 60.2996 87.4268 60.8117C88.2172 61.3238 88.8239 62.0251 89.2469 62.9157C89.6699 63.8063 89.8814 64.797 89.8814 65.888C89.8814 66.979 89.6699 67.9697 89.2469 68.8603C88.8239 69.7509 88.2172 70.4522 87.4268 70.9643C86.6475 71.4764 85.7402 71.7324 84.705 71.7324ZM84.705 71.0645C85.4285 71.0645 86.0519 70.853 86.5752 70.4299C87.1095 70.0069 87.5158 69.4113 87.7941 68.6432C88.0724 67.864 88.2116 66.9456 88.2116 65.888C88.2116 64.8304 88.0724 63.9176 87.7941 63.1495C87.5158 62.3702 87.1095 61.7691 86.5752 61.3461C86.0519 60.923 85.4285 60.7115 84.705 60.7115C83.9814 60.7115 83.3524 60.923 82.818 61.3461C82.2948 61.7691 81.8941 62.3702 81.6158 63.1495C81.3375 63.9176 81.1983 64.8304 81.1983 65.888C81.1983 66.9456 81.3375 67.864 81.6158 68.6432C81.8941 69.4113 82.2948 70.0069 82.818 70.4299C83.3524 70.853 83.9814 71.0645 84.705 71.0645ZM97.127 62.3313C96.9044 61.6856 96.6651 61.2459 96.409 61.0121C96.1641 60.7672 95.7912 60.6225 95.2902 60.5779V60.244C95.3459 60.244 95.4294 60.2384 95.5407 60.2273C95.6409 60.2162 95.7467 60.2106 95.858 60.2106C96.4702 60.2106 97.0213 60.3497 97.5111 60.628C98.0121 60.9063 98.4128 61.4741 98.7134 62.3313L100.951 68.7768L102.738 63.4834L102.337 62.3313C102.114 61.6856 101.875 61.2459 101.619 61.0121C101.374 60.7672 101.001 60.6225 100.5 60.5779V60.244C100.556 60.244 100.634 60.2384 100.734 60.2273C100.845 60.2162 100.957 60.2106 101.068 60.2106C101.68 60.2106 102.231 60.3497 102.721 60.628C103.222 60.9063 103.623 61.4741 103.923 62.3313L106.161 68.7768L109.016 60.3776H109.734L105.91 71.5654H105.576L103.105 64.5354L100.7 71.5654H100.367L97.127 62.3313ZM116.425 71.7324C115.389 71.7324 114.476 71.4764 113.686 70.9643C112.907 70.4522 112.306 69.7509 111.883 68.8603C111.46 67.9697 111.248 66.979 111.248 65.888C111.248 64.797 111.46 63.8063 111.883 62.9157C112.306 62.0251 112.907 61.3238 113.686 60.8117C114.476 60.2996 115.389 60.0436 116.425 60.0436C117.46 60.0436 118.367 60.2996 119.146 60.8117C119.937 61.3238 120.543 62.0251 120.966 62.9157C121.389 63.8063 121.601 64.797 121.601 65.888C121.601 66.979 121.389 67.9697 120.966 68.8603C120.543 69.7509 119.937 70.4522 119.146 70.9643C118.367 71.4764 117.46 71.7324 116.425 71.7324ZM116.425 71.0645C117.148 71.0645 117.772 70.853 118.295 70.4299C118.829 70.0069 119.235 69.4113 119.514 68.6432C119.792 67.864 119.931 66.9456 119.931 65.888C119.931 64.8304 119.792 63.9176 119.514 63.1495C119.235 62.3702 118.829 61.7691 118.295 61.3461C117.772 60.923 117.148 60.7115 116.425 60.7115C115.701 60.7115 115.072 60.923 114.538 61.3461C114.014 61.7691 113.614 62.3702 113.335 63.1495C113.057 63.9176 112.918 64.8304 112.918 65.888C112.918 66.9456 113.057 67.864 113.335 68.6432C113.614 69.4113 114.014 70.0069 114.538 70.4299C115.072 70.853 115.701 71.0645 116.425 71.0645ZM131.872 71.5654C131.282 71.5654 130.764 71.3929 130.319 71.0478C129.885 70.6915 129.4 70.057 128.866 69.1442L127.196 66.3055H126.027V71.3984H124.524V62.3814C124.524 61.8136 124.447 61.3962 124.291 61.129C124.135 60.8507 123.823 60.7115 123.356 60.7115H123.022V60.3776H127.363C128.421 60.3776 129.378 60.5891 130.235 61.0121C131.104 61.424 131.538 62.2144 131.538 63.3833C131.538 64.8638 130.647 65.8101 128.866 66.222L130.619 69.1442C131.031 69.8344 131.399 70.3186 131.721 70.5969C132.055 70.8641 132.439 71.0199 132.874 71.0645V71.3984C132.773 71.443 132.629 71.4819 132.439 71.5153C132.261 71.5487 132.072 71.5654 131.872 71.5654ZM127.28 65.721C127.625 65.721 127.998 65.6375 128.399 65.4705C128.81 65.3036 129.155 65.042 129.434 64.6857C129.723 64.3295 129.868 63.8953 129.868 63.3833C129.868 62.8378 129.723 62.3869 129.434 62.0307C129.155 61.6633 128.81 61.3962 128.399 61.2292C127.998 61.0511 127.625 60.962 127.28 60.962C126.89 60.962 126.473 61.0177 126.027 61.129V65.554C126.473 65.6654 126.89 65.721 127.28 65.721ZM143.556 71.5654C143.033 71.5654 142.487 71.4263 141.92 71.148C141.352 70.8585 140.701 70.3297 139.966 69.5616L136.459 65.888V71.3984H134.956V62.3814C134.956 61.8136 134.878 61.3962 134.723 61.129C134.567 60.8507 134.255 60.7115 133.787 60.7115H133.454V60.3776H134.956C135.368 60.3776 135.674 60.4332 135.875 60.5445C136.086 60.6447 136.237 60.834 136.326 61.1123C136.415 61.3906 136.459 61.8136 136.459 62.3814V65.6375L139.966 62.1309L140.3 61.7802C140.612 61.4574 140.873 61.2069 141.085 61.0288C141.296 60.8396 141.547 60.6837 141.836 60.5612C142.125 60.4388 142.448 60.3776 142.805 60.3776H143.639V60.795C143.172 60.795 142.766 60.8785 142.42 61.0455C142.075 61.2013 141.675 61.5075 141.218 61.9639L137.962 65.2201L141.803 69.2277C142.292 69.7286 142.788 70.1516 143.289 70.4967C143.79 70.8307 144.241 71.0255 144.641 71.0812V71.3984C144.307 71.5098 143.946 71.5654 143.556 71.5654Z" fill="white"/>
</svg>
