<svg width="150" height="70" viewBox="0 0 150 70" fill="none" xmlns="http://www.w3.org/2000/svg">
<path d="M5.56641 59.1279C5.56641 58.5756 6.01412 58.1279 6.56641 58.1279H10.5243C12.0522 58.1279 13.2761 58.4918 14.1062 59.1888C14.8237 59.7913 15.2317 60.6608 15.2317 61.7547V61.8162C15.2317 63.0118 14.7258 63.8938 13.9106 64.4964C13.3872 64.8833 13.137 65.6142 13.5044 66.1515L14.5252 67.6448C14.979 68.3085 14.5037 69.2092 13.6997 69.2092H12.9808C12.6467 69.2092 12.3347 69.0423 12.1492 68.7645L10.3119 66.0129C10.1264 65.7351 9.81436 65.5682 9.48026 65.5682H9.29858C8.7463 65.5682 8.29858 66.0159 8.29858 66.5682V68.2092C8.29858 68.7615 7.85087 69.2092 7.29858 69.2092H6.56641C6.01412 69.2092 5.56641 68.7615 5.56641 68.2092V59.1279ZM10.3161 63.5433C11.7229 63.5433 12.4658 62.877 12.4658 61.8894V61.8752C12.4658 60.7671 11.6554 60.2213 10.2598 60.2213H9.29014C8.73786 60.2213 8.29014 60.669 8.29014 61.2213V62.5529C8.29014 63.1088 8.74356 63.558 9.29947 63.5528L10.3161 63.5433Z" fill="#00539F"/>
<path fill-rule="evenodd" clip-rule="evenodd" d="M5.2627 58.8364C5.2627 58.2841 5.71041 57.8364 6.26269 57.8364H10.5247C12.0984 57.8364 13.4036 58.2109 14.3071 58.9695C15.0975 59.6333 15.5363 60.5861 15.5363 61.7547V61.8161C15.5363 62.7148 15.2678 63.4633 14.7931 64.0602C14.3929 64.5635 13.8555 64.9474 13.235 65.225L15.0885 67.9362C15.5422 68.6 15.067 69.5006 14.263 69.5006H12.8148C12.4807 69.5006 12.1686 69.3338 11.9831 69.0559L9.84895 65.8596H8.60314V68.5006C8.60314 69.0529 8.15542 69.5006 7.60314 69.5006H6.2627C5.71041 69.5006 5.2627 69.0529 5.2627 68.5006V58.8364ZM6.87096 58.4193C6.31868 58.4193 5.87096 58.8671 5.87096 59.4193V67.9177C5.87096 68.47 6.31867 68.9177 6.87096 68.9177H6.99487C7.54716 68.9177 7.99487 68.47 7.99487 67.9177V66.2767C7.99487 65.7244 8.44259 65.2767 8.99487 65.2767H9.64714C9.98124 65.2767 10.2933 65.4436 10.4788 65.7214L12.3173 68.4749C12.502 68.7516 12.8127 68.9177 13.1454 68.9177C13.9459 68.9177 14.4192 68.0209 13.9674 67.36L12.532 65.2603C12.4246 65.1033 12.4935 64.8872 12.672 64.8213C13.3578 64.568 13.9194 64.1971 14.3093 63.7069C14.697 63.2193 14.928 62.5974 14.928 61.8161V61.7547C14.928 60.7354 14.5508 59.9493 13.9062 59.408C13.1495 58.7726 12.0068 58.4193 10.5247 58.4193H6.87096ZM7.98643 60.9298C7.98643 60.3775 8.43415 59.9298 8.98643 59.9298H10.2602C10.9923 59.9298 11.6198 60.0719 12.0707 60.4008C12.5356 60.7397 12.7703 61.2459 12.7703 61.8752V61.8894C12.7703 62.4581 12.5533 62.9579 12.1141 63.3102C11.6817 63.657 11.0674 63.8345 10.318 63.8348L8.99576 63.8471C8.43985 63.8523 7.98643 63.4031 7.98643 62.8471V60.9298ZM8.5947 60.5127V63.2679L10.3165 63.2518C10.9733 63.2518 11.4332 63.0962 11.7237 62.8632C12.0077 62.6354 12.1621 62.3082 12.1621 61.8894V61.8752C12.1621 61.3964 11.9917 61.0756 11.7024 60.8646C11.3992 60.6436 10.9238 60.5127 10.2602 60.5127H8.5947Z" fill="#00539F"/>
<path d="M24.9106 59.1279C24.9106 58.5756 25.3584 58.1279 25.9106 58.1279H32.411C32.9633 58.1279 33.411 58.5756 33.411 59.1279V59.2024C33.411 59.7547 32.9633 60.2024 32.411 60.2024H28.6259C28.0736 60.2024 27.6259 60.6501 27.6259 61.2024V61.5935C27.6259 62.1458 28.0736 62.5935 28.6259 62.5935H31.716C32.2683 62.5935 32.716 63.0412 32.716 63.5935V63.6656C32.716 64.2179 32.2683 64.6656 31.716 64.6656H28.6259C28.0736 64.6656 27.6259 65.1134 27.6259 65.6656V66.1371C27.6259 66.6894 28.0736 67.1371 28.6259 67.1371H32.487C33.0393 67.1371 33.487 67.5848 33.487 68.1371V68.2092C33.487 68.7615 33.0393 69.2092 32.487 69.2092H25.9106C25.3584 69.2092 24.9106 68.7615 24.9106 68.2092V59.1279Z" fill="#00539F"/>
<path fill-rule="evenodd" clip-rule="evenodd" d="M24.606 58.8364C24.606 58.2841 25.0537 57.8364 25.606 57.8364H32.7146C33.2669 57.8364 33.7146 58.2841 33.7146 58.8364V59.4938C33.7146 60.0461 33.2669 60.4938 32.7146 60.4938H27.9295V62.302H32.0196C32.5719 62.302 33.0196 62.7497 33.0196 63.302V63.9571C33.0196 64.5093 32.5719 64.9571 32.0196 64.9571H27.9295V66.8456H32.7906C33.3429 66.8456 33.7906 67.2933 33.7906 67.8456V68.5006C33.7906 69.0529 33.3429 69.5006 32.7906 69.5006H25.606C25.0537 69.5006 24.606 69.0529 24.606 68.5006V58.8364ZM26.2142 58.4193C25.6619 58.4193 25.2142 58.8671 25.2142 59.4193V67.9177C25.2142 68.47 25.6619 68.9177 26.2142 68.9177H32.4377C32.849 68.9177 33.1823 68.5843 33.1823 68.1731C33.1823 67.7619 32.849 67.4285 32.4377 67.4285H28.3212C27.769 67.4285 27.3212 66.9808 27.3212 66.4285V65.3741C27.3212 64.8219 27.769 64.3741 28.3212 64.3741H31.6668C32.078 64.3741 32.4114 64.0408 32.4114 63.6295C32.4114 63.2183 32.078 62.8849 31.6668 62.8849H28.3212C27.769 62.8849 27.3212 62.4372 27.3212 61.8849V60.9109C27.3212 60.3586 27.769 59.9109 28.3212 59.9109H32.3606C32.7725 59.9109 33.1064 59.577 33.1064 59.1651C33.1064 58.7532 32.7725 58.4193 32.3606 58.4193H26.2142Z" fill="#00539F"/>
<path d="M43.7069 68.4771C43.1961 68.1864 43.1514 67.499 43.5577 67.0743L43.8167 66.8036C44.1632 66.4414 44.7197 66.3998 45.151 66.6553C45.8849 67.09 46.7313 67.4208 47.7029 67.4208C48.758 67.4208 49.3911 66.9766 49.3911 66.3292V66.3126C49.3911 65.7597 49.0141 65.4101 47.1401 64.8076C44.8019 64.0491 43.3528 63.3049 43.3528 61.4052V61.3745C43.3528 59.4418 45.1226 58.1281 47.6691 58.1281C48.8604 58.1206 50.0214 58.3974 51.0218 58.9168C51.5369 59.1842 51.6036 59.8601 51.2208 60.2963L50.9876 60.5621C50.6532 60.9432 50.091 61.0045 49.6426 60.7679C49.0058 60.432 48.3122 60.2026 47.5875 60.2026C46.6449 60.2026 46.0596 60.5971 46.0596 61.1666V61.1831C46.0596 61.8163 46.5126 62.1282 48.5667 62.837C50.8684 63.5978 52.1121 64.4201 52.1121 66.1449V66.178C52.1121 68.2359 50.2465 69.5023 47.6832 69.5023C46.2568 69.502 44.8732 69.1408 43.7069 68.4771Z" fill="#00539F"/>
<path fill-rule="evenodd" clip-rule="evenodd" d="M51.4891 59.5374C50.416 58.8098 49.0675 58.4107 47.6709 58.4195L47.6689 58.4195C46.4476 58.4195 45.4391 58.7346 44.7432 59.2561C44.0528 59.7734 43.6567 60.5018 43.6567 61.3744V61.4052C43.6567 62.2671 43.9778 62.846 44.5632 63.3096C45.1701 63.7903 46.068 64.1521 47.237 64.5313C48.1736 64.8324 48.7778 65.0823 49.1486 65.344C49.3394 65.4787 49.4814 65.6252 49.573 65.7952C49.6655 65.9668 49.6951 66.141 49.6951 66.3126V66.3291C49.6951 66.7563 49.4809 67.1157 49.1153 67.3576C48.7589 67.5933 48.2702 67.7122 47.7027 67.7122C46.7035 67.7122 45.8356 67.3869 45.0931 66.9626C44.7185 66.7486 44.241 66.7912 43.9427 67.103C43.5746 67.4877 43.6312 68.1127 44.1039 68.3579C45.1689 68.9101 46.4065 69.2106 47.683 69.2108M51.4891 59.5374L50.9149 60.1919C50.5884 60.564 50.0429 60.6319 49.5976 60.4155C48.98 60.1153 48.3025 59.9111 47.5873 59.9111C47.0763 59.9111 46.6295 60.0174 46.3005 60.229C45.9631 60.4459 45.7553 60.7727 45.7553 61.1665V61.1831C45.7553 61.3766 45.7904 61.5665 45.8961 61.7499C46.0003 61.9306 46.1598 62.082 46.3695 62.2212C46.7774 62.4921 47.442 62.7587 48.4635 63.1112L48.4674 63.1125C49.6111 63.4906 50.4481 63.871 50.9989 64.3461C51.5322 64.806 51.8078 65.3635 51.8078 66.1448V66.1779C51.8078 67.1127 51.3884 67.8592 50.6745 68.3799C49.9533 68.906 48.9159 69.2108 47.683 69.2108M47.668 57.8366C49.3053 57.8265 50.8933 58.3318 52.1177 59.2604C52.2505 59.3611 52.2699 59.5533 52.1601 59.6785L50.6358 61.4157C50.5313 61.5348 50.3542 61.5569 50.2237 61.467C49.4178 60.9123 48.5187 60.494 47.5873 60.494C47.1557 60.494 46.8386 60.5849 46.6394 60.713C46.4485 60.8358 46.3636 60.9909 46.3636 61.1665V61.1831C46.3636 61.3062 46.3851 61.3927 46.4286 61.468C46.4735 61.5461 46.5556 61.6356 46.716 61.7421C47.0479 61.9625 47.6363 62.2061 48.6677 62.5621C49.8247 62.9447 50.7597 63.3556 51.4058 63.9128C52.0697 64.4853 52.416 65.2014 52.416 66.1448V66.1779C52.416 67.301 51.9026 68.2167 51.0429 68.8438C50.1906 69.4654 49.0135 69.7938 47.683 69.7938C45.7995 69.7934 43.982 69.1861 42.6065 68.0889C42.4748 67.9839 42.4617 67.7884 42.5782 67.6667L44.1963 65.9753C44.3045 65.8622 44.4798 65.8467 44.6062 65.939C45.4748 66.5735 46.4919 67.1293 47.7027 67.1293C48.1904 67.1293 48.5458 67.026 48.7697 66.8778C48.9845 66.7358 49.0868 66.5494 49.0868 66.3291V66.3126C49.0868 66.2077 49.0693 66.1309 49.0326 66.0626C48.9949 65.9928 48.9255 65.9105 48.7879 65.8133C48.5017 65.6114 47.9804 65.3852 47.0432 65.0838L47.0425 65.0836C45.8735 64.7044 44.8778 64.3149 44.1757 63.759C43.452 63.1859 43.0485 62.4429 43.0485 61.4052V61.3744C43.0485 60.3144 43.5374 59.4196 44.3685 58.7969C45.1939 58.1784 46.3432 57.8367 47.668 57.8366Z" fill="#00539F"/>
<path d="M61.4272 59.1279C61.4272 58.5756 61.875 58.1279 62.4272 58.1279H68.9304C69.4827 58.1279 69.9304 58.5756 69.9304 59.1279V59.2024C69.9304 59.7547 69.4827 60.2024 68.9304 60.2024H65.1425C64.5902 60.2024 64.1425 60.6501 64.1425 61.2024V61.5935C64.1425 62.1458 64.5902 62.5935 65.1425 62.5935H68.2326C68.7849 62.5935 69.2326 63.0412 69.2326 63.5935V63.6656C69.2326 64.2179 68.7849 64.6656 68.2326 64.6656H65.1425C64.5902 64.6656 64.1425 65.1134 64.1425 65.6656V66.1371C64.1425 66.6894 64.5902 67.1371 65.1425 67.1371H69.0036C69.5559 67.1371 70.0036 67.5848 70.0036 68.1371V68.2092C70.0036 68.7615 69.5559 69.2092 69.0036 69.2092H62.4272C61.875 69.2092 61.4272 68.7615 61.4272 68.2092V59.1279Z" fill="#00539F"/>
<path fill-rule="evenodd" clip-rule="evenodd" d="M61.123 58.8364C61.123 58.2841 61.5708 57.8364 62.123 57.8364H69.2345C69.7868 57.8364 70.2345 58.2841 70.2345 58.8364V59.4938C70.2345 60.0461 69.7868 60.4938 69.2345 60.4938H64.4466V62.302H68.5367C69.089 62.302 69.5367 62.7497 69.5367 63.302V63.9571C69.5367 64.5093 69.089 64.9571 68.5367 64.9571H64.4466V66.8456H69.3077C69.86 66.8456 70.3077 67.2933 70.3077 67.8456V68.5006C70.3077 69.0529 69.86 69.5006 69.3077 69.5006H62.123C61.5708 69.5006 61.123 69.0529 61.123 68.5006V58.8364ZM62.7313 58.4193C62.179 58.4193 61.7313 58.8671 61.7313 59.4193V67.9177C61.7313 68.47 62.179 68.9177 62.7313 68.9177H68.9548C69.3661 68.9177 69.6994 68.5843 69.6994 68.1731C69.6994 67.7619 69.3661 67.4285 68.9548 67.4285H64.8383C64.286 67.4285 63.8383 66.9808 63.8383 66.4285V65.3741C63.8383 64.8219 64.286 64.3741 64.8383 64.3741H68.1838C68.5951 64.3741 68.9284 64.0408 68.9284 63.6295C68.9284 63.2183 68.5951 62.8849 68.1838 62.8849H64.8383C64.286 62.8849 63.8383 62.4372 63.8383 61.8849V60.9109C63.8383 60.3586 64.286 59.9109 64.8383 59.9109H68.8805C69.2924 59.9109 69.6263 59.577 69.6263 59.1651C69.6263 58.7532 69.2924 58.4193 68.8805 58.4193H62.7313Z" fill="#00539F"/>
<path d="M83.7924 58.737C83.9493 58.3677 84.3116 58.1279 84.7129 58.1279H85.9893C86.3905 58.1279 86.7529 58.3677 86.9097 58.737L90.793 67.8797C91.0731 68.5392 90.5891 69.2706 89.8726 69.2706H89.2286C88.8219 69.2706 88.4557 69.0244 88.3024 68.6477L87.8304 67.4883C87.677 67.1116 87.3109 66.8654 86.9042 66.8654H83.7095C83.3006 66.8654 82.933 67.1143 82.7811 67.4939L82.3217 68.6421C82.1698 69.0217 81.8021 69.2706 81.3932 69.2706H80.8296C80.113 69.2706 79.629 68.5392 79.9091 67.8797L83.7924 58.737ZM85.3083 64.8381C85.9981 64.8381 86.4705 64.1423 86.216 63.5012C85.8906 62.6816 84.7315 62.6789 84.4023 63.4969C84.1441 64.1387 84.6165 64.8381 85.3083 64.8381Z" fill="#00539F"/>
<path fill-rule="evenodd" clip-rule="evenodd" d="M83.5883 58.4455C83.7451 58.0762 84.1075 57.8364 84.5087 57.8364H86.1943C86.5955 57.8364 86.9579 58.0762 87.1147 58.4455L91.2456 68.1711C91.5257 68.8306 91.0417 69.562 90.3252 69.562H89.0212C88.6145 69.562 88.2483 69.3158 88.095 68.9391L87.3694 67.1568H83.2421L82.5312 68.9335C82.3793 69.3131 82.0116 69.562 81.6028 69.562H80.3778C79.6613 69.562 79.1773 68.8306 79.4574 68.1711L83.5883 58.4455ZM84.9178 58.4193C84.5166 58.4193 84.1542 58.6591 83.9974 59.0284L80.3354 67.6502C80.0677 68.2803 80.5302 68.9791 81.2147 68.9791C81.6054 68.9791 81.9567 68.7413 82.1018 68.3786L82.5724 67.2024C82.7242 66.8228 83.0919 66.5739 83.5008 66.5739H87.1124C87.5191 66.5739 87.8853 66.8201 88.0386 67.1968L88.5124 68.3607C88.6646 68.7346 89.0281 68.9791 89.4319 68.9791C90.1432 68.9791 90.6237 68.253 90.3456 67.5983L86.7056 59.0284C86.5487 58.6591 86.1864 58.4193 85.7852 58.4193H84.9178ZM84.3828 62.7364C84.7199 61.8987 85.9068 61.9015 86.24 62.7408L86.6448 63.7606C86.9054 64.4171 86.4217 65.1295 85.7153 65.1295H84.9001C84.1917 65.1295 83.708 64.4133 83.9724 63.7562L84.3828 62.7364ZM84.3063 64.5466H86.306L85.313 62.045L84.3063 64.5466Z" fill="#00539F"/>
<path d="M100.699 59.1279C100.699 58.5756 101.147 58.1279 101.699 58.1279H105.657C107.185 58.1279 108.409 58.4918 109.239 59.1888C109.957 59.7913 110.365 60.6608 110.365 61.7547V61.8162C110.365 63.0118 109.859 63.8938 109.043 64.4964C108.52 64.8833 108.27 65.6142 108.637 66.1515L109.658 67.6448C110.112 68.3085 109.637 69.2092 108.833 69.2092H108.114C107.78 69.2092 107.468 69.0423 107.282 68.7645L105.445 66.0129C105.259 65.7351 104.947 65.5682 104.613 65.5682H104.429C103.876 65.5682 103.429 66.0159 103.429 66.5682V68.2092C103.429 68.7615 102.981 69.2092 102.429 69.2092H101.699C101.147 69.2092 100.699 68.7615 100.699 68.2092V59.1279ZM105.449 63.5433C106.856 63.5433 107.599 62.877 107.599 61.8894V61.8752C107.599 60.7671 106.788 60.2213 105.393 60.2213H104.423C103.871 60.2213 103.423 60.669 103.423 61.2213V62.5529C103.423 63.1088 103.876 63.558 104.432 63.5528L105.449 63.5433Z" fill="#00539F"/>
<path fill-rule="evenodd" clip-rule="evenodd" d="M100.395 58.8364C100.395 58.2841 100.842 57.8364 101.395 57.8364H105.657C107.23 57.8364 108.536 58.2109 109.439 58.9695C110.229 59.6333 110.668 60.5861 110.668 61.7547V61.8161C110.668 62.7148 110.4 63.4633 109.925 64.0602C109.525 64.5635 108.987 64.9474 108.367 65.225L110.22 67.9362C110.674 68.6 110.199 69.5006 109.395 69.5006H107.947C107.613 69.5006 107.301 69.3338 107.115 69.0559L104.981 65.8596H103.732V68.5006C103.732 69.0529 103.285 69.5006 102.732 69.5006H101.395C100.842 69.5006 100.395 69.0529 100.395 68.5006V58.8364ZM102.003 58.4193C101.451 58.4193 101.003 58.8671 101.003 59.4193V67.9177C101.003 68.47 101.451 68.9177 102.003 68.9177H102.124C102.676 68.9177 103.124 68.47 103.124 67.9177V66.2767C103.124 65.7244 103.572 65.2767 104.124 65.2767H104.779C105.113 65.2767 105.425 65.4436 105.611 65.7214L107.449 68.4749C107.634 68.7516 107.945 68.9177 108.277 68.9177C109.078 68.9177 109.551 68.0209 109.099 67.36L107.664 65.2603C107.557 65.1033 107.625 64.8872 107.804 64.8213C108.49 64.568 109.051 64.1971 109.441 63.7069C109.829 63.2193 110.06 62.5974 110.06 61.8161V61.7547C110.06 60.7354 109.683 59.9493 109.038 59.408C108.281 58.7726 107.139 58.4193 105.657 58.4193H102.003ZM103.118 60.9298C103.118 60.3775 103.566 59.9298 104.118 59.9298H105.392C106.124 59.9298 106.752 60.0719 107.203 60.4008C107.667 60.7397 107.902 61.2459 107.902 61.8752V61.8894C107.902 62.4581 107.685 62.9579 107.246 63.3102C106.814 63.657 106.199 63.8345 105.45 63.8348L104.128 63.8471C103.572 63.8523 103.118 63.4031 103.118 62.8471V60.9298ZM103.727 60.5127V63.2679L105.448 63.2518C106.105 63.2518 106.565 63.0962 106.856 62.8632C107.14 62.6354 107.294 62.3082 107.294 61.8894V61.8752C107.294 61.3964 107.124 61.0756 106.834 60.8646C106.531 60.6436 106.056 60.5127 105.392 60.5127H103.727Z" fill="#00539F"/>
<path d="M120.043 63.91V63.7682C120.043 60.4108 122.533 58.1307 126.019 58.1307C126.811 58.1078 127.599 58.2272 128.331 58.4811C128.726 58.6183 129.1 58.7931 129.446 59.0013C129.924 59.2893 129.952 59.9384 129.573 60.3483L129.276 60.6697C128.911 61.0646 128.307 61.0853 127.845 60.8091C127.275 60.4674 126.657 60.269 125.926 60.269C124.154 60.269 122.851 61.6465 122.851 63.7989V63.8462C122.851 66.0459 124.21 67.3903 125.963 67.3903C126.721 67.3903 127.334 67.1781 127.948 66.7827C128.383 66.5024 128.959 66.5143 129.326 66.8791L129.554 67.1053C129.967 67.5155 129.949 68.1996 129.462 68.5189C128.498 69.1521 127.395 69.5191 125.85 69.5191C122.381 69.5286 120.043 67.2982 120.043 63.91Z" fill="#00539F"/>
<path fill-rule="evenodd" clip-rule="evenodd" d="M128.227 58.7551C127.531 58.514 126.782 58.4001 126.028 58.422L126.023 58.4221H126.019C124.346 58.4221 122.931 58.9681 121.936 59.899C120.941 60.8291 120.347 62.161 120.347 63.7682V63.9099C120.347 65.5384 120.907 66.8653 121.861 67.783C122.814 68.7005 124.184 69.2322 125.849 69.2276L125.85 69.2276C127.224 69.2276 128.224 68.9283 129.097 68.4003C129.534 68.1358 129.561 67.5326 129.199 67.1723C128.89 66.8655 128.406 66.8466 128.036 67.0758C127.41 67.463 126.762 67.6817 125.963 67.6817C125.001 67.6817 124.138 67.3109 123.52 66.6352C122.904 65.9616 122.546 65.0031 122.546 63.8461V63.7989C122.546 62.6673 122.889 61.7134 123.492 61.0373C124.098 60.3582 124.952 59.9775 125.926 59.9775C126.676 59.9775 127.315 60.1714 127.895 60.4973C128.31 60.7306 128.842 60.6995 129.165 60.35C129.525 59.9603 129.479 59.3402 129.009 59.0933C128.761 58.963 128.499 58.8498 128.227 58.7551ZM126.014 57.8392C126.842 57.8158 127.666 57.9409 128.434 58.207C129.202 58.4737 129.897 58.8762 130.47 59.3898C130.589 59.4963 130.597 59.6796 130.489 59.7968L128.85 61.5693C128.736 61.6923 128.546 61.7033 128.419 61.5943C127.66 60.9432 126.899 60.5604 125.926 60.5604C125.127 60.5604 124.443 60.8684 123.955 61.4161C123.463 61.967 123.155 62.778 123.155 63.7989V63.8461C123.155 64.8889 123.476 65.7025 123.978 66.251C124.478 66.7974 125.172 67.0988 125.963 67.0988C126.914 67.0988 127.618 66.737 128.477 66.0157C128.601 65.912 128.783 65.9196 128.897 66.0333L130.537 67.6622C130.655 67.7796 130.648 67.9725 130.522 68.0815C129.288 69.15 127.954 69.8105 125.85 69.8106L125.85 69.5191L125.851 69.81C125.851 69.8103 125.851 69.8106 125.85 69.8106C124.046 69.8154 122.513 69.2365 121.43 68.1943C120.347 67.1521 119.738 65.6696 119.738 63.9099V63.7682C119.738 62.0179 120.389 60.531 121.511 59.4818C122.631 58.4341 124.203 57.8402 126.014 57.8392ZM126.019 58.1307L126.01 57.8439C126.01 57.8414 126.012 57.8393 126.014 57.8392C126.017 57.8392 126.019 57.8413 126.019 57.8438V58.1307Z" fill="#00539F"/>
<path d="M139.634 59.1279C139.634 58.5756 140.082 58.1279 140.634 58.1279H141.366C141.919 58.1279 142.366 58.5756 142.366 59.1279V61.577C142.366 62.1293 142.814 62.577 143.366 62.577H145.702C146.255 62.577 146.702 62.1293 146.702 61.577V59.1279C146.702 58.5756 147.15 58.1279 147.702 58.1279H148.437C148.99 58.1279 149.437 58.5756 149.437 59.1279V68.2092C149.437 68.7615 148.99 69.2092 148.437 69.2092H147.702C147.15 69.2092 146.702 68.7615 146.702 68.2092V65.6987C146.702 65.1464 146.255 64.6987 145.702 64.6987H143.366C142.814 64.6987 142.366 65.1464 142.366 65.6987V68.2092C142.366 68.7615 141.919 69.2092 141.366 69.2092H140.634C140.082 69.2092 139.634 68.7615 139.634 68.2092V59.1279Z" fill="#00539F"/>
<path fill-rule="evenodd" clip-rule="evenodd" d="M139.33 58.8364C139.33 58.2841 139.777 57.8364 140.33 57.8364H141.67C142.222 57.8364 142.67 58.2841 142.67 58.8364V62.2855H146.398V58.8364C146.398 58.2841 146.845 57.8364 147.398 57.8364H148.741C149.293 57.8364 149.741 58.2841 149.741 58.8364V68.5006C149.741 69.0529 149.293 69.5006 148.741 69.5006H147.398C146.845 69.5006 146.398 69.0529 146.398 68.5006V64.9901H142.67V68.5006C142.67 69.0529 142.222 69.5006 141.67 69.5006H140.33C139.777 69.5006 139.33 69.0529 139.33 68.5006V58.8364ZM140.938 58.4193C140.386 58.4193 139.938 58.8671 139.938 59.4193V67.9177C139.938 68.47 140.386 68.9177 140.938 68.9177H141.062C141.614 68.9177 142.062 68.47 142.062 67.9177V65.4072C142.062 64.8549 142.509 64.4072 143.062 64.4072H146.006C146.558 64.4072 147.006 64.8549 147.006 65.4072V67.9177C147.006 68.47 147.454 68.9177 148.006 68.9177H148.133C148.685 68.9177 149.133 68.47 149.133 67.9177V59.4193C149.133 58.8671 148.685 58.4193 148.133 58.4193H148.006C147.454 58.4193 147.006 58.8671 147.006 59.4193V61.8684C147.006 62.4207 146.558 62.8684 146.006 62.8684H143.062C142.509 62.8684 142.062 62.4207 142.062 61.8684V59.4193C142.062 58.8671 141.614 58.4193 141.062 58.4193H140.938Z" fill="#00539F"/>
<path d="M109.484 0.779053H130.914C136.852 0.779053 141.409 2.28788 144.587 5.30553C147.265 7.86165 148.605 11.2698 148.605 15.53V15.6578C148.605 19.279 147.675 22.2292 145.814 24.5084C143.942 26.8018 141.426 28.5412 138.56 29.5248L150 45.5006H137.946L127.9 31.1863H119.808V45.5006H109.484V0.779053ZM130.244 22.5061C132.789 22.5061 134.742 21.931 136.104 20.7807C137.466 19.6305 138.147 18.0968 138.147 16.1797V16.0519C138.147 13.9218 137.432 12.3242 136.004 11.2592C134.575 10.1941 132.588 9.66159 130.043 9.66159H119.797V22.5061H130.244Z" fill="url(#paint0_linear_23_3151)"/>
<path d="M69.581 27.4026H57.0124V19.1032H69.581V6.81778H78.4656V19.1032H91.4422V27.4026H78.4656V39.608H69.581V27.4026Z" fill="url(#paint1_linear_23_3151)"/>
<path d="M24.0313 46.278C20.7452 46.3052 17.4874 45.6965 14.4548 44.4887C11.599 43.364 9.00851 41.7044 6.83645 39.608C4.66439 37.5115 2.95483 35.0209 1.80883 32.2832C0.593314 29.4218 -0.0210465 26.3603 0.000670759 23.2728V23.145C-0.0232199 20.0677 0.591303 17.0163 1.80883 14.1666C2.97528 11.4331 4.68029 8.93846 6.83148 6.81778C9.021 4.67876 11.6404 2.98343 14.5329 1.83334C17.6688 0.589078 21.0371 -0.0341617 24.4331 0.00144391C26.4444 -0.00698146 28.4517 0.171368 30.4268 0.53397C32.1138 0.839959 33.7632 1.31107 35.349 1.93984C36.79 2.51906 38.1599 3.24767 39.4341 4.11255C40.6742 4.95652 41.8389 5.89698 42.9165 6.92428L36.3535 14.1347C34.6804 12.6607 32.8025 11.4135 30.7728 10.4283C28.7783 9.51635 26.5886 9.06052 24.3773 9.09699C22.4972 9.08006 20.6355 9.45061 18.9193 10.1833C17.2758 10.8862 15.8045 11.9092 14.5999 13.1868C13.3803 14.487 12.4264 15.9933 11.7872 17.6281C11.1093 19.3543 10.7688 21.1845 10.7826 23.0279V23.1557C10.7709 25.0093 11.1112 26.8496 11.7872 28.5874C12.4211 30.2296 13.3671 31.746 14.5775 33.0607C15.804 34.385 17.3153 35.4416 19.0083 36.1584C20.7013 36.8752 22.5364 37.2354 24.3885 37.2144C27.0672 37.2144 29.333 36.7458 31.1858 35.8085C33.1872 34.7561 35.0369 33.4601 36.6884 31.953L43.2513 38.2794C42.0905 39.4754 40.8368 40.5862 39.5011 41.6024C38.1874 42.5935 36.7609 43.4402 35.2485 44.1266C33.637 44.8521 31.9393 45.3886 30.1924 45.7241C28.1635 46.1065 26.0993 46.2921 24.0313 46.278Z" fill="url(#paint2_linear_23_3151)"/>
<defs>
<linearGradient id="paint0_linear_23_3151" x1="-3.18698" y1="69.1029" x2="87.8224" y2="-69.0424" gradientUnits="userSpaceOnUse">
<stop offset="0.161458" stop-color="#00539F"/>
<stop offset="0.796875" stop-color="#00A1B1"/>
</linearGradient>
<linearGradient id="paint1_linear_23_3151" x1="-3.18698" y1="69.1029" x2="87.8224" y2="-69.0424" gradientUnits="userSpaceOnUse">
<stop offset="0.161458" stop-color="#00539F"/>
<stop offset="0.796875" stop-color="#00A1B1"/>
</linearGradient>
<linearGradient id="paint2_linear_23_3151" x1="-3.18698" y1="69.1029" x2="87.8224" y2="-69.0424" gradientUnits="userSpaceOnUse">
<stop offset="0.161458" stop-color="#00539F"/>
<stop offset="0.796875" stop-color="#00A1B1"/>
</linearGradient>
</defs>
</svg>
