<svg width="107" height="106" viewBox="0 0 107 106" fill="none" xmlns="http://www.w3.org/2000/svg">
<path d="M52.3003 0.779376H52.0796V1V11.2876V11.5083H52.3003H54.7495H54.9701V11.2876V1V0.779376H54.7495H52.3003Z" fill="white" stroke="white" stroke-width="0.441248"/>
<path d="M28.6071 7.18901L28.4968 6.99794L28.3057 7.10825L26.1846 8.33284L25.9935 8.44315L26.1038 8.63422L31.2474 17.5433L31.3577 17.7344L31.5487 17.6241L33.6699 16.3995L33.8609 16.2892L33.7506 16.0981L28.6071 7.18901Z" fill="white" stroke="white" stroke-width="0.441248"/>
<path d="M16.2647 33.487L16.4557 33.5973L16.5661 33.4062L17.7907 31.2851L17.901 31.094L17.7099 30.9837L8.80079 25.8402L8.60972 25.7299L8.49941 25.9209L7.27481 28.0421L7.1645 28.2331L7.35557 28.3435L16.2647 33.487Z" fill="white" stroke="white" stroke-width="0.441248"/>
<path d="M1.18893 51.8912H0.96831V52.1118V54.561V54.7817H1.18893H11.4766H11.6972V54.561V52.1118V51.8912H11.4766H1.18893Z" fill="white" stroke="white" stroke-width="0.441248"/>
<path d="M8.64776 80.6242L8.75805 80.8152L8.94911 80.705L17.859 75.5622L18.0501 75.4519L17.9398 75.2608L16.7152 73.1397L16.6049 72.9486L16.4138 73.0589L7.50394 78.2017L7.31284 78.312L7.42316 78.5031L8.64776 80.6242Z" fill="white" stroke="white" stroke-width="0.441248"/>
<path d="M28.3077 99.2838L28.4987 99.3941L28.609 99.203L33.7526 90.2939L33.8629 90.1028L33.6718 89.9925L31.5507 88.7679L31.3596 88.6576L31.2493 88.8487L26.1058 97.7578L25.9955 97.9489L26.1865 98.0592L28.3077 99.2838Z" fill="white" stroke="white" stroke-width="0.441248"/>
<path d="M52.3003 94.9996H52.0796V95.2202V105.508V105.728H52.3003H54.7495H54.9701V105.508V95.2202V94.9996H54.7495H52.3003Z" fill="white" stroke="white" stroke-width="0.441248"/>
<path d="M78.3924 99.1991L78.5027 99.3902L78.6937 99.2799L80.8149 98.0553L81.0059 97.9449L80.8956 97.7539L75.7521 88.8448L75.6418 88.6537L75.4507 88.764L73.3296 89.9886L73.1385 90.0989L73.2488 90.29L78.3924 99.1991Z" fill="white" stroke="white" stroke-width="0.441248"/>
<path d="M97.9472 80.5891L98.1383 80.6994L98.2486 80.5083L99.4732 78.3872L99.5835 78.1961L99.3924 78.0858L90.4833 72.9422L90.2923 72.8319L90.1819 73.023L88.9573 75.1441L88.847 75.3352L89.0381 75.4455L97.9472 80.5891Z" fill="white" stroke="white" stroke-width="0.441248"/>
<path d="M95.4091 51.8912H95.1885V52.1118V54.561V54.7817H95.4091H105.697H105.917V54.561V52.1118V51.8912H105.697H95.4091Z" fill="white" stroke="white" stroke-width="0.441248"/>
<path d="M98.3599 25.9942L98.2496 25.8031L98.0585 25.9134L89.1494 31.057L88.9584 31.1673L89.0687 31.3583L90.2933 33.4795L90.4036 33.6706L90.5946 33.5602L99.5038 28.4167L99.6948 28.3064L99.5845 28.1153L98.3599 25.9942Z" fill="white" stroke="white" stroke-width="0.441248"/>
<path d="M78.6162 7.25815L78.4251 7.14786L78.3148 7.33888L73.1698 16.248L73.0594 16.4391L73.2505 16.5494L75.3716 17.774L75.5627 17.8843L75.673 17.6933L80.8181 8.78415L80.9284 8.59307L80.7373 8.48275L78.6162 7.25815Z" fill="white" stroke="white" stroke-width="0.441248"/>
<path d="M59.6417 51.7908L59.6175 51.7667L59.5872 51.751L50.7693 47.1783L50.7693 47.1783L50.7666 47.1769C50.5664 47.0766 50.3269 47.0308 50.0961 47.0308C49.8654 47.0308 49.6259 47.0766 49.4257 47.1769C49.217 47.2815 49.0275 47.4773 48.8921 47.6805C48.7583 47.8811 48.6509 48.1284 48.6509 48.3537V57.3347C48.6509 57.6016 48.695 57.8523 48.8275 58.0641C48.9437 58.25 49.1156 58.3865 49.3403 58.4807C49.4156 58.7494 49.5063 58.943 49.6517 59.0596C49.8157 59.1912 50.0111 59.1906 50.1535 59.1901C50.1617 59.1901 50.1697 59.1901 50.1776 59.1901H50.3982V59.1784C50.5227 59.1599 50.6619 59.1118 50.7974 58.987L59.5727 54.4365C60.1878 54.221 60.3593 53.6057 60.3593 53.09C60.3593 52.5077 59.9737 52.1225 59.6632 51.8124C59.656 51.8051 59.6488 51.798 59.6417 51.7908ZM51.5414 55.3467V51.1621L55.7266 53.2544L51.5414 55.3467Z" fill="white" stroke="white" stroke-width="0.441248"/>
<mask id="path-14-outside-1_1_8713" maskUnits="userSpaceOnUse" x="20.9267" y="28.7397" width="65" height="49" fill="black">
<rect fill="white" x="20.9267" y="28.7397" width="65" height="49"/>
<path d="M80.8771 29.7399H26.0092C23.723 29.7399 21.9267 31.5361 21.9267 33.8224V72.8505C21.9267 75.1367 23.7229 76.933 26.0092 76.933H80.7141C83.0003 76.933 84.7966 75.1368 84.7966 72.8505L84.7958 33.6594C84.9594 31.536 82.9996 29.7397 80.8769 29.7397L80.8771 29.7399ZM71.569 32.1899V74.4838H35.3177V32.1899H71.569ZM24.5405 72.8499V33.6589C24.5405 32.8422 25.1935 32.0256 26.1738 32.0256H33.0321V74.3194H26.1738C25.1935 74.3194 24.5405 73.6664 24.5405 72.8497V72.8499ZM82.5111 72.8499C82.5111 73.6666 81.8581 74.4832 80.8778 74.4832H74.0195V32.1894H80.8778C81.6944 32.1894 82.5111 32.8424 82.5111 33.8227V72.8499Z"/>
</mask>
<path d="M80.8771 29.7399H26.0092C23.723 29.7399 21.9267 31.5361 21.9267 33.8224V72.8505C21.9267 75.1367 23.7229 76.933 26.0092 76.933H80.7141C83.0003 76.933 84.7966 75.1368 84.7966 72.8505L84.7958 33.6594C84.9594 31.536 82.9996 29.7397 80.8769 29.7397L80.8771 29.7399ZM71.569 32.1899V74.4838H35.3177V32.1899H71.569ZM24.5405 72.8499V33.6589C24.5405 32.8422 25.1935 32.0256 26.1738 32.0256H33.0321V74.3194H26.1738C25.1935 74.3194 24.5405 73.6664 24.5405 72.8497V72.8499ZM82.5111 72.8499C82.5111 73.6666 81.8581 74.4832 80.8778 74.4832H74.0195V32.1894H80.8778C81.6944 32.1894 82.5111 32.8424 82.5111 33.8227V72.8499Z" fill="white"/>
<path d="M80.8771 29.7399V30.1812H81.8301L81.2135 29.4545L80.8771 29.7399ZM84.7966 72.8505H85.2378V72.8505L84.7966 72.8505ZM84.7958 33.6594L84.3559 33.6255L84.3546 33.6425V33.6594L84.7958 33.6594ZM80.8769 29.7397V29.2985H79.9238L80.5405 30.0252L80.8769 29.7397ZM71.569 32.1899H72.0102V31.7487H71.569V32.1899ZM71.569 74.4838V74.925H72.0102V74.4838H71.569ZM35.3177 74.4838H34.8764V74.925H35.3177V74.4838ZM35.3177 32.1899V31.7487H34.8764V32.1899H35.3177ZM33.0321 32.0256H33.4733V31.5843H33.0321V32.0256ZM33.0321 74.3194V74.7606H33.4733V74.3194H33.0321ZM74.0195 74.4832H73.5783V74.9245H74.0195V74.4832ZM74.0195 32.1894V31.7481H73.5783V32.1894H74.0195ZM80.8771 29.2987H26.0092V30.1812H80.8771V29.2987ZM26.0092 29.2987C23.4793 29.2987 21.4855 31.2924 21.4855 33.8224H22.368C22.368 31.7798 23.9667 30.1812 26.0092 30.1812V29.2987ZM21.4855 33.8224V72.8505H22.368V33.8224H21.4855ZM21.4855 72.8505C21.4855 75.3804 23.4792 77.3742 26.0092 77.3742V76.4917C23.9666 76.4917 22.368 74.893 22.368 72.8505H21.4855ZM26.0092 77.3742H80.7141V76.4917H26.0092V77.3742ZM80.7141 77.3742C83.244 77.3742 85.2378 75.3805 85.2378 72.8505H84.3553C84.3553 74.8931 82.7566 76.4917 80.7141 76.4917V77.3742ZM85.2378 72.8505L85.2371 33.6594L84.3546 33.6594L84.3553 72.8505L85.2378 72.8505ZM85.2358 33.6933C85.4225 31.2694 83.2102 29.2985 80.8769 29.2985V30.181C82.7891 30.181 84.4963 31.8026 84.3559 33.6255L85.2358 33.6933ZM80.5405 30.0252L80.5406 30.0254L81.2135 29.4545L81.2134 29.4543L80.5405 30.0252ZM71.1277 32.1899V74.4838H72.0102V32.1899H71.1277ZM71.569 74.0425H35.3177V74.925H71.569V74.0425ZM35.7589 74.4838V32.1899H34.8764V74.4838H35.7589ZM35.3177 32.6312H71.569V31.7487H35.3177V32.6312ZM24.9817 72.8499V33.6589H24.0992V72.8499H24.9817ZM24.9817 33.6589C24.9817 33.0567 25.4654 32.4668 26.1738 32.4668V31.5843C24.9216 31.5843 24.0992 32.6277 24.0992 33.6589H24.9817ZM26.1738 32.4668H33.0321V31.5843H26.1738V32.4668ZM32.5908 32.0256V74.3194H33.4733V32.0256H32.5908ZM33.0321 73.8781H26.1738V74.7606H33.0321V73.8781ZM26.1738 73.8781C25.4058 73.8781 24.9817 73.3924 24.9817 72.8497H24.0992C24.0992 73.9403 24.9812 74.7606 26.1738 74.7606V73.8781ZM24.0992 72.8497V72.8499H24.9817V72.8497H24.0992ZM82.0698 72.8499C82.0698 73.4521 81.5861 74.042 80.8778 74.042V74.9245C82.13 74.9245 82.9523 73.881 82.9523 72.8499H82.0698ZM80.8778 74.042H74.0195V74.9245H80.8778V74.042ZM74.4608 74.4832V32.1894H73.5783V74.4832H74.4608ZM74.0195 32.6306H80.8778V31.7481H74.0195V32.6306ZM80.8778 32.6306C81.48 32.6306 82.0698 33.1143 82.0698 33.8227H82.9523C82.9523 32.5705 81.9089 31.7481 80.8778 31.7481V32.6306ZM82.0698 33.8227V72.8499H82.9523V33.8227H82.0698Z" fill="white" mask="url(#path-14-outside-1_1_8713)"/>
<path d="M53.4432 66.0489C60.4214 66.0489 66.2378 60.3998 66.2378 53.2542C66.2378 46.276 60.5887 40.4596 53.4432 40.4596C46.4649 40.4596 40.6485 46.1086 40.6485 53.2542C40.6485 60.2344 46.463 66.0489 53.4432 66.0489ZM53.4432 43.3515C58.8735 43.3515 63.3466 47.8254 63.3466 53.255C63.3466 58.6853 58.8727 63.1584 53.4432 63.1584C48.0128 63.1584 43.5397 58.6846 43.5397 53.255C43.5397 47.8247 48.0128 43.3515 53.4432 43.3515Z" fill="white" stroke="white" stroke-width="0.441248"/>
<path d="M75.6518 36.5401H75.4312V36.7607V39.21V39.4306H75.6518H80.5511H80.7717V39.21V36.7607V36.5401H80.5511H75.6518Z" fill="white" stroke="white" stroke-width="0.441248"/>
<path d="M75.6518 44.2164H75.4312V44.437V46.8862V47.1069H75.6518H80.5511H80.7717V46.8862V44.437V44.2164H80.5511H75.6518Z" fill="white" stroke="white" stroke-width="0.441248"/>
<path d="M75.6518 51.8912H75.4312V52.1118V54.561V54.7817H75.6518H80.5511H80.7717V54.561V52.1118V51.8912H80.5511H75.6518Z" fill="white" stroke="white" stroke-width="0.441248"/>
<path d="M75.6518 59.4024H75.4312V59.623V62.0723V62.2929H75.6518H80.5511H80.7717V62.0723V59.623V59.4024H80.5511H75.6518Z" fill="white" stroke="white" stroke-width="0.441248"/>
<path d="M75.6518 67.0772H75.4312V67.2979V69.7471V69.9677H75.6518H80.5511H80.7717V69.7471V67.2979V67.0772H80.5511H75.6518Z" fill="white" stroke="white" stroke-width="0.441248"/>
<path d="M26.3354 36.5401H26.1148V36.7607V39.21V39.4306H26.3354H31.2346H31.4553V39.21V36.7607V36.5401H31.2346H26.3354Z" fill="white" stroke="white" stroke-width="0.441248"/>
<path d="M26.3354 44.2164H26.1148V44.437V46.8862V47.1069H26.3354H31.2346H31.4553V46.8862V44.437V44.2164H31.2346H26.3354Z" fill="white" stroke="white" stroke-width="0.441248"/>
<path d="M26.3354 51.8912H26.1148V52.1118V54.561V54.7817H26.3354H31.2346H31.4553V54.561V52.1118V51.8912H31.2346H26.3354Z" fill="white" stroke="white" stroke-width="0.441248"/>
<path d="M26.3354 59.4024H26.1148V59.623V62.0723V62.2929H26.3354H31.2346H31.4553V62.0723V59.623V59.4024H31.2346H26.3354Z" fill="white" stroke="white" stroke-width="0.441248"/>
<path d="M26.3354 67.0772H26.1148V67.2979V69.7471V69.9677H26.3354H31.2346H31.4553V69.7471V67.2979V67.0772H31.2346H26.3354Z" fill="white" stroke="white" stroke-width="0.441248"/>
</svg>
