<svg width="77" height="80" viewBox="0 0 77 80" fill="none" xmlns="http://www.w3.org/2000/svg">
<path d="M7.21184 69.8917H6.99121V70.1123V71.8965V72.1171H7.21184H55.9828H56.2035V71.8965V70.1123V69.8917H55.9828H7.21184Z" fill="white" stroke="white" stroke-width="0.441248"/>
<path d="M7.21184 64.42H6.99121V64.6406V66.4248V66.6454H7.21184H46.4669H46.6876V66.4248V64.6406V64.42H46.4669H7.21184Z" fill="white" stroke="white" stroke-width="0.441248"/>
<path d="M7.21184 58.9473H6.99121V59.168V60.9521V61.1728H7.21184H51.82H52.0406V60.9521V59.168V58.9473H51.82H7.21184Z" fill="white" stroke="white" stroke-width="0.441248"/>
<path d="M7.21184 53.4747H6.99121V53.6953V55.4795V55.7001H7.21184H38.3773H38.598V55.4795V53.6953V53.4747H38.3773H7.21184Z" fill="white" stroke="white" stroke-width="0.441248"/>
<path d="M7.21184 20.7638H6.99121V20.9844V22.7685V22.9892H7.21184H28.3865H28.6071V22.7685V20.9844V20.7638H28.3865H7.21184Z" fill="white" stroke="white" stroke-width="0.441248"/>
<path d="M7.21184 27.4259H6.99121V27.6465V29.4306V29.6513H7.21184H28.3865H28.6071V29.4306V27.6465V27.4259H28.3865H7.21184Z" fill="white" stroke="white" stroke-width="0.441248"/>
<path d="M7.21184 34.2052H6.99121V34.4258V36.2099V36.4306H7.21184H28.3865H28.6071V36.2099V34.4258V34.2052H28.3865H7.21184Z" fill="white" stroke="white" stroke-width="0.441248"/>
<path d="M7.21184 40.9854H6.99121V41.2061V42.9902V43.2108H7.21184H28.3865H28.6071V42.9902V41.2061V40.9854H28.3865H7.21184Z" fill="white" stroke="white" stroke-width="0.441248"/>
<path d="M56.5449 0.840238L51.701 5.45341L46.8572 0.840238L46.7051 0.695328L46.5529 0.840238L41.7091 5.45341L36.8653 0.840238L36.7131 0.695328L36.561 0.840238L31.7171 5.45341L26.8733 0.840238L26.7212 0.695328L26.569 0.840238L21.7252 5.45341L16.8814 0.840238L16.7292 0.695328L16.577 0.840238L11.7351 5.45166L7.01004 0.842078L6.85575 0.691553L6.70168 0.842309L1.10978 6.31394L1.04346 6.37884V6.47163V73.6807C1.04346 76.8951 3.6405 79.4921 6.85487 79.4921H64.9043C67.4051 79.4921 69.4073 77.49 69.4073 74.9891V19.4374C69.4073 18.1383 70.4914 17.1597 71.685 17.1597C72.984 17.1597 73.9626 18.2439 73.9626 19.4374V50.723V50.9437L74.1833 50.9436L76.2048 50.9431L76.4254 50.943V50.7225V19.4382C76.4254 17.1481 74.7488 15.2813 72.4618 14.9782L72.5261 14.9349H71.8041C69.3033 14.9349 67.3011 16.937 67.3011 19.4379V74.8709C67.3011 76.1699 66.217 77.1485 65.0234 77.1485C63.7244 77.1485 62.7458 76.0644 62.7458 74.8709L62.7463 6.47164L62.7463 6.37614L62.6767 6.31078L56.848 0.839146L56.6959 0.696369L56.5449 0.840238ZM61.6518 77.1477L6.97504 77.1471H6.75623L6.75529 77.2606C4.85032 77.1442 3.38804 75.5166 3.38804 73.5625V7.28134L7.20915 3.68499L12.0538 8.41449L12.206 8.5631L12.3601 8.41639L17.2039 3.80321L22.0477 8.41639L22.1999 8.5613L22.352 8.41639L27.1959 3.80321L32.0397 8.41639L32.1918 8.5613L32.344 8.41639L37.1878 3.80321L42.0316 8.41639L42.1838 8.5613L42.3359 8.41639L47.1798 3.80321L52.0236 8.41639L52.1776 8.5631L52.3299 8.41449L57.1745 3.68498L60.9956 7.28134V74.87C60.9956 75.7266 61.2689 76.4868 61.6518 77.1477Z" fill="white" stroke="white" stroke-width="0.441248"/>
<path d="M33.2798 47.7493L33.2798 47.9699H33.5005H56.2201H56.4407L56.4407 47.7493L56.4402 16.1074L56.4402 15.8868H56.2196H33.4999H33.2793L33.2793 16.1074L33.2798 47.7493ZM35.5052 18.1119H54.2159V45.8621L35.5052 45.8626V18.1119Z" fill="white" stroke="white" stroke-width="0.441248"/>
<path d="M38.1396 20.7638H37.9189V20.9844V22.7685V22.9892H38.1396H51.5815H51.8022V22.7685V20.9844V20.7638H51.5815H38.1396Z" fill="white" stroke="white" stroke-width="0.441248"/>
<path d="M38.1396 25.5216H37.9189V25.7422V27.5264V27.747H38.1396H51.5815H51.8022V27.5264V25.7422V25.5216H51.5815H38.1396Z" fill="white" stroke="white" stroke-width="0.441248"/>
<path d="M40.5185 30.2794H40.2979V30.5V32.2842V32.5048H40.5185H49.3211H49.5417V32.2842V30.5V30.2794H49.3211H40.5185Z" fill="white" stroke="white" stroke-width="0.441248"/>
</svg>
