<svg width="83" height="75" viewBox="0 0 83 75" fill="none" xmlns="http://www.w3.org/2000/svg">
<mask id="path-1-outside-1_1_8767" maskUnits="userSpaceOnUse" x="-0.288086" y="0.168945" width="71" height="74" fill="black">
<rect fill="white" x="-0.288086" y="0.168945" width="71" height="74"/>
<path d="M70.0293 23.8915C70.0293 19.0406 66.9657 15.0834 63.0085 14.4449V4.23256C63.0085 2.4453 61.6043 1.16895 59.9448 1.16895C58.2855 1.16895 56.8812 2.57312 56.8812 4.23256V7.04088C46.4136 13.5513 39.0086 16.1043 30.0738 16.3596V13.1681L15.5199 13.1687C9.64794 13.1687 4.92434 17.8917 4.92434 23.7642C4.92434 29.2536 9.00946 33.7213 14.3709 34.3598L15.6478 40.6149H13.0948C11.9458 40.6149 10.7969 41.2533 10.0311 42.147L6.83965 46.6147H2.11606V48.5294H7.73269L11.5627 43.1679C11.9458 42.6574 12.4563 42.4021 12.9668 42.4021H28.4138C27.9033 44.8279 25.8608 46.7425 23.3076 46.7425H16.1589V48.6572H20.4993C20.1162 49.2956 19.8609 49.9341 19.8609 50.6998C19.8609 51.9766 20.4993 53.1255 21.393 53.8913C20.4994 54.7844 19.8609 55.9332 19.8609 57.21C19.8609 58.4869 20.4993 59.5079 21.393 60.2737C20.4994 61.0394 19.8609 62.0609 19.8609 63.3373C19.8609 64.6141 20.4993 65.6351 21.393 66.4009C20.4994 67.1667 19.8609 68.1882 19.8609 69.4645C19.8609 70.2303 20.1162 70.9966 20.4993 71.6345L12.5842 71.6351C12.0737 71.6351 11.5632 71.5072 11.0521 71.2519L8.75428 70.2309C7.86062 69.8478 6.83959 69.5925 5.94596 69.5925H0.711914V71.5072H5.94596C6.58438 71.5072 7.35014 71.6351 7.98852 72.0177L10.2864 73.1672C11.0521 73.5504 11.8185 73.6777 12.5842 73.6777H23.0519V73.5498C23.3072 73.5498 23.5624 73.6777 23.8177 73.6777H27.5196C29.8175 73.6777 31.6047 71.8904 31.6047 69.5926C31.6047 68.8268 31.3495 68.0605 30.9663 67.4226C33.2642 67.4226 35.0514 65.6353 35.0514 63.3375C35.0514 62.0606 34.413 61.0396 33.5193 60.2738C34.413 59.5081 35.0514 58.4866 35.0514 57.2102C35.0514 55.9334 34.413 54.7845 33.5193 54.1466C34.413 53.3809 35.0514 52.2319 35.0514 50.9551C35.0514 48.7851 33.2642 46.9979 31.0942 46.9979H28.1586C29.5628 45.721 30.4564 43.8064 30.4564 41.7638V40.7428H26.2439C26.116 39.9771 25.7334 39.3386 25.095 38.8281L24.7118 38.445C24.0734 37.9345 23.9461 37.0408 24.2013 36.275L24.9671 34.4877H29.946V31.2962C38.8821 31.4242 46.2864 34.1046 56.7534 40.615V43.4233C56.7534 45.2105 58.1575 46.4869 59.817 46.4869C61.4764 46.4869 62.8806 45.0827 62.8806 43.4233V33.2109C66.9657 32.7004 70.0299 28.7426 70.0299 23.8916L70.0293 23.8915ZM29.8168 69.5924C29.8168 70.7413 28.7958 71.7624 27.6468 71.7624H23.9448C22.7959 71.7624 21.7748 70.7414 21.7748 69.5924C21.7748 68.4434 22.7958 67.4224 23.9448 67.4224H27.6468C28.7957 67.4218 29.8168 68.4434 29.8168 69.5924ZM33.2635 63.3367C33.2635 64.4856 32.2425 65.5067 31.0936 65.5067H23.9448C22.7959 65.5067 21.7748 64.4857 21.7748 63.3367C21.7748 62.1877 22.7958 61.1667 23.9448 61.1667H31.0936C32.2425 61.2946 33.2635 62.1877 33.2635 63.3367ZM23.9448 59.3795C22.7959 59.3795 21.7748 58.3585 21.7748 57.2095C21.7748 56.0606 22.7958 55.0395 23.9448 55.0395H31.222C32.3709 55.0395 33.392 56.0605 33.392 57.2095C33.392 58.3584 32.371 59.3795 31.222 59.3795H23.9448ZM33.2635 50.9545C33.2635 52.2313 32.2425 53.1245 31.0936 53.1245H23.9442C22.6674 53.1245 21.7742 52.1035 21.7742 50.9545C21.7742 49.8056 22.6679 48.9119 23.8168 48.9119H31.0934C32.3697 48.9119 33.2634 49.8056 33.2634 50.9545H33.2635ZM24.2001 40.7416H17.6897L16.4129 34.4865H23.0512L22.4127 35.508C21.7743 37.0401 22.0296 38.6995 23.3064 39.8484L23.6896 40.2316C23.9448 40.3589 24.0721 40.6142 24.2001 40.7415L24.2001 40.7416ZM28.0295 32.5718H15.3914C10.5405 32.5718 6.71056 28.6145 6.71056 23.8909C6.71056 19.1679 10.6678 15.2101 15.3914 15.2101H28.0295V32.5718ZM29.9448 29.3803V18.4016C40.1571 18.1463 48.1996 14.6996 56.7522 9.46543V38.3161C48.1992 33.0827 40.1568 29.6359 29.9448 29.3806V29.3803ZM61.0921 43.4226C61.0921 44.061 60.5816 44.5715 59.9432 44.5715C59.3048 44.5715 58.7943 44.061 58.7943 43.4226V4.35984C58.7943 3.72143 59.3048 3.21093 59.9432 3.21093C60.5816 3.21093 61.0921 3.72143 61.0921 4.35984V43.4226ZM63.0068 31.423V16.4872C65.943 17.1256 68.113 20.1891 68.113 24.0191C68.113 27.721 65.943 30.7847 63.0068 31.4231V31.423Z"/>
</mask>
<path d="M70.0293 23.8915C70.0293 19.0406 66.9657 15.0834 63.0085 14.4449V4.23256C63.0085 2.4453 61.6043 1.16895 59.9448 1.16895C58.2855 1.16895 56.8812 2.57312 56.8812 4.23256V7.04088C46.4136 13.5513 39.0086 16.1043 30.0738 16.3596V13.1681L15.5199 13.1687C9.64794 13.1687 4.92434 17.8917 4.92434 23.7642C4.92434 29.2536 9.00946 33.7213 14.3709 34.3598L15.6478 40.6149H13.0948C11.9458 40.6149 10.7969 41.2533 10.0311 42.147L6.83965 46.6147H2.11606V48.5294H7.73269L11.5627 43.1679C11.9458 42.6574 12.4563 42.4021 12.9668 42.4021H28.4138C27.9033 44.8279 25.8608 46.7425 23.3076 46.7425H16.1589V48.6572H20.4993C20.1162 49.2956 19.8609 49.9341 19.8609 50.6998C19.8609 51.9766 20.4993 53.1255 21.393 53.8913C20.4994 54.7844 19.8609 55.9332 19.8609 57.21C19.8609 58.4869 20.4993 59.5079 21.393 60.2737C20.4994 61.0394 19.8609 62.0609 19.8609 63.3373C19.8609 64.6141 20.4993 65.6351 21.393 66.4009C20.4994 67.1667 19.8609 68.1882 19.8609 69.4645C19.8609 70.2303 20.1162 70.9966 20.4993 71.6345L12.5842 71.6351C12.0737 71.6351 11.5632 71.5072 11.0521 71.2519L8.75428 70.2309C7.86062 69.8478 6.83959 69.5925 5.94596 69.5925H0.711914V71.5072H5.94596C6.58438 71.5072 7.35014 71.6351 7.98852 72.0177L10.2864 73.1672C11.0521 73.5504 11.8185 73.6777 12.5842 73.6777H23.0519V73.5498C23.3072 73.5498 23.5624 73.6777 23.8177 73.6777H27.5196C29.8175 73.6777 31.6047 71.8904 31.6047 69.5926C31.6047 68.8268 31.3495 68.0605 30.9663 67.4226C33.2642 67.4226 35.0514 65.6353 35.0514 63.3375C35.0514 62.0606 34.413 61.0396 33.5193 60.2738C34.413 59.5081 35.0514 58.4866 35.0514 57.2102C35.0514 55.9334 34.413 54.7845 33.5193 54.1466C34.413 53.3809 35.0514 52.2319 35.0514 50.9551C35.0514 48.7851 33.2642 46.9979 31.0942 46.9979H28.1586C29.5628 45.721 30.4564 43.8064 30.4564 41.7638V40.7428H26.2439C26.116 39.9771 25.7334 39.3386 25.095 38.8281L24.7118 38.445C24.0734 37.9345 23.9461 37.0408 24.2013 36.275L24.9671 34.4877H29.946V31.2962C38.8821 31.4242 46.2864 34.1046 56.7534 40.615V43.4233C56.7534 45.2105 58.1575 46.4869 59.817 46.4869C61.4764 46.4869 62.8806 45.0827 62.8806 43.4233V33.2109C66.9657 32.7004 70.0299 28.7426 70.0299 23.8916L70.0293 23.8915ZM29.8168 69.5924C29.8168 70.7413 28.7958 71.7624 27.6468 71.7624H23.9448C22.7959 71.7624 21.7748 70.7414 21.7748 69.5924C21.7748 68.4434 22.7958 67.4224 23.9448 67.4224H27.6468C28.7957 67.4218 29.8168 68.4434 29.8168 69.5924ZM33.2635 63.3367C33.2635 64.4856 32.2425 65.5067 31.0936 65.5067H23.9448C22.7959 65.5067 21.7748 64.4857 21.7748 63.3367C21.7748 62.1877 22.7958 61.1667 23.9448 61.1667H31.0936C32.2425 61.2946 33.2635 62.1877 33.2635 63.3367ZM23.9448 59.3795C22.7959 59.3795 21.7748 58.3585 21.7748 57.2095C21.7748 56.0606 22.7958 55.0395 23.9448 55.0395H31.222C32.3709 55.0395 33.392 56.0605 33.392 57.2095C33.392 58.3584 32.371 59.3795 31.222 59.3795H23.9448ZM33.2635 50.9545C33.2635 52.2313 32.2425 53.1245 31.0936 53.1245H23.9442C22.6674 53.1245 21.7742 52.1035 21.7742 50.9545C21.7742 49.8056 22.6679 48.9119 23.8168 48.9119H31.0934C32.3697 48.9119 33.2634 49.8056 33.2634 50.9545H33.2635ZM24.2001 40.7416H17.6897L16.4129 34.4865H23.0512L22.4127 35.508C21.7743 37.0401 22.0296 38.6995 23.3064 39.8484L23.6896 40.2316C23.9448 40.3589 24.0721 40.6142 24.2001 40.7415L24.2001 40.7416ZM28.0295 32.5718H15.3914C10.5405 32.5718 6.71056 28.6145 6.71056 23.8909C6.71056 19.1679 10.6678 15.2101 15.3914 15.2101H28.0295V32.5718ZM29.9448 29.3803V18.4016C40.1571 18.1463 48.1996 14.6996 56.7522 9.46543V38.3161C48.1992 33.0827 40.1568 29.6359 29.9448 29.3806V29.3803ZM61.0921 43.4226C61.0921 44.061 60.5816 44.5715 59.9432 44.5715C59.3048 44.5715 58.7943 44.061 58.7943 43.4226V4.35984C58.7943 3.72143 59.3048 3.21093 59.9432 3.21093C60.5816 3.21093 61.0921 3.72143 61.0921 4.35984V43.4226ZM63.0068 31.423V16.4872C65.943 17.1256 68.113 20.1891 68.113 24.0191C68.113 27.721 65.943 30.7847 63.0068 31.4231V31.423Z" fill="url(#paint0_linear_1_8767)"/>
<path d="M70.0293 23.8915C70.0293 19.0406 66.9657 15.0834 63.0085 14.4449V4.23256C63.0085 2.4453 61.6043 1.16895 59.9448 1.16895C58.2855 1.16895 56.8812 2.57312 56.8812 4.23256V7.04088C46.4136 13.5513 39.0086 16.1043 30.0738 16.3596V13.1681L15.5199 13.1687C9.64794 13.1687 4.92434 17.8917 4.92434 23.7642C4.92434 29.2536 9.00946 33.7213 14.3709 34.3598L15.6478 40.6149H13.0948C11.9458 40.6149 10.7969 41.2533 10.0311 42.147L6.83965 46.6147H2.11606V48.5294H7.73269L11.5627 43.1679C11.9458 42.6574 12.4563 42.4021 12.9668 42.4021H28.4138C27.9033 44.8279 25.8608 46.7425 23.3076 46.7425H16.1589V48.6572H20.4993C20.1162 49.2956 19.8609 49.9341 19.8609 50.6998C19.8609 51.9766 20.4993 53.1255 21.393 53.8913C20.4994 54.7844 19.8609 55.9332 19.8609 57.21C19.8609 58.4869 20.4993 59.5079 21.393 60.2737C20.4994 61.0394 19.8609 62.0609 19.8609 63.3373C19.8609 64.6141 20.4993 65.6351 21.393 66.4009C20.4994 67.1667 19.8609 68.1882 19.8609 69.4645C19.8609 70.2303 20.1162 70.9966 20.4993 71.6345L12.5842 71.6351C12.0737 71.6351 11.5632 71.5072 11.0521 71.2519L8.75428 70.2309C7.86062 69.8478 6.83959 69.5925 5.94596 69.5925H0.711914V71.5072H5.94596C6.58438 71.5072 7.35014 71.6351 7.98852 72.0177L10.2864 73.1672C11.0521 73.5504 11.8185 73.6777 12.5842 73.6777H23.0519V73.5498C23.3072 73.5498 23.5624 73.6777 23.8177 73.6777H27.5196C29.8175 73.6777 31.6047 71.8904 31.6047 69.5926C31.6047 68.8268 31.3495 68.0605 30.9663 67.4226C33.2642 67.4226 35.0514 65.6353 35.0514 63.3375C35.0514 62.0606 34.413 61.0396 33.5193 60.2738C34.413 59.5081 35.0514 58.4866 35.0514 57.2102C35.0514 55.9334 34.413 54.7845 33.5193 54.1466C34.413 53.3809 35.0514 52.2319 35.0514 50.9551C35.0514 48.7851 33.2642 46.9979 31.0942 46.9979H28.1586C29.5628 45.721 30.4564 43.8064 30.4564 41.7638V40.7428H26.2439C26.116 39.9771 25.7334 39.3386 25.095 38.8281L24.7118 38.445C24.0734 37.9345 23.9461 37.0408 24.2013 36.275L24.9671 34.4877H29.946V31.2962C38.8821 31.4242 46.2864 34.1046 56.7534 40.615V43.4233C56.7534 45.2105 58.1575 46.4869 59.817 46.4869C61.4764 46.4869 62.8806 45.0827 62.8806 43.4233V33.2109C66.9657 32.7004 70.0299 28.7426 70.0299 23.8916L70.0293 23.8915ZM29.8168 69.5924C29.8168 70.7413 28.7958 71.7624 27.6468 71.7624H23.9448C22.7959 71.7624 21.7748 70.7414 21.7748 69.5924C21.7748 68.4434 22.7958 67.4224 23.9448 67.4224H27.6468C28.7957 67.4218 29.8168 68.4434 29.8168 69.5924ZM33.2635 63.3367C33.2635 64.4856 32.2425 65.5067 31.0936 65.5067H23.9448C22.7959 65.5067 21.7748 64.4857 21.7748 63.3367C21.7748 62.1877 22.7958 61.1667 23.9448 61.1667H31.0936C32.2425 61.2946 33.2635 62.1877 33.2635 63.3367ZM23.9448 59.3795C22.7959 59.3795 21.7748 58.3585 21.7748 57.2095C21.7748 56.0606 22.7958 55.0395 23.9448 55.0395H31.222C32.3709 55.0395 33.392 56.0605 33.392 57.2095C33.392 58.3584 32.371 59.3795 31.222 59.3795H23.9448ZM33.2635 50.9545C33.2635 52.2313 32.2425 53.1245 31.0936 53.1245H23.9442C22.6674 53.1245 21.7742 52.1035 21.7742 50.9545C21.7742 49.8056 22.6679 48.9119 23.8168 48.9119H31.0934C32.3697 48.9119 33.2634 49.8056 33.2634 50.9545H33.2635ZM24.2001 40.7416H17.6897L16.4129 34.4865H23.0512L22.4127 35.508C21.7743 37.0401 22.0296 38.6995 23.3064 39.8484L23.6896 40.2316C23.9448 40.3589 24.0721 40.6142 24.2001 40.7415L24.2001 40.7416ZM28.0295 32.5718H15.3914C10.5405 32.5718 6.71056 28.6145 6.71056 23.8909C6.71056 19.1679 10.6678 15.2101 15.3914 15.2101H28.0295V32.5718ZM29.9448 29.3803V18.4016C40.1571 18.1463 48.1996 14.6996 56.7522 9.46543V38.3161C48.1992 33.0827 40.1568 29.6359 29.9448 29.3806V29.3803ZM61.0921 43.4226C61.0921 44.061 60.5816 44.5715 59.9432 44.5715C59.3048 44.5715 58.7943 44.061 58.7943 43.4226V4.35984C58.7943 3.72143 59.3048 3.21093 59.9432 3.21093C60.5816 3.21093 61.0921 3.72143 61.0921 4.35984V43.4226ZM63.0068 31.423V16.4872C65.943 17.1256 68.113 20.1891 68.113 24.0191C68.113 27.721 65.943 30.7847 63.0068 31.4231V31.423Z" stroke="url(#paint1_linear_1_8767)" stroke-width="0.882497" mask="url(#path-1-outside-1_1_8767)"/>
<path d="M74.9794 40.6295L75.1354 40.7855L75.2914 40.6295L76.6452 39.2757L76.8012 39.1197L76.6452 38.9637L70.8683 33.1868L70.7123 33.0308L70.5563 33.1868L69.2025 34.5406L69.0464 34.6966L69.2025 34.8526L74.9794 40.6295Z" fill="url(#paint2_linear_1_8767)" stroke="url(#paint3_linear_1_8767)" stroke-width="0.441248"/>
<path d="M74.2417 22.7764H74.0211V22.9971V24.9117V25.1324H74.2417H82.4115H82.6321V24.9117V22.9971V22.7764H82.4115H74.2417Z" fill="url(#paint4_linear_1_8767)" stroke="url(#paint5_linear_1_8767)" stroke-width="0.441248"/>
<path d="M75.3168 7.12232L75.1607 6.96631L75.0047 7.12232L69.2278 12.8993L69.0718 13.0553L69.2278 13.2113L70.5816 14.5651L70.7376 14.7211L70.8936 14.5651L76.6706 8.78814L76.8266 8.63213L76.6706 8.47612L75.3168 7.12232Z" fill="url(#paint6_linear_1_8767)" stroke="url(#paint7_linear_1_8767)" stroke-width="0.441248"/>
<defs>
<linearGradient id="paint0_linear_1_8767" x1="35.3709" y1="1.16895" x2="35.3709" y2="73.6777" gradientUnits="userSpaceOnUse">
<stop stop-color="#333333"/>
<stop offset="1" stop-color="#141414"/>
</linearGradient>
<linearGradient id="paint1_linear_1_8767" x1="35.3709" y1="1.16895" x2="35.3709" y2="73.6777" gradientUnits="userSpaceOnUse">
<stop stop-color="#333333"/>
<stop offset="1" stop-color="#141414"/>
</linearGradient>
<linearGradient id="paint2_linear_1_8767" x1="72.9238" y1="33.3428" x2="72.9238" y2="40.4735" gradientUnits="userSpaceOnUse">
<stop stop-color="#333333"/>
<stop offset="1" stop-color="#141414"/>
</linearGradient>
<linearGradient id="paint3_linear_1_8767" x1="72.9238" y1="33.3428" x2="72.9238" y2="40.4735" gradientUnits="userSpaceOnUse">
<stop stop-color="#333333"/>
<stop offset="1" stop-color="#141414"/>
</linearGradient>
<linearGradient id="paint4_linear_1_8767" x1="78.3266" y1="22.9971" x2="78.3266" y2="24.9117" gradientUnits="userSpaceOnUse">
<stop stop-color="#333333"/>
<stop offset="1" stop-color="#141414"/>
</linearGradient>
<linearGradient id="paint5_linear_1_8767" x1="78.3266" y1="22.9971" x2="78.3266" y2="24.9117" gradientUnits="userSpaceOnUse">
<stop stop-color="#333333"/>
<stop offset="1" stop-color="#141414"/>
</linearGradient>
<linearGradient id="paint6_linear_1_8767" x1="72.9492" y1="7.27832" x2="72.9492" y2="14.4091" gradientUnits="userSpaceOnUse">
<stop stop-color="#333333"/>
<stop offset="1" stop-color="#141414"/>
</linearGradient>
<linearGradient id="paint7_linear_1_8767" x1="72.9492" y1="7.27832" x2="72.9492" y2="14.4091" gradientUnits="userSpaceOnUse">
<stop stop-color="#333333"/>
<stop offset="1" stop-color="#141414"/>
</linearGradient>
</defs>
</svg>
