<svg width="73" height="71" viewBox="0 0 73 71" fill="none" xmlns="http://www.w3.org/2000/svg">
<path d="M68.3321 0.785888L68.3323 0.779376H68.1027H4.70484C2.40052 0.779376 0.562579 2.62508 0.562579 5.03025V65.7058C0.562579 68.0062 2.40431 69.8481 4.70484 69.8481H68.1027C70.3951 69.8481 72.3535 68.0141 72.3535 65.7058L72.354 4.92151C72.354 2.69069 70.5244 0.90325 68.3321 0.785888ZM70.2784 5.03025V9.27596H2.63729V4.921C2.63729 3.84491 3.51403 2.86723 4.68133 2.85447H4.70484H68.1027C69.2882 2.85447 70.2784 3.84521 70.2784 5.03025ZM2.63767 65.7055V11.2412H35.4208V67.7721H4.70433C3.53518 67.7721 2.66164 66.9147 2.63767 65.7545V65.7055ZM67.7461 67.7714L67.7464 67.7721H37.4957V11.2412H70.2788V65.7042C70.2788 66.8766 69.3021 67.7714 68.103 67.7714H67.7461Z" fill="white" stroke="white" stroke-width="0.441248"/>
<path d="M62.9819 5.02791H62.7613V5.24854V6.88238V7.103H62.9819H64.6158H64.8364V6.88238V5.24854V5.02791H64.6158H62.9819Z" fill="white" stroke="white" stroke-width="0.441248"/>
<path d="M58.8433 5.02791H58.6226V5.24854V6.88238V7.103H58.8433H60.4771H60.6977V6.88238V5.24854V5.02791H60.4771H58.8433Z" fill="white" stroke="white" stroke-width="0.441248"/>
<path d="M54.7036 5.02791H54.483V5.24854V6.88238V7.103H54.7036H56.3375H56.5581V6.88238V5.24854V5.02791H56.3375H54.7036Z" fill="white" stroke="white" stroke-width="0.441248"/>
<path d="M7.64502 5.02791H7.4244V5.24854V6.88238V7.103H7.64502H49.5836H49.8042V6.88238V5.24854V5.02791H49.5836H7.64502Z" fill="white" stroke="white" stroke-width="0.441248"/>
<path d="M40.8673 28.6692V28.8898H41.0879H66.4693H66.6899V28.6692V14.8354V14.6148H66.4693H41.0879H40.8673V14.8354V28.6692ZM42.9424 16.6894H64.614V26.8147H42.9424V16.6894Z" fill="white" stroke="white" stroke-width="0.441248"/>
<path d="M40.8672 46.5334V46.754H41.0879H66.4692H66.6899V46.5334V32.6997V32.4791H66.4692H41.0879H40.8672V32.6997V46.5334ZM42.9423 34.5537H64.614V44.6789H42.9423V34.5537Z" fill="white" stroke="white" stroke-width="0.441248"/>
<path d="M40.8673 64.3986L40.8673 64.6193H41.0879H52.4171H52.6377L52.6377 64.3986L52.6372 50.5649L52.6372 50.3443H52.4166H41.0879H40.8673L40.8673 50.5649L40.8673 64.3986ZM42.9424 52.4189H50.5621V62.5442H42.9424V52.4189Z" fill="white" stroke="white" stroke-width="0.441248"/>
<path d="M54.918 64.3986V64.6193H55.1387H66.4679H66.6885V64.3986V50.5649V50.3443H66.4679H55.1387H54.918V50.5649V64.3986ZM56.9936 52.4189H64.6134V62.5442H56.9936V52.4189Z" fill="white" stroke="white" stroke-width="0.441248"/>
<path d="M6.55615 17.6627H6.33553V17.8833V19.5171V19.7378H6.55615H31.3926H31.6132V19.5171V17.8833V17.6627H31.3926H6.55615Z" fill="white" stroke="white" stroke-width="0.441248"/>
<path d="M6.55607 24.7437H6.33544V24.9644V26.5982V26.8188H6.55607H31.3925H31.6131V26.5982V24.9644V24.7437H31.3925H6.55607Z" fill="white" stroke="white" stroke-width="0.441248"/>
<path d="M6.55607 31.7154H6.33544V31.936V33.5699V33.7905H6.55607H31.3925H31.6131V33.5699V31.936V31.7154H31.3925H6.55607Z" fill="white" stroke="white" stroke-width="0.441248"/>
<path d="M6.55607 38.6876H6.33544V38.9082V40.542V40.7627H6.55607H31.3925H31.6131V40.542V38.9082V38.6876H31.3925H6.55607Z" fill="white" stroke="white" stroke-width="0.441248"/>
<path d="M6.55615 45.7677H6.33553V45.9883V47.6221V47.8427H6.55615H31.3926H31.6132V47.6221V45.9883V45.7677H31.3926H6.55615Z" fill="white" stroke="white" stroke-width="0.441248"/>
<path d="M6.55615 52.7403H6.33553V52.9609V54.5948V54.8154H6.55615H31.3926H31.6132V54.5948V52.9609V52.7403H31.3926H6.55615Z" fill="white" stroke="white" stroke-width="0.441248"/>
<path d="M6.55615 59.8204H6.33553V60.041V61.6748V61.8955H6.55615H31.3926H31.6132V61.6748V60.041V59.8204H31.3926H6.55615Z" fill="white" stroke="white" stroke-width="0.441248"/>
</svg>
