<svg width="84" height="83" viewBox="0 0 84 83" fill="none" xmlns="http://www.w3.org/2000/svg">
<path d="M46.4111 16.5673C49.8138 16.5673 52.5722 13.8089 52.5722 10.4062C52.5722 7.00353 49.8138 4.24512 46.4111 4.24512C43.0084 4.24512 40.25 7.00353 40.25 10.4062C40.25 13.8089 43.0084 16.5673 46.4111 16.5673Z" fill="white"/>
<path d="M75.2138 45.37C78.6165 45.37 81.3749 42.6116 81.3749 39.2089C81.3749 35.8063 78.6165 33.0479 75.2138 33.0479C71.8112 33.0479 69.0527 35.8063 69.0527 39.2089C69.0527 42.6116 71.8112 45.37 75.2138 45.37Z" fill="white"/>
<path d="M59.0127 79.5732C62.4153 79.5732 65.1737 76.8147 65.1737 73.4121C65.1737 70.0094 62.4153 67.251 59.0127 67.251C55.61 67.251 52.8516 70.0094 52.8516 73.4121C52.8516 76.8147 55.61 79.5732 59.0127 79.5732Z" fill="white"/>
<path d="M9.50875 63.3715C12.9114 63.3715 15.6698 60.6131 15.6698 57.2104C15.6698 53.8077 12.9114 51.0493 9.50875 51.0493C6.10607 51.0493 3.34766 53.8077 3.34766 57.2104C3.34766 60.6131 6.10607 63.3715 9.50875 63.3715Z" fill="white"/>
<path d="M46.7234 68.6167C46.4977 68.5461 46.2604 68.5206 46.0249 68.5419C45.7895 68.5631 45.5605 68.6306 45.3512 68.7404C45.1418 68.8503 44.9562 69.0004 44.805 69.1822C44.6538 69.3639 44.5399 69.5737 44.4699 69.7995C44.3995 70.0251 44.3742 70.2624 44.3955 70.4978C44.4169 70.7332 44.4844 70.9621 44.5942 71.1714C44.7041 71.3806 44.8541 71.5662 45.0357 71.7175C45.2173 71.8688 45.427 71.9827 45.6527 72.0529L49.2632 73.1768C49.293 71.9268 49.5512 70.7316 50.011 69.6393L46.7234 68.6167ZM10.6939 47.5289L10.4797 44.9634C9.60077 45.224 8.672 45.3701 7.7092 45.3701C7.4353 45.3701 7.16555 45.351 6.89746 45.3286L7.10081 47.7622C7.87271 47.5654 8.67698 47.4492 9.50947 47.4492C9.91036 47.4492 10.3046 47.4816 10.6939 47.5289ZM66.8019 61.5958C66.9805 61.1622 66.983 60.6761 66.8088 60.2408C66.6347 59.8055 66.2976 59.4552 65.8693 59.2644C65.441 59.0737 64.9552 59.0575 64.5151 59.2192C64.075 59.381 63.7154 59.7081 63.5126 60.1308L61.7663 64.0526C62.944 64.3995 64.0264 64.9656 64.9742 65.7001L66.8019 61.5958ZM20.7693 60.5375L18.8719 59.9466C18.5254 61.1257 17.9588 62.2285 17.2019 63.1968L19.6994 63.9746C20.1492 64.0964 20.6288 64.0391 21.0373 63.8147C21.4458 63.5903 21.7514 63.2164 21.8899 62.7714C22.0284 62.3264 21.989 61.845 21.7801 61.4285C21.5711 61.0119 21.2088 60.6925 20.7693 60.5375ZM34.207 18.7362C34.0864 18.5329 33.9269 18.3553 33.7376 18.2136C33.5484 18.0719 33.333 17.9689 33.1039 17.9105C32.8749 17.8521 32.6365 17.8394 32.4025 17.8731C32.1685 17.9068 31.9435 17.9863 31.7402 18.1071L23.949 22.7335C23.5553 22.9853 23.2749 23.3802 23.167 23.8349C23.0591 24.2895 23.1321 24.7683 23.3706 25.1702C23.6091 25.572 23.9945 25.8654 24.4453 25.9884C24.8961 26.1114 25.377 26.0544 25.7866 25.8294L33.5778 21.203C33.9882 20.9591 34.2849 20.5623 34.4029 20.0998C34.5208 19.6373 34.4504 19.1468 34.207 18.7362ZM38.0723 65.9234L29.4212 63.23C28.9703 63.1044 28.4882 63.1594 28.0771 63.3832C27.6661 63.6071 27.3584 63.9822 27.2192 64.4291C27.0801 64.876 27.1204 65.3595 27.3318 65.7772C27.5431 66.1948 27.9088 66.5137 28.3513 66.6662L37.0024 69.3596C37.4512 69.4785 37.9287 69.4195 38.3351 69.1949C38.7415 68.9703 39.0454 68.5974 39.1834 68.154C39.3215 67.7107 39.2829 67.2311 39.0759 66.8155C38.8689 66.3999 38.5093 66.0803 38.0723 65.9234ZM54.4864 17.873L60.1569 23.9345C60.3183 24.1075 60.5121 24.2469 60.7275 24.3448C60.9428 24.4427 61.1753 24.4971 61.4117 24.505C61.6481 24.5129 61.8838 24.474 62.1051 24.3906C62.3265 24.3073 62.5292 24.181 62.7017 24.0192C63.0501 23.693 63.2548 23.2419 63.2708 22.7649C63.2868 22.2879 63.1129 21.8241 62.7872 21.4752L56.7888 15.0635C56.2024 16.1348 55.4216 17.0876 54.4864 17.873ZM67.2003 51.8541C67.0936 52.0715 67.0318 52.3082 67.0186 52.55C67.0055 52.7919 67.0412 53.0339 67.1238 53.2616C67.2063 53.4893 67.334 53.698 67.499 53.8753C67.6641 54.0525 67.8632 54.1947 68.0845 54.2932C68.3058 54.3917 68.5446 54.4446 68.7868 54.4486C69.029 54.4527 69.2695 54.4079 69.4939 54.3169C69.7184 54.2258 69.9222 54.0905 70.0931 53.9189C70.264 53.7473 70.3986 53.543 70.4888 53.3182L72.5895 48.6013C71.4229 48.2742 70.3279 47.7317 69.3608 47.0019L67.2003 51.8541ZM71.1046 30.367L68.9757 28.092C68.8142 27.9194 68.6203 27.7803 68.405 27.6826C68.1898 27.585 67.9575 27.5307 67.7212 27.5228C67.485 27.5149 67.2495 27.5537 67.0283 27.6368C66.807 27.7199 66.6043 27.8458 66.4317 28.0073C66.2591 28.1688 66.12 28.3627 66.0223 28.5779C65.9247 28.7932 65.8704 29.0255 65.8625 29.2618C65.8547 29.498 65.8934 29.7335 65.9765 29.9547C66.0597 30.176 66.1856 30.3787 66.3471 30.5513L68.1556 32.4843C68.9986 31.6015 69.9986 30.8835 71.1046 30.367ZM16.4806 31.3555L17.9962 30.4558C18.3899 30.2041 18.6703 29.8091 18.7782 29.3545C18.8861 28.8998 18.8131 28.421 18.5746 28.0192C18.3361 27.6173 17.9508 27.3239 17.4999 27.2009C17.0491 27.0779 16.5682 27.1349 16.1586 27.3599L14.3226 28.4505C15.2162 29.2764 15.948 30.2616 16.4806 31.3555ZM73.8693 35.9562L73.1174 36.6385L72.5463 37.1763L73.8693 35.9562Z" fill="white"/>
<path d="M7.70796 41.7699C11.1106 41.7699 13.8691 39.0115 13.8691 35.6088C13.8691 32.2062 11.1106 29.4478 7.70796 29.4478C4.30529 29.4478 1.54688 32.2062 1.54688 35.6088C1.54688 39.0115 4.30529 41.7699 7.70796 41.7699Z" fill="white"/>
</svg>
