<svg width="87" height="86" viewBox="0 0 87 86" fill="none" xmlns="http://www.w3.org/2000/svg">
<path d="M45.4741 51.1201C49.1769 51.1201 52.1787 48.1183 52.1787 44.4155C52.1787 40.7127 49.1769 37.7109 45.4741 37.7109C41.7713 37.7109 38.7695 40.7127 38.7695 44.4155C38.7695 48.1183 41.7713 51.1201 45.4741 51.1201Z" fill="white"/>
<path d="M48.9819 83.9647C48.9036 83.9647 48.8245 83.9595 48.7462 83.9483C45.8186 83.5479 42.9729 82.6864 40.3148 81.3959C40.1115 81.2974 39.9296 81.1598 39.7795 80.991C39.6294 80.8222 39.5141 80.6254 39.4402 80.412C39.3662 80.1986 39.335 79.9727 39.3485 79.7472C39.3619 79.5217 39.4197 79.3011 39.5184 79.0979C39.617 78.8947 39.7546 78.7129 39.9234 78.5629C40.0923 78.4129 40.289 78.2976 40.5024 78.2236C40.7158 78.1497 40.9417 78.1185 41.1671 78.1319C41.3926 78.1452 41.6132 78.2029 41.8164 78.3016C44.1486 79.433 46.645 80.1885 49.2132 80.5401C49.437 80.5707 49.6527 80.6451 49.8477 80.759C50.0428 80.8729 50.2135 81.0242 50.3501 81.2041C50.4867 81.3841 50.5864 81.5892 50.6437 81.8077C50.701 82.0263 50.7146 82.2539 50.6838 82.4777C50.6272 82.8892 50.4237 83.2663 50.111 83.5395C49.7982 83.8128 49.3972 83.9638 48.9819 83.9647ZM57.243 83.8013C56.8141 83.7995 56.4013 83.6375 56.0856 83.3471C55.77 83.0567 55.5742 82.6588 55.5367 82.2316C55.4992 81.8043 55.6228 81.3784 55.8831 81.0375C56.1434 80.6965 56.5217 80.4652 56.9438 80.3888C59.496 79.9361 61.9603 79.0819 64.2452 77.8578C64.6462 77.6528 65.1116 77.6133 65.5415 77.7478C65.9713 77.8823 66.3312 78.18 66.544 78.5769C66.7567 78.9739 66.8052 79.4385 66.6792 79.8708C66.5531 80.3032 66.2625 80.6689 65.8697 80.8893C63.2649 82.2856 60.455 83.2595 57.5449 83.7746C57.4453 83.7928 57.3443 83.8018 57.243 83.8013ZM34.2828 76.8396C33.8545 76.8396 33.4253 76.6796 33.0917 76.3597C30.9606 74.3151 29.1642 71.9481 27.7683 69.3455C27.5526 68.9435 27.5055 68.4723 27.6372 68.0356C27.769 67.5988 28.0689 67.2323 28.4709 67.0166C28.8729 66.801 29.3441 66.7539 29.7808 66.8856C30.2176 67.0174 30.5841 67.3173 30.7998 67.7193C32.0261 70.0044 33.6036 72.0828 35.4747 73.8786C35.7224 74.1163 35.8933 74.4227 35.9654 74.7583C36.0375 75.0939 36.0075 75.4434 35.8793 75.7619C35.7511 76.0803 35.5306 76.3531 35.2461 76.5452C34.9615 76.7372 34.626 76.8398 34.2828 76.8396ZM71.6498 76.0982C71.3123 76.0984 70.9822 75.9993 70.7007 75.8133C70.4191 75.6273 70.1985 75.3625 70.0663 75.052C69.9341 74.7415 69.8962 74.399 69.9572 74.0671C70.0183 73.7352 70.1756 73.4286 70.4096 73.1854C72.2088 71.3184 73.7029 69.1798 74.8369 66.8481C75.0368 66.438 75.3912 66.124 75.8223 65.975C76.2535 65.826 76.7262 65.8542 77.1366 66.0534C77.5466 66.2533 77.8607 66.6077 78.0096 67.0389C78.1586 67.47 78.1304 67.9427 77.9312 68.3531C76.6386 71.0081 74.9371 73.4438 72.889 75.5711C72.7288 75.7381 72.5364 75.8709 72.3234 75.9615C72.1104 76.0521 71.8812 76.0986 71.6498 76.0982ZM26.5668 62.4406C26.1636 62.44 25.7733 62.2978 25.4643 62.0387C25.1552 61.7797 24.947 61.4203 24.8761 61.0233C24.3581 58.1169 24.2963 55.1475 24.6929 52.2221C24.7551 51.7704 24.9937 51.3619 25.3566 51.0859C25.7195 50.8099 26.1769 50.689 26.6288 50.7497C26.8526 50.78 27.0683 50.8541 27.2635 50.9678C27.4587 51.0815 27.6296 51.2326 27.7663 51.4124C27.9031 51.5922 28.003 51.7972 28.0605 52.0157C28.1179 52.2341 28.1317 52.4618 28.1011 52.6856C27.7522 55.256 27.8064 57.8651 28.2619 60.4187C28.306 60.6664 28.2953 60.9208 28.2305 61.1638C28.1657 61.4069 28.0483 61.6328 27.8867 61.8256C27.725 62.0184 27.5231 62.1734 27.295 62.2797C27.067 62.3859 26.8184 62.4408 26.5668 62.4406ZM78.7895 61.4103C78.5436 61.4106 78.3005 61.3582 78.0765 61.2566C77.8526 61.155 77.653 61.0066 77.4913 60.8214C77.3296 60.6361 77.2095 60.4183 77.1391 60.1827C77.0687 59.9471 77.0497 59.6991 77.0832 59.4555C77.4366 56.8854 77.3878 54.2759 76.9388 51.7207C76.8957 51.4966 76.8976 51.2662 76.9444 51.0429C76.9912 50.8196 77.082 50.6078 77.2114 50.4199C77.3409 50.232 77.5065 50.0718 77.6984 49.9485C77.8904 49.8252 78.1051 49.7414 78.3298 49.7018C78.5545 49.6623 78.7848 49.6679 79.0074 49.7182C79.2299 49.7686 79.4402 49.8627 79.626 49.9951C79.8119 50.1275 79.9695 50.2956 80.0897 50.4895C80.2099 50.6835 80.2903 50.8994 80.3263 51.1247C80.8371 54.0319 80.8928 57.0008 80.4914 59.9251C80.4348 60.3364 80.2312 60.7133 79.9184 60.9862C79.6056 61.2592 79.2046 61.4098 78.7895 61.4103ZM28.7839 46.258C28.4927 46.2578 28.2064 46.1836 27.9517 46.0425C27.6969 45.9014 27.4822 45.698 27.3276 45.4512C27.173 45.2045 27.0835 44.9225 27.0677 44.6318C27.0518 44.341 27.11 44.051 27.2368 43.7889C28.5239 41.1308 30.2214 38.6918 32.2669 36.5615C32.4233 36.3984 32.6102 36.2678 32.8171 36.177C33.0239 36.0863 33.2466 36.0371 33.4724 36.0324C33.6983 36.0277 33.9228 36.0675 34.1333 36.1496C34.3437 36.2316 34.536 36.3544 34.699 36.5107C34.862 36.6671 34.9927 36.854 35.0834 37.0609C35.1742 37.2677 35.2234 37.4904 35.2281 37.7163C35.2328 37.9421 35.193 38.1666 35.1109 38.3771C35.0288 38.5876 34.9061 38.7798 34.7497 38.9428C32.9543 40.8134 31.4641 42.9545 30.3336 45.2879C30.1926 45.5788 29.9723 45.8242 29.6983 45.9958C29.4242 46.1673 29.1073 46.2582 28.7839 46.258ZM75.9326 45.3274C75.6206 45.3277 75.3144 45.2431 75.0469 45.0827C74.7793 44.9222 74.5605 44.692 74.4138 44.4167C73.1916 42.1294 71.6175 40.0483 69.7492 38.2496C69.5819 38.0941 69.4473 37.9067 69.3532 37.6986C69.2591 37.4904 69.2075 37.2656 69.2012 37.0373C69.195 36.8089 69.2343 36.5816 69.3168 36.3687C69.3993 36.1557 69.5235 35.9613 69.682 35.7968C69.8405 35.6323 70.0301 35.501 70.2399 35.4106C70.4497 35.3202 70.6754 35.2725 70.9038 35.2703C71.1322 35.268 71.3588 35.3113 71.5703 35.3976C71.7818 35.4839 71.974 35.6115 72.1357 35.7728C74.2633 37.8212 76.0556 40.1913 77.447 42.7965C77.587 43.0583 77.6569 43.352 77.6497 43.6489C77.6425 43.9458 77.5586 44.2358 77.4062 44.4906C77.2537 44.7454 77.0378 44.9565 76.7796 45.1031C76.5213 45.2497 76.2295 45.327 75.9326 45.3274ZM40.0921 34.4665C39.7087 34.467 39.3361 34.3395 39.0335 34.1041C38.731 33.8687 38.5157 33.5389 38.4219 33.1672C38.3281 32.7955 38.3613 32.4031 38.516 32.0523C38.6707 31.7016 38.9382 31.4126 39.2759 31.2312C41.8784 29.8308 44.6865 28.852 47.5956 28.3313C48.039 28.2639 48.4912 28.3723 48.8559 28.6335C49.2206 28.8946 49.4689 29.2878 49.548 29.7293C49.627 30.1709 49.5305 30.6258 49.2791 30.9972C49.0277 31.3687 48.6411 31.6273 48.2019 31.7179C45.6506 32.175 43.188 33.0336 40.9056 34.2618C40.6554 34.3959 40.3759 34.4662 40.0921 34.4665ZM63.417 33.8181L63.3155 33.7682C60.9878 32.6452 58.4971 31.8973 55.9358 31.552C55.4837 31.4908 55.0744 31.2527 54.7978 30.8898C54.5212 30.527 54.4 30.0691 54.4609 29.617C54.5233 29.1655 54.7619 28.7571 55.1244 28.4809C55.487 28.2047 55.9441 28.0832 56.3959 28.1429C59.3248 28.5378 62.1727 29.3944 64.8334 30.6808L64.1678 32.2701L63.417 33.8181ZM29.8778 9.27022C29.5269 9.2704 29.1844 9.16325 28.8961 8.96316C28.6079 8.76306 28.3877 8.47959 28.2652 8.15078C28.1427 7.82197 28.1237 7.46356 28.2107 7.12363C28.2977 6.7837 28.4866 6.47852 28.7521 6.24904L32.0055 3.43684C32.2319 3.24145 32.5053 3.1084 32.7987 3.0508C33.0922 2.99319 33.3956 3.01302 33.679 3.10832L37.7546 4.47916C37.9714 4.54895 38.1721 4.66111 38.3452 4.80912C38.5183 4.95712 38.6603 5.13804 38.763 5.34136C38.8656 5.54468 38.9268 5.76635 38.9431 5.99352C38.9594 6.22069 38.9303 6.44883 38.8577 6.6647C38.7851 6.88057 38.6704 7.07987 38.5202 7.25104C38.3699 7.42221 38.1872 7.56183 37.9825 7.66181C37.7779 7.76179 37.5555 7.82014 37.3281 7.83346C37.1007 7.84678 36.873 7.81482 36.6581 7.73942L33.5131 6.68162L31.0027 8.8514C30.6904 9.12183 30.291 9.27053 29.8778 9.27022ZM17.9281 19.5997C17.5772 19.5999 17.2347 19.4927 16.9464 19.2926C16.6582 19.0925 16.438 18.8091 16.3155 18.4802C16.193 18.1514 16.174 17.793 16.261 17.4531C16.348 17.1132 16.5369 16.808 16.8024 16.5785L22.7768 11.4133C23.1219 11.115 23.5714 10.966 24.0264 10.999C24.4813 11.0321 24.9045 11.2445 25.2029 11.5896C25.5012 11.9347 25.6502 12.3842 25.6172 12.8392C25.5841 13.2942 25.3717 13.7174 25.0266 14.0157L19.0522 19.1809C18.7402 19.4514 18.341 19.6001 17.9281 19.5997ZM9.20343 31.8469C8.34343 31.8469 7.60125 31.2037 7.49805 30.329L6.99151 26.0591C6.95832 25.7799 6.99412 25.4967 7.09577 25.2345C7.19743 24.9722 7.36184 24.7389 7.57459 24.555L10.8271 21.7428C10.998 21.5951 11.1963 21.4825 11.4107 21.4114C11.6251 21.3403 11.8514 21.3121 12.0767 21.3285C12.3019 21.3449 12.5218 21.4055 12.7237 21.5068C12.9255 21.6081 13.1055 21.7482 13.2532 21.9191C13.4009 22.09 13.5135 22.2883 13.5846 22.5027C13.6557 22.7171 13.6838 22.9434 13.6675 23.1686C13.6511 23.3939 13.5905 23.6138 13.4892 23.8156C13.3879 24.0175 13.2477 24.1974 13.0769 24.3452L10.5149 26.5597L10.914 29.9231C10.9427 30.1647 10.9198 30.4096 10.8469 30.6417C10.774 30.8737 10.6528 31.0877 10.4912 31.2695C10.3295 31.4513 10.1312 31.5968 9.9092 31.6963C9.68724 31.7958 9.44669 31.8472 9.20343 31.8469ZM11.2236 48.862C10.3636 48.862 9.62139 48.2196 9.51819 47.3441L8.50769 38.8379C8.47978 38.613 8.49659 38.3848 8.55715 38.1664C8.61772 37.948 8.72084 37.7438 8.86059 37.5653C9.00035 37.3869 9.17399 37.2379 9.37152 37.1268C9.56905 37.0158 9.78659 36.9448 10.0116 36.9181C10.2367 36.8913 10.4648 36.9093 10.6829 36.971C10.9009 37.0327 11.1046 37.1369 11.2823 37.2776C11.46 37.4183 11.6081 37.5927 11.7182 37.7908C11.8282 37.9889 11.898 38.2068 11.9236 38.432L12.9333 46.9399C12.9618 47.1813 12.9389 47.426 12.866 47.6579C12.7931 47.8898 12.6719 48.1036 12.5103 48.2852C12.3488 48.4668 12.1506 48.6121 11.9288 48.7115C11.707 48.811 11.4666 48.8623 11.2236 48.862ZM17.0251 62.0458C16.971 62.0458 16.9168 62.0433 16.8609 62.0381L12.5798 61.633C12.1883 61.596 11.8214 61.4259 11.5402 61.1511C11.2589 60.8763 11.0804 60.5134 11.0344 60.1229L10.5278 55.853C10.474 55.4 10.6023 54.9442 10.8846 54.5858C11.1668 54.2275 11.5799 53.9959 12.0328 53.9421C12.9728 53.8414 13.8311 54.5036 13.9429 55.4479L14.286 58.3384L17.1851 58.6119C17.6288 58.6488 18.041 58.8564 18.3348 59.191C18.6286 59.5256 18.7812 59.9612 18.7605 60.406C18.7398 60.8508 18.5473 61.2702 18.2237 61.5761C17.9 61.8819 17.4704 62.0503 17.0251 62.0458ZM45.4731 64.7368C45.4198 64.7368 45.3647 64.7342 45.3097 64.729L38.1975 64.0565C37.9726 64.0352 37.754 63.9699 37.5544 63.8641C37.3548 63.7584 37.1779 63.6143 37.0339 63.4403C36.8899 63.2662 36.7816 63.0654 36.7152 62.8495C36.6488 62.6335 36.6256 62.4066 36.6469 62.1817C36.6682 61.9568 36.7336 61.7383 36.8393 61.5387C36.945 61.339 37.0891 61.1621 37.2632 61.0182C37.4373 60.8742 37.638 60.7659 37.8539 60.6995C38.0699 60.6331 38.2968 60.6099 38.5217 60.6311L45.6339 61.3037C46.0723 61.3476 46.4772 61.558 46.7651 61.8915C47.053 62.2251 47.202 62.6563 47.1814 63.0965C47.1608 63.5366 46.9721 63.9521 46.6543 64.2572C46.3365 64.5624 45.9137 64.7341 45.4731 64.7368Z" fill="white"/>
<path d="M31.2488 63.3914C31.1939 63.3913 31.1391 63.3888 31.0845 63.3836L23.9723 62.7111C23.7474 62.6898 23.5289 62.6244 23.3292 62.5187C23.1296 62.413 22.9527 62.2689 22.8087 62.0948C22.6647 61.9207 22.5565 61.72 22.4901 61.5041C22.4236 61.2881 22.4004 61.0612 22.4217 60.8363C22.443 60.6114 22.5084 60.3929 22.6141 60.1932C22.7199 59.9936 22.8639 59.8167 23.038 59.6727C23.2121 59.5287 23.4128 59.4205 23.6288 59.3541C23.8447 59.2876 24.0716 59.2644 24.2965 59.2857L31.4087 59.9582C31.8504 59.9978 32.2597 60.2064 32.5512 60.5406C32.8427 60.8747 32.9939 61.3085 32.9733 61.7514C32.9527 62.1944 32.7618 62.6122 32.4404 62.9178C32.1191 63.2234 31.6922 63.393 31.2488 63.3914ZM56.8656 65.8148C56.8114 65.8148 56.7564 65.8123 56.7022 65.8071L52.4202 65.402C51.9661 65.3589 51.5476 65.1372 51.2568 64.7856C50.9661 64.4341 50.8268 63.9814 50.8697 63.5272C50.8895 63.3018 50.9539 63.0825 51.0591 62.8821C51.1644 62.6817 51.3084 62.5042 51.4828 62.3599C51.6573 62.2157 51.8586 62.1075 52.0752 62.0417C52.2918 61.9759 52.5193 61.9538 52.7445 61.9767L55.5205 62.2398L56.1372 59.5214C56.2379 59.0765 56.5112 58.6898 56.8969 58.4464C57.2827 58.2031 57.7494 58.1229 58.1943 58.2236C58.6392 58.3243 59.0258 58.5976 59.2692 58.9834C59.5126 59.3692 59.5927 59.8359 59.492 60.2807L58.5426 64.4741C58.4563 64.8545 58.2433 65.1943 57.9387 65.4379C57.634 65.6815 57.2556 65.8144 56.8656 65.8148ZM59.5987 53.7525C59.3403 53.7527 59.0852 53.6947 58.8523 53.5828C58.6194 53.4709 58.4148 53.308 58.2535 53.1061C58.0922 52.9043 57.9785 52.6687 57.9207 52.4169C57.863 52.1651 57.8627 51.9035 57.9199 51.6515L59.7027 43.7825C59.7513 43.5609 59.8433 43.3511 59.9734 43.1652C60.1034 42.9794 60.2689 42.821 60.4604 42.6994C60.6519 42.5777 60.8656 42.4952 61.0891 42.4564C61.3126 42.4177 61.5416 42.4236 61.7629 42.4737C61.9841 42.5239 62.1933 42.6173 62.3783 42.7486C62.5633 42.8799 62.7205 43.0465 62.8408 43.2388C62.9611 43.4311 63.0422 43.6453 63.0795 43.8691C63.1167 44.0929 63.1092 44.3218 63.0576 44.5427L61.2748 52.4117C61.1885 52.792 60.9757 53.1317 60.6712 53.3753C60.3667 53.6188 59.9886 53.7518 59.5987 53.7525ZM63.1642 38.0145C62.9058 38.0147 62.6508 37.9567 62.4179 37.8448C62.185 37.7329 61.9803 37.57 61.819 37.3681C61.6578 37.1663 61.544 36.9307 61.4863 36.6789C61.4285 36.4271 61.4283 36.1654 61.4855 35.9135L63.2683 28.0445C63.3169 27.8229 63.4089 27.6131 63.5389 27.4272C63.669 27.2414 63.8345 27.083 64.026 26.9614C64.2175 26.8397 64.4311 26.7572 64.6547 26.7184C64.8782 26.6797 65.1072 26.6856 65.3284 26.7357C65.5497 26.7859 65.7588 26.8793 65.9438 27.0106C66.1288 27.1419 66.286 27.3085 66.4064 27.5008C66.5267 27.6931 66.6078 27.9073 66.645 28.1311C66.6822 28.3549 66.6748 28.5838 66.6231 28.8047L64.8404 36.6737C64.7541 37.054 64.5413 37.3937 64.2368 37.6373C63.9323 37.8808 63.5541 38.0138 63.1642 38.0145ZM66.7306 22.2756C66.4723 22.2758 66.2172 22.2178 65.9843 22.106C65.7514 21.9941 65.5467 21.8311 65.3855 21.6293C65.2242 21.4274 65.1104 21.1919 65.0527 20.94C64.995 20.6882 64.9947 20.4266 65.0519 20.1746L65.6591 17.4966L63.0559 16.6203C62.8391 16.5505 62.6383 16.4383 62.4652 16.2903C62.2921 16.1423 62.1501 15.9614 62.0475 15.7581C61.9448 15.5547 61.8836 15.3331 61.8673 15.1059C61.8511 14.8787 61.8801 14.6506 61.9527 14.4347C62.0253 14.2188 62.14 14.0195 62.2903 13.8484C62.4405 13.6772 62.6233 13.5376 62.8279 13.4376C63.0325 13.3376 63.255 13.2793 63.4823 13.266C63.7097 13.2526 63.9375 13.2846 64.1524 13.36L68.2279 14.7308C68.6318 14.8665 68.9709 15.1473 69.1794 15.5188C69.3878 15.8904 69.4509 16.3261 69.3562 16.7415L68.4059 20.9349C68.32 21.3151 68.1074 21.6549 67.803 21.8985C67.4986 22.1421 67.1205 22.2751 66.7306 22.2756ZM54.8033 13.7504C54.6218 13.7504 54.4369 13.7212 54.2546 13.6601L45.4551 10.7C45.2383 10.6302 45.0375 10.5181 44.8644 10.3701C44.6913 10.2221 44.5493 10.0411 44.4467 9.83782C44.3441 9.6345 44.2829 9.41283 44.2666 9.18566C44.2503 8.95849 44.2793 8.73035 44.3519 8.51448C44.4245 8.29861 44.5393 8.09931 44.6895 7.92814C44.8398 7.75697 45.0225 7.61735 45.2271 7.51737C45.4318 7.41738 45.6542 7.35904 45.8816 7.34572C46.1089 7.3324 46.3367 7.36436 46.5516 7.43976L55.3511 10.3999C55.738 10.5298 56.0661 10.793 56.2768 11.1426C56.4875 11.4921 56.567 11.9052 56.5012 12.308C56.4353 12.7108 56.2284 13.077 55.9173 13.3412C55.6063 13.6055 55.2114 13.7505 54.8033 13.7504Z" fill="white"/>
</svg>
