<svg width="92" height="81" viewBox="0 0 92 81" fill="none" xmlns="http://www.w3.org/2000/svg">
<path d="M65.7096 40.9006C65.5927 40.899 65.4928 40.9845 65.4762 41.1002L65.3603 41.9062L65.3602 41.9062L65.3596 41.9112C64.9031 45.6626 63.3043 49.1896 60.7883 52.1509C56.674 56.9296 50.6163 59.4349 44.2103 59.0935L44.2104 59.0932H44.198H43.3884C43.2784 59.0932 43.1833 59.1703 43.1607 59.278L39.576 76.3192C39.5626 76.3829 39.5765 76.4493 39.6143 76.5023C39.6521 76.5553 39.7103 76.59 39.7749 76.598L40.6958 76.7129C40.6965 76.713 40.6972 76.7131 40.6979 76.7132C42.326 76.9446 43.8397 77.0608 45.4699 77.0608C56.639 77.0608 67.112 72.1953 74.2099 63.8528C79.4446 57.7143 82.4699 50.3004 83.0529 42.3083L83.168 41.3934C83.1763 41.3277 83.1562 41.2615 83.1127 41.2116C83.0692 41.1616 83.0065 41.1325 82.9403 41.1317L65.7096 40.9006ZM57.7184 57.6618C59.0835 56.7993 60.3521 55.7473 61.5239 54.5064L69.6719 65.3978C68.397 66.5531 67.1258 67.6009 65.7654 68.4563L57.7184 57.6618ZM42.3964 74.4329L43.9724 66.9001L49.5399 74.3265C48.2917 74.4291 47.0421 74.5212 45.7002 74.5212C45.6925 74.5212 45.6848 74.5216 45.6771 74.5224C44.6304 74.6268 43.4812 74.538 42.3964 74.4329ZM72.8107 62.1718C72.5262 62.5114 72.2413 62.8235 71.9527 63.1396L71.9517 63.1407C71.7255 63.3885 71.497 63.6387 71.2679 63.9038L62.9959 52.8854C64.1401 51.5105 65.0929 49.9491 65.769 48.2861L74.4463 59.9169C74.0057 60.6648 73.4619 61.4149 72.8144 62.1674C72.8132 62.1688 72.812 62.1703 72.8107 62.1718ZM67.5107 42.9835L70.9061 43.0894L78.3903 53.1379C77.6453 54.8178 76.8028 56.404 75.8616 57.9865L66.775 45.8118C67.0847 44.8645 67.3017 43.9188 67.5107 42.9835ZM59.3098 71.824L50.8375 60.5025C52.5152 60.0713 54.1955 59.5307 55.6969 58.7077L63.8584 69.616C62.375 70.4496 60.8888 71.1854 59.3098 71.824ZM44.5622 64.1063L45.1945 61.1703C46.3399 61.1699 47.4164 61.1603 48.4918 60.9633L57.2378 72.6862C55.5445 73.2962 53.8442 73.7179 52.0447 74.0398L44.5622 64.1063ZM79.2812 50.781L73.5692 43.0926H81.0535C80.7228 45.7243 80.1913 48.2563 79.2812 50.781Z" fill="white" stroke="white" stroke-width="0.46543" stroke-linejoin="round"/>
<path d="M23.4645 8.82875L22.7739 9.40207C20.682 11.0225 18.7069 12.874 16.9633 14.8409L16.9632 14.8408L16.9607 14.8438C3.46259 30.6013 5.44034 54.467 21.2654 67.792C25.3378 71.2679 30.1095 73.8173 35.2308 75.2079L35.2356 75.2091L36.1605 75.4393C36.2218 75.4546 36.2867 75.4442 36.3402 75.4107C36.3938 75.3771 36.4314 75.3232 36.4444 75.2614L40.0291 58.2202C40.0535 58.1043 39.987 57.9887 39.8747 57.9514L39.181 57.7212L39.1811 57.721L39.1714 57.7182C36.7796 57.0377 34.7298 55.9048 32.9059 54.3167C32.904 54.3149 32.902 54.3132 32.8999 54.3114C28.8981 50.8956 26.3837 46.1156 25.9266 40.8817C25.4699 35.651 27.182 30.5304 30.6135 26.4303C31.2981 25.6349 31.9827 24.9537 32.7815 24.2714L33.3567 23.8134C33.4508 23.7385 33.4723 23.6042 33.4063 23.5037L23.8077 8.88011C23.7713 8.82473 23.7131 8.78747 23.6476 8.77766C23.5821 8.76786 23.5155 8.78644 23.4645 8.82875ZM23.7283 41.1497L23.7283 41.1501C24.1959 46.9708 27.002 52.3227 31.4404 56.1609L31.4404 56.161L31.4463 56.1658C33.2643 57.6364 35.3051 58.888 37.5685 59.8121L34.7716 72.8437C30.3859 71.4638 26.3333 69.2038 22.7224 66.17C7.78837 53.5878 5.94913 31.1681 18.5861 16.2978C19.9129 14.7567 21.4505 13.217 23.0972 11.8823L30.5909 23.2414C29.9506 23.8018 29.4064 24.4518 28.8757 25.0858L28.8713 25.091C25.0125 29.5163 23.2608 35.2204 23.7283 41.1497Z" fill="white" stroke="white" stroke-width="0.46543" stroke-linejoin="round"/>
<path d="M83.0518 36.759C83.1804 36.759 83.2846 36.6548 83.2846 36.5263V34.7993C83.2846 34.6708 83.1804 34.5666 83.0518 34.5666H79.584V4.97754C79.584 4.84901 79.4798 4.74482 79.3513 4.74482H71.2564C71.1279 4.74482 71.0237 4.84901 71.0237 4.97754V34.5666H68.5981L68.5986 11.311C68.5986 11.2493 68.5741 11.1901 68.5305 11.1465C68.4868 11.1028 68.4276 11.0783 68.3659 11.0783H60.271C60.1425 11.0783 60.0383 11.1825 60.0383 11.311V34.5666H57.6127V17.5283C57.6127 17.3997 57.5085 17.2955 57.38 17.2955H49.2851C49.1566 17.2955 49.0524 17.3997 49.0524 17.5283V34.5666H46.6268V23.17C46.6268 23.0415 46.5226 22.9373 46.3941 22.9373H38.2992C38.1706 22.9373 38.0665 23.0415 38.0665 23.17V34.5666H34.5986C34.4701 34.5666 34.3659 34.6708 34.3659 34.7993V36.5263C34.3659 36.6548 34.4701 36.759 34.5986 36.759H83.0518ZM73.2241 6.93723H77.3842V34.5656H73.2241V6.93723ZM62.2382 13.2703H66.3982V34.5665H62.2382V13.2703ZM51.2523 19.4875H55.4123V34.5665H51.2523V19.4875ZM40.2669 25.1299H44.4269V34.5669H40.2669V25.1299Z" fill="white" stroke="white" stroke-width="0.46543" stroke-linejoin="round"/>
</svg>
