<svg width="108" height="87" viewBox="0 0 108 87" fill="none" xmlns="http://www.w3.org/2000/svg">
<g clip-path="url(#clip0_23_2648)">
<path d="M58.8913 63.5612L58.9628 63.1701L58.5381 63.396L56.8458 64.2958L56.6364 64.4071L56.7517 64.6144C60.4169 71.2052 65.7817 76.7603 72.0618 80.7645L72.2601 80.891L72.3845 80.6914L73.4257 79.0205L73.5488 78.8229L73.3512 78.6999C67.4184 75.0073 62.3854 69.792 58.8913 63.5612Z" fill="white" stroke="white" stroke-width="0.46543"/>
<path d="M57.4458 35.4813L57.5129 35.2182H57.2134H55.2607H55.028V35.4509C55.028 52.6626 60.4816 64.3611 68.2988 71.7557C76.112 79.1466 86.2625 82.2152 95.6192 82.2152H95.8519V81.9825V80.0546V79.8219H95.6192C86.8151 79.8219 77.2747 76.9136 69.937 69.9245C62.6075 62.943 57.4519 51.8668 57.4458 35.4813Z" fill="white" stroke="white" stroke-width="0.46543"/>
<path d="M62.2632 35.2181H60.3389H60.1062V35.4509C60.1062 50.8616 64.8753 61.3065 71.7156 67.8982C78.5525 74.4866 87.4344 77.2022 95.62 77.2022H95.8527V76.9694V75.0415V74.8088L95.62 74.8088C87.9894 74.8085 79.7194 72.2224 73.3581 66.0212C67 59.8229 62.5254 49.9901 62.5254 35.4506V35.1534L62.2632 35.2181Z" fill="white" stroke="white" stroke-width="0.46543"/>
<path d="M67.3423 35.2181H65.418H65.1853V35.4509C65.1853 48.9928 69.1049 58.2158 74.8862 64.0538C80.666 69.8902 88.2807 72.3174 95.6218 72.3174H95.8545V72.0847V70.1568V69.9285L95.6263 69.9241C92.3251 69.8601 85.321 69.2201 79.1461 64.6194C72.9841 60.0284 67.6045 51.4604 67.6045 35.4506V35.1534L67.3423 35.2181Z" fill="white" stroke="white" stroke-width="0.46543"/>
<path d="M34.4628 78.9406L34.471 78.9834L34.494 79.0203L35.5352 80.6911L35.6566 80.886L35.8531 80.7672C42.2689 76.8886 47.5046 71.331 51.1689 64.6125L51.2815 64.406L51.0738 64.2956L49.3816 63.3957L49.1802 63.2887L49.0691 63.4878C45.5734 69.7514 40.5243 74.9928 34.5684 78.6993L34.433 78.7836L34.4628 78.9403L34.4628 78.9406Z" fill="white" stroke="white" stroke-width="0.46543"/>
<path d="M12.0923 79.9496L12.0671 79.9993V80.0549V81.9829V82.2156H12.2998C21.6564 82.2156 31.807 79.147 39.6202 71.7562C47.4374 64.3616 52.8909 52.6631 52.8909 35.4513V35.2186H52.6582H50.705H50.4723V35.4513C50.4723 51.8527 45.3153 62.9379 37.9818 69.9235C30.6445 76.9127 21.1045 79.821 12.3004 79.821H12.1575L12.0929 79.9484L12.0923 79.9496Z" fill="white" stroke="white" stroke-width="0.46543"/>
<path d="M47.6365 35.225L47.609 35.2182H47.5807H45.6281H45.3953V35.4509C45.3953 50.0548 40.9207 59.8875 34.5629 66.0696C28.202 72.2547 19.932 74.8091 12.3008 74.8091H12.0681V75.0419V76.9698V77.2025H12.3008C20.4864 77.2025 29.3683 74.4869 36.2052 67.8985C43.0455 61.3068 47.8146 50.8619 47.8146 35.4512V35.269L47.6377 35.2253L47.6365 35.225Z" fill="white" stroke="white" stroke-width="0.46543"/>
<path d="M42.5582 35.225L42.5307 35.2182H42.5024H40.5498H40.3171V35.4509C40.3171 51.4604 34.9371 60.0608 28.7748 64.6679C22.5997 69.2847 15.5959 69.9244 12.2998 69.9244H12.0671V70.1572V72.0851V72.3199L12.3019 72.3178C19.6407 72.253 27.2549 69.8263 33.0347 64.0063C38.8163 58.1844 42.7364 48.9935 42.7364 35.4512V35.269L42.5594 35.2253L42.5582 35.225Z" fill="white" stroke="white" stroke-width="0.46543"/>
<path d="M53.3564 1.80482L48.7244 11.8407L37.658 13.1115L37.1491 13.1699L37.5279 13.5148L45.762 21.0099L43.5752 31.8062L43.4739 32.3062L43.918 32.0549L53.5676 26.5925L63.2172 32.0549L63.6612 32.3062L63.5599 31.8062L61.3734 21.0099L69.6075 13.5148L69.9864 13.1699L69.4774 13.1115L58.411 11.8407L53.779 1.80482L53.5677 1.34702L53.3564 1.80482ZM53.6831 23.9378L53.5683 23.8727L53.4536 23.9377L46.8658 27.6716L48.329 20.3292L48.3548 20.1995L48.2565 20.1109L42.6528 15.0591L50.2096 14.2167L50.34 14.2021L50.395 14.083L53.5683 7.21396L56.7416 14.0836L56.7967 14.2027L56.9271 14.2172L64.4838 15.0597L58.8801 20.1115L58.7819 20.2001L58.8077 20.3298L60.2708 27.6722L53.6831 23.9378Z" fill="white" stroke="white" stroke-width="0.46543"/>
</g>
<defs>
<clipPath id="clip0_23_2648">
<rect width="106.527" height="85.6391" fill="white" transform="translate(0.697266 0.753784)"/>
</clipPath>
</defs>
</svg>
