<svg width="89" height="95" viewBox="0 0 89 95" fill="none" xmlns="http://www.w3.org/2000/svg">
<path d="M18.3831 23.0325C24.0444 17.3065 31.4934 13.6005 39.4626 12.5408C40.1888 14.5988 42.0538 16.2609 44.4515 16.2609C47.3148 16.2609 49.7748 13.969 49.7748 10.9942C49.7748 8.02386 47.4495 5.72749 44.4515 5.72749C41.7882 5.72749 39.6394 7.65656 39.2834 10.1397C30.684 11.2129 22.6142 15.2243 16.6156 21.2852C16.5722 21.3291 16.548 21.3884 16.5483 21.4502C16.5486 21.5119 16.5735 21.571 16.6174 21.6144L18.0541 23.0344C18.1455 23.1247 18.2928 23.1238 18.3831 23.0325ZM44.4522 8.12955C46.0228 8.12955 47.3519 9.44753 47.3519 10.9944C47.3519 12.5412 46.0228 13.8592 44.4522 13.8592C42.8816 13.8592 41.5526 12.5412 41.5526 10.9944C41.5526 9.32501 42.8752 8.12955 44.4522 8.12955Z" fill="white" stroke="white" stroke-width="0.46543" stroke-linejoin="round"/>
<path d="M8.00861 48.2955C8.00861 43.6177 8.89084 38.9406 10.6542 34.6335C11.0413 34.7179 11.4837 34.7179 11.8043 34.7179L11.8225 34.7179C13.7256 34.7179 15.502 33.7763 16.4608 32.1508L16.4608 32.1508L16.4632 32.1466C17.1391 30.9438 17.4194 29.5871 17.005 28.2221C16.5967 26.8767 15.7789 25.8006 14.5609 24.9978C14.5529 24.9925 14.5446 24.9878 14.5361 24.9835C13.7274 24.5834 12.7785 24.3139 11.8226 24.3139C9.91968 24.3139 8.14344 25.2553 7.18459 26.8806C5.84517 29.1321 6.47513 31.8924 8.40856 33.5232C6.4824 38.1532 5.45552 43.1613 5.45552 48.296H5.45536L5.45568 48.3047C5.58587 51.8048 6.11018 55.5678 7.16131 59.0751C7.19764 59.1963 7.32419 59.2662 7.44617 59.2326C7.44835 59.232 7.45051 59.2313 7.45266 59.2307L9.27482 58.716C9.33524 58.6989 9.3862 58.6582 9.41613 58.603C9.44606 58.5478 9.45242 58.4829 9.43377 58.4229C8.39832 55.0945 8.00861 51.7624 8.00861 48.2955ZM14.7308 28.7413L14.7306 28.7414L14.7339 28.7511C14.9715 29.4559 14.8529 30.2869 14.4961 30.8767C13.645 32.196 11.8285 32.6656 10.5097 31.836C10.503 31.8317 10.4961 31.8279 10.489 31.8244C9.04638 31.1105 8.56957 29.3302 9.40684 28.0285C9.40949 28.0244 9.412 28.0202 9.41438 28.0159C9.89569 27.1853 10.8627 26.5862 11.9523 26.5862C12.4318 26.5862 12.916 26.7041 13.4076 26.9455C14.0033 27.3017 14.4865 27.8952 14.7308 28.7413Z" fill="white" stroke="white" stroke-width="0.46543" stroke-linejoin="round"/>
<path d="M15.525 70.1242C17.0443 68.4961 17.3914 66.0184 16.2016 63.9267L16.2016 63.9266L16.1997 63.9235C15.2467 62.3077 13.4761 61.2277 11.5615 61.2277C10.6002 61.2277 9.78126 61.5003 8.97823 61.8973L8.97814 61.8971L8.9693 61.902C7.75369 62.57 6.78681 63.6488 6.50609 65.0176C6.0959 66.3811 6.37859 67.7314 7.04624 69.052C7.04851 69.0565 7.05092 69.0609 7.05348 69.0652C8.00657 70.6811 9.7771 71.761 11.6917 71.761C12.3208 71.761 12.9477 71.6463 13.5711 71.4195C18.6824 77.9711 25.7312 82.8537 33.8192 85.047C33.9418 85.0802 34.0685 85.009 34.1037 84.887L34.6257 83.0799C34.643 83.0201 34.6355 82.9557 34.605 82.9014C34.5745 82.8471 34.5235 82.8072 34.4633 82.7908C27.0094 80.7572 20.316 76.2022 15.525 70.1242ZM13.1415 69.1322C11.834 69.8324 10.0142 69.2526 9.1537 67.9274C8.78555 67.1953 8.67625 66.4896 8.91078 65.7938C9.15364 65.0733 9.63758 64.4754 10.2371 64.1171C10.728 63.8757 11.2122 63.7578 11.6924 63.7578C12.7823 63.7578 13.7492 64.3573 14.2309 65.1886C14.9485 66.4925 14.4725 68.2895 13.1415 69.1322Z" fill="white" stroke="white" stroke-width="0.46543" stroke-linejoin="round"/>
<path d="M70.5896 73.5573C70.499 73.4675 70.353 73.4675 70.2623 73.5572C64.6042 79.1524 57.2878 82.7306 49.452 83.7907C48.8328 81.72 46.8364 80.0724 44.4526 80.0724C41.5934 80.0724 39.1293 82.3604 39.1293 85.2097C39.1293 86.5632 39.676 87.9071 40.6234 88.9781C40.6269 88.982 40.6304 88.9858 40.6341 88.9894C41.5822 89.927 42.9434 90.6057 44.3218 90.6057C46.9852 90.6057 49.1341 88.6765 49.49 86.1932C57.9573 85.1218 65.7678 81.2375 71.8939 75.1792C71.9381 75.1355 71.9629 75.0759 71.963 75.0138C71.963 74.9516 71.9381 74.8921 71.894 74.8484L70.5896 73.5573ZM44.4518 88.3325C44.4507 88.3325 44.4495 88.3325 44.4484 88.3325C43.6081 88.3315 42.8878 87.977 42.406 87.5052C41.9049 86.8824 41.5522 86.163 41.5522 85.4677C41.5522 83.9209 42.8812 82.6028 44.4518 82.6028C46.0225 82.6028 47.3515 83.9208 47.3515 85.4677C47.3515 87.0145 46.0225 88.3325 44.4518 88.3325Z" fill="white" stroke="white" stroke-width="0.46543" stroke-linejoin="round"/>
<path d="M73.5142 26.4619C72.9181 27.0884 72.545 27.7366 72.2917 28.6101C71.8818 29.9624 72.0216 31.3139 72.6989 32.6536C72.7012 32.6581 72.7036 32.6625 72.7062 32.6669C73.6593 34.2827 75.4298 35.3626 77.3444 35.3626C78.3057 35.3626 79.1247 35.0901 79.9277 34.693L79.9278 34.6932L79.9366 34.6884C81.1522 34.0204 82.1191 32.9416 82.3998 31.5728C82.8064 30.2236 82.6657 28.8751 81.9899 27.5384C81.9876 27.5339 81.9852 27.5295 81.9826 27.5252C81.0295 25.9093 79.259 24.8294 77.3444 24.8294C76.7336 24.8294 76.1155 24.9376 75.5899 25.1603C70.212 18.0969 62.5135 12.9599 53.9043 10.8967C53.7818 10.8674 53.6582 10.9408 53.6254 11.0625L53.1034 12.9983C53.087 13.0592 53.096 13.1241 53.1283 13.1782C53.1606 13.2323 53.2134 13.271 53.2748 13.2854C61.3799 15.1942 68.5901 19.8788 73.5142 26.4619ZM77.4747 27.2311C78.4279 27.2311 79.3959 27.8243 79.8804 28.6585C80.2503 29.3922 80.3604 30.0993 80.1255 30.7964C79.8821 31.5183 79.3968 32.1171 78.7956 32.4752C77.4666 33.1889 75.6578 32.704 74.9393 31.4073C74.5685 30.6728 74.4579 29.965 74.6931 29.2672C74.936 28.5467 75.4199 27.9488 76.0194 27.5904C76.5104 27.349 76.9946 27.2311 77.4747 27.2311Z" fill="white" stroke="white" stroke-width="0.46543" stroke-linejoin="round"/>
<path d="M72.0498 64.5725C71.374 65.7753 71.0936 67.1321 71.5081 68.4971C71.9117 69.8271 72.7234 71.0442 73.96 71.7265C74.7968 72.275 75.7615 72.4052 76.6904 72.4052C78.6002 72.4052 80.2423 71.458 81.1979 69.8381L81.198 69.8381L81.2004 69.8339C81.8708 68.6407 82.152 67.296 81.7519 65.9421C81.7381 64.876 81.0927 63.9628 80.235 63.2034C82.291 58.4449 83.3186 53.4315 83.3186 48.1661C83.3186 44.9215 82.9248 41.5431 82.0036 38.4198C81.968 38.299 81.8428 38.2285 81.7211 38.2606L79.7634 38.7767C79.7038 38.7925 79.6528 38.8313 79.6217 38.8846C79.5906 38.9379 79.582 39.0014 79.5978 39.0611C80.3754 42.0099 80.7647 45.0874 80.7647 48.1655C80.7647 52.9699 79.7563 57.6511 77.8612 62.0863C77.4707 62.0011 77.0102 62.0012 76.586 62.0012H76.5597C74.6499 62.0012 73.0079 62.9484 72.0523 64.5683L72.0522 64.5683L72.0498 64.5725ZM74.2805 65.7087L74.2816 65.7068C74.7623 64.8747 75.7303 64.2741 76.8212 64.2741C77.3007 64.2741 77.785 64.392 78.2766 64.6334C78.8723 64.9896 79.3554 65.5831 79.5998 66.4292C79.8407 67.2652 79.7229 67.9683 79.2381 68.6871C79.2338 68.6935 79.2298 68.7 79.2262 68.7068C78.5103 70.002 76.5755 70.4882 75.2479 69.6527C73.9134 68.8128 73.4339 67.1433 74.2805 65.7087Z" fill="white" stroke="white" stroke-width="0.46543" stroke-linejoin="round"/>
<mask id="path-7-outside-1_37_3325" maskUnits="userSpaceOnUse" x="27.1372" y="29.0967" width="35" height="19" fill="black">
<rect fill="white" x="27.1372" y="29.0967" width="35" height="19"/>
<path d="M44.4526 30.226C42.8861 30.226 41.3203 30.6134 40.0148 31.3876C38.7093 30.6134 37.2736 30.0967 35.8381 30.0967C31.6613 30.0967 28.1372 33.4522 28.1372 37.712C28.1372 41.9712 31.5304 45.3273 35.8381 45.3273C36.7518 45.3273 37.5347 45.1979 38.3182 44.9399C39.8847 46.4889 42.1032 47.3924 44.4526 47.3924C46.802 47.3924 49.0205 46.4889 50.587 44.9399C51.3699 45.1979 52.2836 45.3273 53.0671 45.3273C57.2439 45.3273 60.768 41.9718 60.768 37.712C60.768 33.4528 57.3748 30.0967 53.0671 30.0967C51.5007 30.0967 50.0651 30.6128 48.8904 31.3876C47.5849 30.6134 46.0191 30.226 44.4526 30.226V30.226ZM30.0953 37.712C30.0953 34.6145 32.7056 32.0332 35.8379 32.0332C36.7516 32.0332 37.6653 32.2913 38.4482 32.6787C36.8817 34.2278 35.8379 36.4216 35.8379 38.7449C35.8379 40.4227 36.3599 41.8424 37.1434 43.1334C36.7516 43.2627 36.3605 43.2627 35.8379 43.2627C32.5754 43.3915 30.0953 40.8095 30.0953 37.712V37.712ZM44.4526 45.456C40.7977 45.456 37.6654 42.4873 37.6654 38.7442C37.6654 35.13 40.6675 32.0325 44.4526 32.0325C48.1074 32.0325 51.2398 35.0011 51.2398 38.7442C51.2398 42.4878 48.1074 45.456 44.4526 45.456ZM53.0671 32.0331C56.1995 32.0331 58.8097 34.6143 58.8097 37.7119C58.8097 40.8094 56.1995 43.3907 53.0671 43.3907C52.6754 43.3907 52.2842 43.3907 51.7616 43.2613C52.5446 41.9704 53.0671 40.4219 53.0671 38.8729C53.0671 36.4203 52.0232 34.3557 50.4568 32.8066C51.37 32.2911 52.1534 32.033 53.0671 32.033V32.0331Z"/>
</mask>
<path d="M44.4526 30.226C42.8861 30.226 41.3203 30.6134 40.0148 31.3876C38.7093 30.6134 37.2736 30.0967 35.8381 30.0967C31.6613 30.0967 28.1372 33.4522 28.1372 37.712C28.1372 41.9712 31.5304 45.3273 35.8381 45.3273C36.7518 45.3273 37.5347 45.1979 38.3182 44.9399C39.8847 46.4889 42.1032 47.3924 44.4526 47.3924C46.802 47.3924 49.0205 46.4889 50.587 44.9399C51.3699 45.1979 52.2836 45.3273 53.0671 45.3273C57.2439 45.3273 60.768 41.9718 60.768 37.712C60.768 33.4528 57.3748 30.0967 53.0671 30.0967C51.5007 30.0967 50.0651 30.6128 48.8904 31.3876C47.5849 30.6134 46.0191 30.226 44.4526 30.226V30.226ZM30.0953 37.712C30.0953 34.6145 32.7056 32.0332 35.8379 32.0332C36.7516 32.0332 37.6653 32.2913 38.4482 32.6787C36.8817 34.2278 35.8379 36.4216 35.8379 38.7449C35.8379 40.4227 36.3599 41.8424 37.1434 43.1334C36.7516 43.2627 36.3605 43.2627 35.8379 43.2627C32.5754 43.3915 30.0953 40.8095 30.0953 37.712V37.712ZM44.4526 45.456C40.7977 45.456 37.6654 42.4873 37.6654 38.7442C37.6654 35.13 40.6675 32.0325 44.4526 32.0325C48.1074 32.0325 51.2398 35.0011 51.2398 38.7442C51.2398 42.4878 48.1074 45.456 44.4526 45.456ZM53.0671 32.0331C56.1995 32.0331 58.8097 34.6143 58.8097 37.7119C58.8097 40.8094 56.1995 43.3907 53.0671 43.3907C52.6754 43.3907 52.2842 43.3907 51.7616 43.2613C52.5446 41.9704 53.0671 40.4219 53.0671 38.8729C53.0671 36.4203 52.0232 34.3557 50.4568 32.8066C51.37 32.2911 52.1534 32.033 53.0671 32.033V32.0331Z" fill="white"/>
<path d="M40.0148 31.3876L39.7774 31.788C39.9238 31.8748 40.1059 31.8748 40.2522 31.788L40.0148 31.3876ZM38.3182 44.9399L38.6455 44.6089C38.5212 44.486 38.3386 44.4431 38.1726 44.4978L38.3182 44.9399ZM50.587 44.9399L50.7327 44.4978C50.5667 44.4431 50.384 44.486 50.2597 44.6089L50.587 44.9399ZM48.8904 31.3876L48.653 31.788C48.8062 31.8789 48.9979 31.8743 49.1466 31.7762L48.8904 31.3876ZM44.4526 29.7606C44.1955 29.7606 43.9872 29.969 43.9872 30.226C43.9872 30.4831 44.1955 30.6914 44.4526 30.6914V29.7606ZM29.6299 37.712C29.6299 37.9691 29.8382 38.1774 30.0953 38.1774C30.3523 38.1774 30.5607 37.9691 30.5607 37.712H29.6299ZM38.4482 32.6787L38.7755 33.0096C38.8824 32.9039 38.9317 32.7529 38.9077 32.6045C38.8837 32.456 38.7894 32.3282 38.6546 32.2615L38.4482 32.6787ZM37.1434 43.1334L37.2893 43.5754C37.424 43.5309 37.531 43.4275 37.5801 43.2944C37.6291 43.1613 37.6149 43.0131 37.5413 42.8919L37.1434 43.1334ZM35.8379 43.2627V42.7973C35.8318 42.7973 35.8257 42.7974 35.8196 42.7977L35.8379 43.2627ZM30.5607 37.712C30.5607 37.4549 30.3523 37.2466 30.0953 37.2466C29.8382 37.2466 29.6299 37.4549 29.6299 37.712H30.5607ZM53.0671 32.0331H52.6017C52.6017 32.2901 52.8101 32.4985 53.0671 32.4985V32.0331ZM51.7616 43.2613L51.3637 43.02C51.2869 43.1466 51.2749 43.3021 51.3314 43.4389C51.3879 43.5758 51.5061 43.6776 51.6498 43.7131L51.7616 43.2613ZM50.4568 32.8066L50.228 32.4014C50.1009 32.4731 50.0149 32.6003 49.9955 32.745C49.9762 32.8896 50.0258 33.035 50.1296 33.1376L50.4568 32.8066ZM53.0671 32.033H53.5326C53.5326 31.7759 53.3242 31.5676 53.0671 31.5676V32.033ZM44.4526 29.7606C42.8126 29.7606 41.1629 30.1656 39.7774 30.9873L40.2522 31.788C41.4777 31.0612 42.9597 30.6914 44.4526 30.6914V29.7606ZM40.2522 30.9873C38.9012 30.186 37.3832 29.6312 35.8381 29.6312V30.5621C37.1641 30.5621 38.5175 31.0408 39.7774 31.788L40.2522 30.9873ZM35.8381 29.6312C31.4144 29.6312 27.6718 33.1851 27.6718 37.712H28.6026C28.6026 33.7192 31.9083 30.5621 35.8381 30.5621V29.6312ZM27.6718 37.712C27.6718 42.2331 31.2783 45.7927 35.8381 45.7927V44.8618C31.7826 44.8618 28.6026 41.7092 28.6026 37.712H27.6718ZM35.8381 45.7927C36.7999 45.7927 37.6321 45.6559 38.4638 45.3819L38.1726 44.4978C37.4373 44.74 36.7036 44.8618 35.8381 44.8618V45.7927ZM37.9909 45.2708C39.6483 46.9097 41.986 47.8579 44.4526 47.8579V46.927C42.2204 46.927 40.1211 46.0682 38.6455 44.6089L37.9909 45.2708ZM44.4526 47.8579C46.9192 47.8579 49.2569 46.9097 50.9142 45.2708L50.2597 44.6089C48.7841 46.0681 46.6848 46.927 44.4526 46.927V47.8579ZM50.4413 45.3819C51.2759 45.657 52.2393 45.7927 53.0671 45.7927V44.8618C52.3279 44.8618 51.4639 44.7389 50.7327 44.4978L50.4413 45.3819ZM53.0671 45.7927C57.4908 45.7927 61.2334 42.2388 61.2334 37.712H60.3025C60.3025 41.7047 56.9969 44.8618 53.0671 44.8618V45.7927ZM61.2334 37.712C61.2334 33.1909 57.6269 29.6312 53.0671 29.6312V30.5621C57.1226 30.5621 60.3025 33.7147 60.3025 37.712H61.2334ZM53.0671 29.6312C51.397 29.6312 49.8737 30.1815 48.6341 30.9991L49.1466 31.7762C50.2564 31.0442 51.6043 30.5621 53.0671 30.5621V29.6312ZM49.1278 30.9873C47.7423 30.1656 46.0926 29.7606 44.4526 29.7606V30.6914C45.9455 30.6914 47.4275 31.0612 48.653 31.788L49.1278 30.9873ZM30.5607 37.712C30.5607 34.8764 32.9577 32.4986 35.8379 32.4986V31.5678C32.4534 31.5678 29.6299 34.3525 29.6299 37.712H30.5607ZM35.8379 32.4986C36.6671 32.4986 37.5103 32.7339 38.2418 33.0958L38.6546 32.2615C37.8202 31.8487 36.8361 31.5678 35.8379 31.5678V32.4986ZM38.1209 32.3477C36.4763 33.9741 35.3725 36.2835 35.3725 38.7449H36.3033C36.3033 36.5597 37.2871 34.4815 38.7755 33.0096L38.1209 32.3477ZM35.3725 38.7449C35.3725 40.5273 35.9291 42.0298 36.7455 43.3749L37.5413 42.8919C36.7906 41.6551 36.3033 40.318 36.3033 38.7449H35.3725ZM36.9975 42.6914C36.6896 42.7931 36.3768 42.7973 35.8379 42.7973V43.7281C36.3441 43.7281 36.8137 43.7324 37.2893 43.5754L36.9975 42.6914ZM35.8196 42.7977C32.8338 42.9155 30.5607 40.5581 30.5607 37.712H29.6299C29.6299 41.061 32.3171 43.8675 35.8563 43.7278L35.8196 42.7977ZM29.6299 37.712V37.712H30.5607V37.712H29.6299ZM44.4526 44.9906C41.044 44.9906 38.1308 42.2196 38.1308 38.7442H37.2C37.2 42.755 40.5515 45.9214 44.4526 45.9214V44.9906ZM38.1308 38.7442C38.1308 35.3861 40.9254 32.4979 44.4526 32.4979V31.567C40.4095 31.567 37.2 34.8738 37.2 38.7442H38.1308ZM44.4526 32.4979C47.8612 32.4979 50.7743 35.2688 50.7743 38.7442H51.7052C51.7052 34.7335 48.3537 31.567 44.4526 31.567V32.4979ZM50.7743 38.7442C50.7743 42.22 47.8612 44.9906 44.4526 44.9906V45.9214C48.3537 45.9214 51.7052 42.7555 51.7052 38.7442H50.7743ZM53.0671 32.4985C55.9473 32.4985 58.3443 34.8763 58.3443 37.7119H59.2752C59.2752 34.3524 56.4516 31.5676 53.0671 31.5676V32.4985ZM58.3443 37.7119C58.3443 40.5475 55.9473 42.9252 53.0671 42.9252V43.8561C56.4516 43.8561 59.2752 41.0713 59.2752 37.7119H58.3443ZM53.0671 42.9252C52.6795 42.9252 52.3371 42.9243 51.8735 42.8095L51.6498 43.7131C52.2313 43.8571 52.6712 43.8561 53.0671 43.8561V42.9252ZM52.1596 43.5027C52.9775 42.154 53.5326 40.5231 53.5326 38.8729H52.6017C52.6017 40.3208 52.1116 41.7867 51.3637 43.02L52.1596 43.5027ZM53.5326 38.8729C53.5326 36.2784 52.4256 34.0991 50.7841 32.4757L50.1296 33.1376C51.6208 34.6123 52.6017 36.5621 52.6017 38.8729H53.5326ZM50.6857 33.2119C51.5518 32.7229 52.2563 32.4984 53.0671 32.4984V31.5676C52.0506 31.5676 51.1881 31.8593 50.228 32.4014L50.6857 33.2119ZM52.6017 32.033V32.0331H53.5326V32.033H52.6017Z" fill="white" mask="url(#path-7-outside-1_37_3325)"/>
<path d="M19.5232 62.0795H25.9185C25.8713 62.5268 25.8438 62.9949 25.8166 63.4793C25.8147 63.5125 25.8128 63.5457 25.811 63.5791C25.7801 64.1308 25.7479 64.7056 25.6871 65.3084C25.6863 65.3162 25.6859 65.324 25.6859 65.3318V66.3641C25.6859 66.4926 25.7901 66.5968 25.9187 66.5968H63.2473C63.3758 66.5968 63.48 66.4926 63.48 66.3641V65.3318C63.48 65.324 63.4796 65.3161 63.4788 65.3083C63.4175 64.7026 63.3851 64.1253 63.3541 63.5712L63.3489 63.4793C63.3217 62.9949 63.2943 62.5269 63.2474 62.0795H69.6428C69.7135 62.0795 69.7803 62.0474 69.8245 61.9922C69.8686 61.937 69.8853 61.8648 69.8698 61.7958L69.6133 60.6547C69.4823 57.8266 69.2222 55.249 68.8315 53.178V53.0705C68.8315 53.0607 68.8309 53.0509 68.8297 53.0412C68.6961 51.9869 68.3014 50.9415 67.7876 49.7938V49.7143C67.7876 49.6734 67.7769 49.6333 67.7564 49.5979C67.2136 48.6581 66.2697 47.725 65.32 47.1884L65.3202 47.1881L65.3088 47.1825C65.2341 47.1454 65.1533 47.1002 65.0601 47.0479C64.9945 47.0112 64.9229 46.971 64.8428 46.9279C64.6603 46.8294 64.4508 46.7252 64.236 46.6543C64.2354 46.6541 64.2349 46.654 64.2344 46.6538L58.6244 44.719C58.5154 44.6814 58.3954 44.7292 58.3421 44.8315L56.2168 48.9114L50.9256 47.0428C50.8179 47.0048 50.6984 47.0506 50.6438 47.151L45.2281 57.0968H43.6773L38.2617 47.151C38.207 47.0506 38.0876 47.0048 37.9798 47.0428L32.6886 48.9114L30.5622 44.8314C30.5087 44.7286 30.3876 44.6809 30.2784 44.7195L24.7989 46.6546C24.7901 46.6575 24.7813 46.6604 24.7724 46.6633C24.4128 46.7819 23.993 46.9204 23.6946 47.1986C22.6133 47.7438 21.8108 48.678 21.2793 49.5979L21.279 49.5977L21.2732 49.6091L21.1474 49.8574C20.4725 50.9293 20.2068 52.1262 20.0752 53.1701C20.074 53.1797 20.0734 53.1895 20.0734 53.1992V53.3139C19.8125 55.3806 19.5519 57.9598 19.2915 60.7932C19.2908 60.8003 19.2905 60.8074 19.2905 60.8145V61.8468C19.2905 61.9754 19.3947 62.0795 19.5232 62.0795ZM22.3671 53.4579V53.2195C22.4938 52.482 22.7446 51.7358 23.2517 50.7316C23.6194 50.1285 24.1099 49.6397 24.861 49.1429C24.991 49.0785 25.1171 49.0161 25.2432 48.9537C25.3672 48.8924 25.4913 48.8311 25.6193 48.7677L29.3326 47.4214L30.5676 49.7532C29.4459 50.4055 28.4464 51.2995 27.805 52.4411L27.8041 52.4427C27.0125 53.8782 26.4697 55.3383 26.4697 56.8143C26.4697 56.8552 26.4577 56.9469 26.4301 57.1104C26.4184 57.1799 26.4046 57.2584 26.3892 57.3463L26.3837 57.3776C26.3661 57.478 26.3466 57.5896 26.3261 57.7114C26.2515 58.1541 26.163 58.7324 26.0979 59.4209L21.7352 59.4204C21.8711 57.1407 22.1177 55.202 22.3648 53.4911C22.3663 53.4801 22.3671 53.469 22.3671 53.4579ZM28.1236 64.0667C28.2535 61.8725 28.4405 60.2184 28.5969 59.1044C28.678 58.5268 28.7509 58.0943 28.8033 57.807C28.8296 57.6634 28.8507 57.556 28.8651 57.485C28.8724 57.4494 28.8779 57.423 28.8817 57.4056L28.8858 57.3863L28.8868 57.3818L28.8871 57.3808L28.8871 57.3807L28.8871 57.3806L28.8871 57.3806C28.8909 57.3639 28.8927 57.3468 28.8927 57.3296V57.0716C28.8927 56.0957 29.2641 54.9761 29.9039 53.8353C30.5328 52.8431 31.5346 51.981 32.6481 51.6138L32.6482 51.6139L32.6555 51.6112L37.0341 50.003L42.159 59.5059C42.1996 59.5812 42.2783 59.6282 42.3639 59.6282H46.4099C46.4954 59.6282 46.5741 59.5812 46.6147 59.5059L51.7421 49.9985L56.1238 51.4845L56.1255 51.485C56.4947 51.6069 56.7414 51.7275 56.996 51.8536C57.7454 52.3485 58.3496 52.8299 58.8371 53.6505V53.7167C58.8371 53.7532 58.8457 53.7891 58.8622 53.8217C59.3796 54.8451 59.7543 55.7151 59.881 56.573V56.8142C59.881 56.8239 59.8816 56.8337 59.8829 56.8433C60.1355 58.8428 60.3884 61.329 60.6415 64.0674L28.1236 64.0667ZM67.1777 59.6783H62.818C62.6905 58.552 62.5637 57.5456 62.4364 56.5407V56.4261C62.4364 56.4174 62.436 56.4087 62.435 56.4C62.303 55.2274 61.9123 53.9234 61.131 52.7413V52.6825C61.131 52.6385 61.1185 52.5954 61.0949 52.5581C60.4597 51.5536 59.5841 50.6666 58.4684 50.0106L59.7026 47.6803L63.285 49.024C63.4109 49.0864 63.5408 49.1506 63.6706 49.2148C63.7983 49.2779 63.9258 49.341 64.0494 49.4022C64.6452 49.7573 65.1319 50.2286 65.6246 50.8295V50.876C65.6246 50.9169 65.6353 50.9571 65.6558 50.9924C66.1601 51.8655 66.4112 52.6082 66.5383 53.3483V53.5867C66.5383 53.5978 66.5391 53.609 66.5406 53.62C66.7924 55.3629 67.0436 57.3431 67.1777 59.6783Z" fill="white" stroke="white" stroke-width="0.46543" stroke-linejoin="round"/>
</svg>
