<svg width="63" height="63" viewBox="0 0 63 63" fill="none" xmlns="http://www.w3.org/2000/svg">
<path d="M62.1462 31.0731C62.1462 13.9077 48.2385 0 31.0731 0C13.9077 0 0 13.9077 0 31.0731C0 48.2385 13.9077 62.1462 31.0731 62.1462C48.2385 62.1462 62.1462 48.2385 62.1462 31.0731ZM31.0731 58.1368C16.2006 58.1368 4.00943 46.096 4.00943 31.0731C4.00943 16.2006 16.0503 4.00943 31.0731 4.00943C45.9456 4.00943 58.1368 16.0503 58.1368 31.0731C58.1368 45.9456 46.096 58.1368 31.0731 58.1368ZM29.5069 46.547L15.0855 32.1381C14.4966 31.5492 14.4966 30.597 15.0855 30.0081L29.5069 15.5992C30.0958 15.0103 31.0481 15.0103 31.6369 15.5992L32.5015 16.4637C33.0904 17.0526 33.0904 18.0299 32.4764 18.6063L21.7637 28.9431H45.6073C46.4343 28.9431 47.1108 29.6197 47.1108 30.4466V31.6996C47.1108 32.5265 46.4343 33.2031 45.6073 33.2031H21.7637L32.4889 43.5399C33.0904 44.1288 33.1029 45.0936 32.514 45.6825L31.6495 46.547C31.0481 47.1359 30.0958 47.1359 29.5069 46.547Z" fill="#D6D6D6"/>
</svg>
