<svg width="63" height="63" viewBox="0 0 63 63" fill="none" xmlns="http://www.w3.org/2000/svg">
<g clip-path="url(#clip0_12_14718)">
<path d="M0.694336 31.0731C0.694336 48.2385 14.6021 62.1462 31.7674 62.1462C48.9328 62.1462 62.8406 48.2385 62.8406 31.0731C62.8406 13.9077 48.9328 0 31.7674 0C14.6021 0 0.694336 13.9077 0.694336 31.0731ZM31.7674 4.00943C46.6399 4.00943 58.8311 16.0503 58.8311 31.0731C58.8311 45.9456 46.7903 58.1368 31.7674 58.1368C16.895 58.1368 4.70377 46.096 4.70377 31.0731C4.70377 16.2006 16.7446 4.00943 31.7674 4.00943ZM33.3336 15.5992L47.7551 30.0081C48.344 30.597 48.344 31.5492 47.7551 32.1381L33.3336 46.547C32.7447 47.1359 31.7925 47.1359 31.2036 46.547L30.3391 45.6825C29.7502 45.0936 29.7502 44.1163 30.3641 43.5399L41.0894 33.2031H17.2333C16.4063 33.2031 15.7297 32.5265 15.7297 31.6996V30.4466C15.7297 29.6197 16.4063 28.9431 17.2333 28.9431H41.0768L30.3516 18.6063C29.7502 18.0174 29.7377 17.0526 30.3266 16.4637L31.1911 15.5992C31.7925 15.0103 32.7447 15.0103 33.3336 15.5992V15.5992Z" fill="url(#paint0_linear_12_14718)"/>
</g>
<defs>
<linearGradient id="paint0_linear_12_14718" x1="19.1162" y1="-4.9232" x2="67.4211" y2="16.1093" gradientUnits="userSpaceOnUse">
<stop stop-color="#00B1AC"/>
<stop offset="1" stop-color="#00539F"/>
</linearGradient>
<clipPath id="clip0_12_14718">
<rect width="62.1462" height="62.1462" fill="white" transform="translate(0.694336)"/>
</clipPath>
</defs>
</svg>
