<svg width="68" height="58" viewBox="0 0 68 58" fill="none" xmlns="http://www.w3.org/2000/svg">
<path d="M0.551563 38C0.551563 32.4 1.81823 27.2 4.35156 22.4C7.01823 17.4667 10.4182 13.1333 14.5516 9.39999C18.6849 5.66666 23.0182 2.73333 27.5516 0.599996L32.5516 6.8C29.0849 9.73333 26.0182 13 23.3516 16.6C20.8182 20.2 19.5516 23.6667 19.5516 27C19.5516 29.1333 20.0182 30.5333 20.9516 31.2C22.0182 31.7333 23.2182 32.4667 24.5516 33.4C26.0182 34.4667 27.3516 35.9333 28.5516 37.8C29.7516 39.6667 30.3516 41.9333 30.3516 44.6C30.3516 48.6 29.0849 51.8 26.5516 54.2C24.0182 56.6 20.7516 57.8 16.7516 57.8C11.9516 57.8 8.01823 56.0667 4.95156 52.6C2.01823 49 0.551563 44.1333 0.551563 38ZM35.7516 38C35.7516 32.4 37.0182 27.2 39.5516 22.4C42.2182 17.4667 45.6182 13.1333 49.7516 9.39999C53.8849 5.66666 58.2182 2.73333 62.7516 0.599996L67.7516 6.8C64.2849 9.73333 61.2182 13 58.5516 16.6C56.0182 20.2 54.7516 23.6667 54.7516 27C54.7516 29.1333 55.2182 30.5333 56.1516 31.2C57.2182 31.7333 58.4182 32.4667 59.7516 33.4C61.2182 34.4667 62.5516 35.9333 63.7516 37.8C64.9516 39.6667 65.5516 41.9333 65.5516 44.6C65.5516 48.6 64.2849 51.8 61.7516 54.2C59.2182 56.6 55.9516 57.8 51.9516 57.8C47.1516 57.8 43.2182 56.0667 40.1516 52.6C37.2182 49 35.7516 44.1333 35.7516 38Z" fill="#00B1AC"/>
</svg>
